SplineFontDB: 3.0
FontName: Kameron-Bold
FullName: Kameron Bold
FamilyName: Kameron
Weight: Bold
Copyright: Copyright (c) 2011 by vernon adams. All rights reserved.
Version: 1.000
ItalicAngle: 0
UnderlinePosition: -103
UnderlineWidth: 102
Ascent: 1638
Descent: 410
sfntRevision: 0x00010000
LayerCount: 2
Layer: 0 1 "Back"  1
Layer: 1 1 "Fore"  0
XUID: [1021 759 1887733602 11132364]
FSType: 0
OS2Version: 2
OS2_WeightWidthSlopeOnly: 0
OS2_UseTypoMetrics: 1
CreationTime: 1306331135
ModificationTime: 1306415184
PfmFamily: 17
TTFWeight: 700
TTFWidth: 5
LineGap: 0
VLineGap: 0
Panose: 2 0 5 3 4 0 0 2 0 3
OS2TypoAscent: 242
OS2TypoAOffset: 1
OS2TypoDescent: -312
OS2TypoDOffset: 1
OS2TypoLinegap: 0
OS2WinAscent: 0
OS2WinAOffset: 1
OS2WinDescent: 0
OS2WinDOffset: 1
HheadAscent: 0
HheadAOffset: 1
HheadDescent: 0
HheadDOffset: 1
OS2SubXSize: 2726
OS2SubYSize: 2517
OS2SubXOff: 0
OS2SubYOff: 315
OS2SupXSize: 2726
OS2SupYSize: 2517
OS2SupXOff: 0
OS2SupYOff: 1468
OS2StrikeYSize: 102
OS2StrikeYPos: 512
OS2Vendor: 'newt'
OS2CodePages: 00000001.00000000
OS2UnicodeRanges: 800000af.0000204b.00000000.00000000
Lookup: 258 0 0 "'kern' Horizontal Kerning in Latin lookup 0"  {"'kern' Horizontal Kerning in Latin lookup 0 subtable"  } ['kern' ('DFLT' <'dflt' > 'latn' <'dflt' > ) ]
MarkAttachClasses: 1
DEI: 91125
TtTable: prep
PUSHW_1
 0
CALL
SVTCA[y-axis]
PUSHW_3
 1
 4
 2
CALL
SVTCA[x-axis]
PUSHW_3
 5
 2
 2
CALL
SVTCA[x-axis]
PUSHW_8
 5
 37
 29
 23
 16
 11
 0
 8
CALL
PUSHW_8
 6
 33
 29
 23
 16
 11
 0
 8
CALL
SVTCA[y-axis]
PUSHW_8
 1
 71
 58
 43
 31
 18
 0
 8
CALL
PUSHW_8
 2
 64
 51
 43
 31
 18
 0
 8
CALL
PUSHW_8
 3
 59
 51
 34
 25
 18
 0
 8
CALL
PUSHW_8
 4
 47
 38
 34
 25
 11
 0
 8
CALL
SVTCA[y-axis]
PUSHW_3
 7
 4
 7
CALL
PUSHW_1
 0
DUP
RCVT
RDTG
ROUND[Black]
RTG
WCVTP
EndTTInstrs
TtTable: fpgm
PUSHW_1
 0
FDEF
MPPEM
PUSHW_1
 8
LT
IF
PUSHB_2
 1
 1
INSTCTRL
EIF
PUSHW_1
 511
SCANCTRL
PUSHW_1
 40
SCVTCI
PUSHW_2
 8
 3
SDS
SDB
ENDF
PUSHW_1
 1
FDEF
DUP
DUP
RCVT
ROUND[Black]
WCVTP
PUSHB_1
 1
ADD
ENDF

StartChar: exclam
Encoding: 33 33 4
Width: 687
Flags: W
LayerCount: 2
Fore
SplineSet
341 231 m 0,0,1
 380 231 380 231 411.5 222 c 128,-1,2
 443 213 443 213 465.5 197.5 c 128,-1,3
 488 182 488 182 500.5 159.5 c 128,-1,4
 513 137 513 137 513 110 c 0,5,6
 513 57 513 57 468.5 22.5 c 128,-1,7
 424 -12 424 -12 341 -12 c 256,8,9
 258 -12 258 -12 213 20 c 128,-1,10
 168 52 168 52 168 110 c 0,11,12
 168 162 168 162 214 196.5 c 128,-1,13
 260 231 260 231 341 231 c 0,0,1
512 1307 m 1,14,15
 513 1299 513 1299 513.5 1282 c 128,-1,16
 514 1265 514 1265 514.5 1246.5 c 128,-1,17
 515 1228 515 1228 515 1211 c 128,-1,18
 515 1194 515 1194 515 1186 c 0,19,20
 515 1150 515 1150 510 1090.5 c 128,-1,21
 505 1031 505 1031 497 958.5 c 128,-1,22
 489 886 489 886 479 808 c 128,-1,23
 469 730 469 730 459 658 c 128,-1,24
 449 586 449 586 439 526.5 c 128,-1,25
 429 467 429 467 422 432 c 1,26,-1
 274 432 l 1,27,28
 267 466 267 466 257.5 525.5 c 128,-1,29
 248 585 248 585 238 657 c 128,-1,30
 228 729 228 729 218 808 c 128,-1,31
 208 887 208 887 200.5 960 c 128,-1,32
 193 1033 193 1033 188 1093.5 c 128,-1,33
 183 1154 183 1154 183 1190 c 0,34,35
 183 1198 183 1198 183 1214 c 128,-1,36
 183 1230 183 1230 183.5 1248 c 128,-1,37
 184 1266 184 1266 184.5 1282.5 c 128,-1,38
 185 1299 185 1299 186 1307 c 1,39,-1
 512 1307 l 1,14,15
EndSplineSet
EndChar

StartChar: quotedbl
Encoding: 34 34 5
Width: 740
Flags: W
LayerCount: 2
Fore
SplineSet
485 888 m 1,0,1
 476 939 476 939 464.5 996.5 c 128,-1,2
 453 1054 453 1054 442.5 1109 c 128,-1,3
 432 1164 432 1164 425 1212.5 c 128,-1,4
 418 1261 418 1261 418 1293 c 0,5,6
 418 1330 418 1330 429.5 1358 c 128,-1,7
 441 1386 441 1386 460.5 1404.5 c 128,-1,8
 480 1423 480 1423 504 1432 c 128,-1,9
 528 1441 528 1441 554 1441 c 0,10,11
 578 1441 578 1441 601 1432.5 c 128,-1,12
 624 1424 624 1424 641.5 1407.5 c 128,-1,13
 659 1391 659 1391 670 1366 c 128,-1,14
 681 1341 681 1341 681 1308 c 0,15,16
 681 1281 681 1281 678.5 1251 c 128,-1,17
 676 1221 676 1221 668.5 1175 c 128,-1,18
 661 1129 661 1129 648.5 1060.5 c 128,-1,19
 636 992 636 992 615 888 c 1,20,-1
 485 888 l 1,0,1
154 888 m 1,21,22
 145 939 145 939 133.5 996.5 c 128,-1,23
 122 1054 122 1054 111.5 1109 c 128,-1,24
 101 1164 101 1164 94 1212.5 c 128,-1,25
 87 1261 87 1261 87 1293 c 0,26,27
 87 1330 87 1330 98.5 1358 c 128,-1,28
 110 1386 110 1386 129.5 1404.5 c 128,-1,29
 149 1423 149 1423 173 1432 c 128,-1,30
 197 1441 197 1441 223 1441 c 0,31,32
 247 1441 247 1441 270 1432.5 c 128,-1,33
 293 1424 293 1424 310.5 1407.5 c 128,-1,34
 328 1391 328 1391 339 1366 c 128,-1,35
 350 1341 350 1341 350 1308 c 0,36,37
 350 1281 350 1281 347.5 1251 c 128,-1,38
 345 1221 345 1221 337.5 1175 c 128,-1,39
 330 1129 330 1129 317.5 1060.5 c 128,-1,40
 305 992 305 992 284 888 c 1,41,-1
 154 888 l 1,21,22
EndSplineSet
EndChar

StartChar: numbersign
Encoding: 35 35 6
Width: 1471
Flags: W
LayerCount: 2
Fore
SplineSet
681 1022 m 1,0,-1
 971 1022 l 1,1,-1
 1090 1428 l 1,2,-1
 1278 1428 l 1,3,-1
 1160 1022 l 1,4,-1
 1377 1022 l 1,5,-1
 1352 842 l 1,6,-1
 1110 842 l 1,7,-1
 1036 573 l 1,8,-1
 1313 573 l 1,9,-1
 1287 391 l 1,10,-1
 987 391 l 1,11,-1
 868 -14 l 1,12,-1
 678 -14 l 1,13,-1
 797 391 l 1,14,-1
 509 391 l 1,15,-1
 390 -14 l 1,16,-1
 201 -14 l 1,17,-1
 321 391 l 1,18,-1
 95 391 l 1,19,-1
 120 573 l 1,20,-1
 368 573 l 1,21,-1
 443 842 l 1,22,-1
 157 842 l 1,23,-1
 185 1022 l 1,24,-1
 493 1022 l 1,25,-1
 610 1428 l 1,26,-1
 800 1428 l 1,27,-1
 681 1022 l 1,0,-1
631 842 m 1,28,-1
 555 572 l 1,29,-1
 847 572 l 1,30,-1
 924 842 l 1,31,-1
 631 842 l 1,28,-1
EndSplineSet
EndChar

StartChar: dollar
Encoding: 36 36 7
Width: 1187
Flags: W
LayerCount: 2
Fore
SplineSet
666 1446 m 1,0,-1
 666 1306 l 1,1,2
 781 1298 781 1298 882 1270.5 c 128,-1,3
 983 1243 983 1243 1068 1193 c 1,4,-1
 1069 944 l 1,5,-1
 883 944 l 1,6,7
 883 1048 883 1048 831 1105.5 c 128,-1,8
 779 1163 779 1163 666 1174 c 1,9,-1
 666 763 l 1,10,11
 793 729 793 729 878 687.5 c 128,-1,12
 963 646 963 646 1014.5 596.5 c 128,-1,13
 1066 547 1066 547 1087.5 488.5 c 128,-1,14
 1109 430 1109 430 1109 362 c 0,15,16
 1109 290 1109 290 1080.5 225 c 128,-1,17
 1052 160 1052 160 996 109.5 c 128,-1,18
 940 59 940 59 855 27 c 128,-1,19
 770 -5 770 -5 658 -10 c 1,20,-1
 658 -191 l 1,21,-1
 545 -191 l 1,22,-1
 545 -8 l 1,23,24
 405 -1 405 -1 294.5 30.5 c 128,-1,25
 184 62 184 62 107 119 c 1,26,-1
 107 368 l 1,27,-1
 298 368 l 1,28,29
 299 309 299 309 313.5 265 c 128,-1,30
 328 221 328 221 357.5 190.5 c 128,-1,31
 387 160 387 160 433.5 142.5 c 128,-1,32
 480 125 480 125 545 119 c 1,33,-1
 545 565 l 1,34,35
 330 620 330 620 225 715.5 c 128,-1,36
 120 811 120 811 120 950 c 0,37,38
 120 1027 120 1027 149.5 1090 c 128,-1,39
 179 1153 179 1153 234.5 1199 c 128,-1,40
 290 1245 290 1245 371 1272 c 128,-1,41
 452 1299 452 1299 554 1305 c 1,42,-1
 554 1446 l 1,43,-1
 666 1446 l 1,0,-1
554 1179 m 1,44,45
 446 1171 446 1171 386.5 1124 c 128,-1,46
 327 1077 327 1077 327 993 c 0,47,48
 327 919 327 919 381.5 872.5 c 128,-1,49
 436 826 436 826 554 794 c 1,50,-1
 554 1179 l 1,44,45
658 115 m 1,51,52
 709 119 709 119 751 134 c 128,-1,53
 793 149 793 149 823 174.5 c 128,-1,54
 853 200 853 200 869 236.5 c 128,-1,55
 885 273 885 273 885 320 c 0,56,57
 885 400 885 400 829.5 453 c 128,-1,58
 774 506 774 506 658 535 c 1,59,-1
 658 115 l 1,51,52
EndSplineSet
EndChar

StartChar: percent
Encoding: 37 37 8
Width: 1797
Flags: W
LayerCount: 2
Fore
SplineSet
397 1335 m 0,0,1
 476 1335 476 1335 537.5 1309 c 128,-1,2
 599 1283 599 1283 641 1236 c 128,-1,3
 683 1189 683 1189 705 1121.5 c 128,-1,4
 727 1054 727 1054 727 972 c 0,5,6
 727 886 727 886 704 818.5 c 128,-1,7
 681 751 681 751 638 704 c 128,-1,8
 595 657 595 657 533.5 632.5 c 128,-1,9
 472 608 472 608 394 608 c 256,10,11
 316 608 316 608 254.5 633 c 128,-1,12
 193 658 193 658 150.5 705 c 128,-1,13
 108 752 108 752 85.5 819.5 c 128,-1,14
 63 887 63 887 63 972 c 256,15,16
 63 1057 63 1057 86 1124 c 128,-1,17
 109 1191 109 1191 152 1238 c 128,-1,18
 195 1285 195 1285 257 1310 c 128,-1,19
 319 1335 319 1335 397 1335 c 0,0,1
1423 1322 m 1,20,-1
 534 -15 l 1,21,-1
 374 -15 l 1,22,-1
 1264 1322 l 1,23,-1
 1423 1322 l 1,20,-1
396 1220 m 0,24,25
 325 1220 325 1220 294 1158 c 128,-1,26
 263 1096 263 1096 263 969 c 256,27,28
 263 842 263 842 295 783.5 c 128,-1,29
 327 725 327 725 396 725 c 0,30,31
 429 725 429 725 454 738.5 c 128,-1,32
 479 752 479 752 495.5 781.5 c 128,-1,33
 512 811 512 811 520.5 858 c 128,-1,34
 529 905 529 905 529 972 c 0,35,36
 529 1103 529 1103 498.5 1161.5 c 128,-1,37
 468 1220 468 1220 396 1220 c 0,24,25
1404 703 m 256,38,39
 1482 703 1482 703 1543 677.5 c 128,-1,40
 1604 652 1604 652 1646.5 605 c 128,-1,41
 1689 558 1689 558 1711 490 c 128,-1,42
 1733 422 1733 422 1733 337 c 256,43,44
 1733 252 1733 252 1710 185 c 128,-1,45
 1687 118 1687 118 1644 71.5 c 128,-1,46
 1601 25 1601 25 1539.5 0.5 c 128,-1,47
 1478 -24 1478 -24 1401 -24 c 0,48,49
 1323 -24 1323 -24 1261.5 1 c 128,-1,50
 1200 26 1200 26 1157.5 73 c 128,-1,51
 1115 120 1115 120 1092.5 187 c 128,-1,52
 1070 254 1070 254 1070 339 c 256,53,54
 1070 424 1070 424 1093 492 c 128,-1,55
 1116 560 1116 560 1159 606.5 c 128,-1,56
 1202 653 1202 653 1264 678 c 128,-1,57
 1326 703 1326 703 1404 703 c 256,38,39
1402 588 m 0,58,59
 1332 588 1332 588 1300 525.5 c 128,-1,60
 1268 463 1268 463 1268 336 c 0,61,62
 1268 210 1268 210 1300 151.5 c 128,-1,63
 1332 93 1332 93 1402 93 c 0,64,65
 1471 93 1471 93 1503.5 150.5 c 128,-1,66
 1536 208 1536 208 1536 339 c 256,67,68
 1536 470 1536 470 1505 529 c 128,-1,69
 1474 588 1474 588 1402 588 c 0,58,59
EndSplineSet
EndChar

StartChar: ampersand
Encoding: 38 38 9
Width: 1699
Flags: W
LayerCount: 2
Fore
SplineSet
1385 1074 m 1,0,-1
 1385 842 l 1,1,-1
 1630 842 l 1,2,-1
 1630 703 l 1,3,-1
 1386 703 l 1,4,-1
 1386 342 l 2,5,6
 1386 298 1386 298 1389 265.5 c 128,-1,7
 1392 233 1392 233 1401 211.5 c 128,-1,8
 1410 190 1410 190 1427 179 c 128,-1,9
 1444 168 1444 168 1472 168 c 0,10,11
 1539 168 1539 168 1539 261 c 1,12,-1
 1650 275 l 1,13,-1
 1650 244 l 1,14,15
 1648 169 1648 169 1629.5 117.5 c 128,-1,16
 1611 66 1611 66 1576 34 c 128,-1,17
 1541 2 1541 2 1490.5 -12 c 128,-1,18
 1440 -26 1440 -26 1376 -26 c 0,19,20
 1193 -26 1193 -26 1125 85 c 1,21,22
 1022 30 1022 30 914 2 c 128,-1,23
 806 -26 806 -26 680 -26 c 0,24,25
 544 -26 544 -26 436.5 3.5 c 128,-1,26
 329 33 329 33 254 88 c 128,-1,27
 179 143 179 143 139.5 221.5 c 128,-1,28
 100 300 100 300 100 397 c 0,29,30
 100 466 100 466 120 527 c 128,-1,31
 140 588 140 588 177.5 640 c 128,-1,32
 215 692 215 692 268.5 735 c 128,-1,33
 322 778 322 778 388 811 c 1,34,35
 337 861 337 861 317.5 915 c 128,-1,36
 298 969 298 969 298 1017 c 0,37,38
 298 1097 298 1097 328 1160 c 128,-1,39
 358 1223 358 1223 414.5 1267 c 128,-1,40
 471 1311 471 1311 551 1334.5 c 128,-1,41
 631 1358 631 1358 731 1358 c 0,42,43
 798 1358 798 1358 853.5 1350 c 128,-1,44
 909 1342 909 1342 952 1331.5 c 128,-1,45
 995 1321 995 1321 1023.5 1310 c 128,-1,46
 1052 1299 1052 1299 1065 1292 c 1,47,-1
 1071 1073 l 1,48,-1
 905 1058 l 1,49,50
 902 1095 902 1095 887.5 1122 c 128,-1,51
 873 1149 873 1149 850.5 1166.5 c 128,-1,52
 828 1184 828 1184 799 1192.5 c 128,-1,53
 770 1201 770 1201 739 1201 c 0,54,55
 695 1201 695 1201 656.5 1190 c 128,-1,56
 618 1179 618 1179 589 1157.5 c 128,-1,57
 560 1136 560 1136 543 1105.5 c 128,-1,58
 526 1075 526 1075 526 1036 c 0,59,60
 526 1016 526 1016 528 994 c 128,-1,61
 530 972 530 972 538.5 948 c 128,-1,62
 547 924 547 924 562.5 897.5 c 128,-1,63
 578 871 578 871 605 841 c 1,64,-1
 1102 842 l 1,65,66
 1102 845 1102 845 1103 854.5 c 128,-1,67
 1104 864 1104 864 1105.5 878.5 c 128,-1,68
 1107 893 1107 893 1109 910.5 c 128,-1,69
 1111 928 1111 928 1113 946 c 0,70,71
 1117 988 1117 988 1124 1040 c 1,72,-1
 1385 1074 l 1,0,-1
759 168 m 0,73,74
 928 168 928 168 1082 254 c 1,75,76
 1081 260 1081 260 1080.5 270 c 128,-1,77
 1080 280 1080 280 1080 291.5 c 128,-1,78
 1080 303 1080 303 1080 314 c 128,-1,79
 1080 325 1080 325 1080 331 c 2,80,-1
 1080 703 l 1,81,-1
 596 703 l 1,82,83
 502 646 502 646 460 571.5 c 128,-1,84
 418 497 418 497 418 416 c 0,85,86
 418 369 418 369 435.5 324.5 c 128,-1,87
 453 280 453 280 493 245 c 128,-1,88
 533 210 533 210 598.5 189 c 128,-1,89
 664 168 664 168 759 168 c 0,73,74
EndSplineSet
EndChar

StartChar: quotesingle
Encoding: 39 39 10
Width: 435
Flags: W
LayerCount: 2
Fore
SplineSet
154 888 m 1,0,1
 145 939 145 939 133.5 996.5 c 128,-1,2
 122 1054 122 1054 111.5 1109 c 128,-1,3
 101 1164 101 1164 94 1212.5 c 128,-1,4
 87 1261 87 1261 87 1293 c 0,5,6
 87 1330 87 1330 98.5 1358 c 128,-1,7
 110 1386 110 1386 129.5 1404.5 c 128,-1,8
 149 1423 149 1423 173 1432 c 128,-1,9
 197 1441 197 1441 223 1441 c 0,10,11
 247 1441 247 1441 270 1432.5 c 128,-1,12
 293 1424 293 1424 310.5 1407.5 c 128,-1,13
 328 1391 328 1391 339 1366 c 128,-1,14
 350 1341 350 1341 350 1308 c 0,15,16
 350 1281 350 1281 347.5 1251 c 128,-1,17
 345 1221 345 1221 337.5 1175 c 128,-1,18
 330 1129 330 1129 317.5 1060.5 c 128,-1,19
 305 992 305 992 284 888 c 1,20,-1
 154 888 l 1,0,1
EndSplineSet
EndChar

StartChar: parenleft
Encoding: 40 40 11
Width: 795
Flags: W
LayerCount: 2
Fore
SplineSet
726 1289 m 1,0,1
 577 1159 577 1159 509.5 979 c 128,-1,2
 442 799 442 799 442 564 c 0,3,4
 442 446 442 446 457.5 342 c 128,-1,5
 473 238 473 238 506.5 146.5 c 128,-1,6
 540 55 540 55 594.5 -25.5 c 128,-1,7
 649 -106 649 -106 727 -176 c 1,8,-1
 633 -276 l 1,9,10
 492 -204 492 -204 395 -106.5 c 128,-1,11
 298 -9 298 -9 239 101 c 128,-1,12
 180 211 180 211 154 328 c 128,-1,13
 128 445 128 445 128 555 c 0,14,15
 128 679 128 679 157.5 800.5 c 128,-1,16
 187 922 187 922 248.5 1031.5 c 128,-1,17
 310 1141 310 1141 405 1233 c 128,-1,18
 500 1325 500 1325 631 1390 c 1,19,-1
 726 1289 l 1,0,1
EndSplineSet
EndChar

StartChar: parenright
Encoding: 41 41 12
Width: 795
Flags: W
LayerCount: 2
Fore
SplineSet
198 1390 m 1,0,1
 427 1219 427 1219 546 1010 c 128,-1,2
 665 801 665 801 665 564 c 0,3,4
 665 449 665 449 639 330.5 c 128,-1,5
 613 212 613 212 553.5 101.5 c 128,-1,6
 494 -9 494 -9 397.5 -106.5 c 128,-1,7
 301 -204 301 -204 159 -276 c 1,8,-1
 64 -176 l 1,9,10
 142 -106 142 -106 197 -25.5 c 128,-1,11
 252 55 252 55 286.5 147.5 c 128,-1,12
 321 240 321 240 337 344.5 c 128,-1,13
 353 449 353 449 353 567 c 0,14,15
 353 813 353 813 278.5 1005 c 128,-1,16
 204 1197 204 1197 41 1343 c 1,17,18
 78 1355 78 1355 117 1367 c 128,-1,19
 156 1379 156 1379 198 1390 c 1,0,1
EndSplineSet
EndChar

StartChar: asterisk
Encoding: 42 42 13
Width: 1046
Flags: W
LayerCount: 2
Fore
SplineSet
434 591 m 1,0,1
 455 638 455 638 471.5 686.5 c 128,-1,2
 488 735 488 735 495 801 c 1,3,4
 445 763 445 763 412 723 c 128,-1,5
 379 683 379 683 349 636 c 1,6,-1
 230 556 l 1,7,-1
 125 723 l 1,8,-1
 248 795 l 1,9,10
 298 803 298 803 348 819.5 c 128,-1,11
 398 836 398 836 453 864 c 1,12,13
 396 892 396 892 347.5 903 c 128,-1,14
 299 914 299 914 250 922 c 1,15,-1
 125 996 l 1,16,-1
 230 1163 l 1,17,-1
 347 1083 l 1,18,19
 406 998 406 998 493 930 c 1,20,21
 485 991 485 991 469.5 1037.5 c 128,-1,22
 454 1084 454 1084 434 1129 c 1,23,-1
 430 1271 l 1,24,-1
 628 1271 l 1,25,-1
 624 1131 l 1,26,27
 604 1084 604 1084 591.5 1037.5 c 128,-1,28
 579 991 579 991 573 940 c 1,29,30
 618 975 618 975 651 1010 c 128,-1,31
 684 1045 684 1045 711 1083 c 1,32,-1
 829 1163 l 1,33,-1
 933 996 l 1,34,-1
 810 922 l 1,35,36
 754 915 754 915 704.5 902.5 c 128,-1,37
 655 890 655 890 601 864 c 1,38,39
 652 838 652 838 703.5 820.5 c 128,-1,40
 755 803 755 803 811 795 c 1,41,-1
 933 723 l 1,42,-1
 829 556 l 1,43,-1
 709 636 l 1,44,45
 681 677 681 677 650.5 714.5 c 128,-1,46
 620 752 620 752 571 792 c 1,47,48
 576 738 576 738 589 687.5 c 128,-1,49
 602 637 602 637 624 588 c 1,50,-1
 628 447 l 1,51,-1
 434 447 l 1,52,-1
 434 591 l 1,0,1
EndSplineSet
EndChar

StartChar: plus
Encoding: 43 43 14
Width: 1537
Flags: W
LayerCount: 2
Fore
SplineSet
868 736 m 1,0,-1
 1348 736 l 1,1,-1
 1348 540 l 1,2,-1
 868 540 l 1,3,-1
 868 58 l 1,4,-1
 669 58 l 1,5,-1
 669 540 l 1,6,-1
 188 540 l 1,7,-1
 188 736 l 1,8,-1
 669 736 l 1,9,-1
 669 1217 l 1,10,-1
 868 1217 l 1,11,-1
 868 736 l 1,0,-1
EndSplineSet
EndChar

StartChar: comma
Encoding: 44 44 15
Width: 646
Flags: W
LayerCount: 2
Fore
SplineSet
514 251 m 1,0,-1
 474 22 l 2,1,2
 462 -47 462 -47 437.5 -103.5 c 128,-1,3
 413 -160 413 -160 377.5 -201.5 c 128,-1,4
 342 -243 342 -243 296.5 -267.5 c 128,-1,5
 251 -292 251 -292 197 -298 c 1,6,-1
 125 -171 l 1,7,8
 156 -165 156 -165 174.5 -146 c 128,-1,9
 193 -127 193 -127 202.5 -103 c 128,-1,10
 212 -79 212 -79 215 -55 c 128,-1,11
 218 -31 218 -31 220 -15 c 1,12,-1
 144 9 l 1,13,-1
 171 251 l 1,14,-1
 514 251 l 1,0,-1
EndSplineSet
EndChar

StartChar: hyphen
Encoding: 45 45 16
Width: 828
Flags: W
LayerCount: 2
Fore
SplineSet
743 592 m 1,0,-1
 743 327 l 1,1,-1
 82 327 l 1,2,-1
 82 592 l 1,3,-1
 743 592 l 1,0,-1
EndSplineSet
EndChar

StartChar: period
Encoding: 46 46 17
Width: 646
Flags: W
LayerCount: 2
Fore
SplineSet
318 231 m 0,0,1
 357 231 357 231 388.5 222 c 128,-1,2
 420 213 420 213 442.5 197.5 c 128,-1,3
 465 182 465 182 477.5 159.5 c 128,-1,4
 490 137 490 137 490 110 c 0,5,6
 490 57 490 57 446 22.5 c 128,-1,7
 402 -12 402 -12 318 -12 c 0,8,9
 236 -12 236 -12 190.5 20 c 128,-1,10
 145 52 145 52 145 110 c 0,11,12
 145 162 145 162 191 196.5 c 128,-1,13
 237 231 237 231 318 231 c 0,0,1
EndSplineSet
EndChar

StartChar: slash
Encoding: 47 47 18
Width: 503
Flags: W
LayerCount: 2
Fore
SplineSet
528 1322 m 1,0,-1
 131 -96 l 1,1,-1
 -49 -96 l 1,2,-1
 347 1322 l 1,3,-1
 528 1322 l 1,0,-1
EndSplineSet
EndChar

StartChar: zero
Encoding: 48 48 19
Width: 1258
Flags: W
LayerCount: 2
Fore
SplineSet
629 1333 m 0,0,1
 751 1333 751 1333 849.5 1289.5 c 128,-1,2
 948 1246 948 1246 1017 1160.5 c 128,-1,3
 1086 1075 1086 1075 1123.5 948.5 c 128,-1,4
 1161 822 1161 822 1161 656 c 0,5,6
 1161 483 1161 483 1122 355 c 128,-1,7
 1083 227 1083 227 1012.5 142.5 c 128,-1,8
 942 58 942 58 844 16 c 128,-1,9
 746 -26 746 -26 629 -26 c 0,10,11
 507 -26 507 -26 408.5 18.5 c 128,-1,12
 310 63 310 63 240.5 149 c 128,-1,13
 171 235 171 235 133.5 362.5 c 128,-1,14
 96 490 96 490 96 656 c 0,15,16
 96 817 96 817 132 943 c 128,-1,17
 168 1069 168 1069 236 1155.5 c 128,-1,18
 304 1242 304 1242 403.5 1287.5 c 128,-1,19
 503 1333 503 1333 629 1333 c 0,0,1
629 1139 m 0,20,21
 501 1139 501 1139 442.5 1020.5 c 128,-1,22
 384 902 384 902 384 668 c 0,23,24
 384 542 384 542 397 448 c 128,-1,25
 410 354 410 354 439 291.5 c 128,-1,26
 468 229 468 229 514.5 198.5 c 128,-1,27
 561 168 561 168 629 168 c 0,28,29
 761 168 761 168 817 290.5 c 128,-1,30
 873 413 873 413 873 657 c 0,31,32
 873 902 873 902 814 1020.5 c 128,-1,33
 755 1139 755 1139 629 1139 c 0,20,21
EndSplineSet
EndChar

StartChar: one
Encoding: 49 49 20
Width: 1258
Flags: W
LayerCount: 2
Fore
SplineSet
793 1308 m 1,0,-1
 793 278 l 2,1,2
 793 246 793 246 795.5 225.5 c 128,-1,3
 798 205 798 205 811 193 c 128,-1,4
 824 181 824 181 850 176.5 c 128,-1,5
 876 172 876 172 924 172 c 2,6,-1
 993 172 l 1,7,-1
 993 0 l 1,8,9
 955 0 955 0 919 0 c 128,-1,10
 883 0 883 0 844.5 0.5 c 128,-1,11
 806 1 806 1 763.5 1.5 c 128,-1,12
 721 2 721 2 671 2 c 0,13,14
 612 2 612 2 564.5 1.5 c 128,-1,15
 517 1 517 1 475 1 c 128,-1,16
 433 1 433 1 393 0.5 c 128,-1,17
 353 0 353 0 310 0 c 1,18,-1
 310 172 l 1,19,-1
 404 172 l 2,20,21
 446 172 446 172 468.5 178.5 c 128,-1,22
 491 185 491 185 502 198 c 128,-1,23
 513 211 513 211 515 231.5 c 128,-1,24
 517 252 517 252 517 280 c 2,25,-1
 517 1034 l 1,26,27
 488 1018 488 1018 456.5 1004 c 128,-1,28
 425 990 425 990 394.5 978.5 c 128,-1,29
 364 967 364 967 335.5 958.5 c 128,-1,30
 307 950 307 950 284 946 c 1,31,-1
 284 1147 l 1,32,33
 384 1163 384 1163 464.5 1206 c 128,-1,34
 545 1249 545 1249 602 1308 c 1,35,-1
 793 1308 l 1,0,-1
EndSplineSet
EndChar

StartChar: two
Encoding: 50 50 21
Width: 1258
Flags: W
LayerCount: 2
Fore
SplineSet
136 0 m 1,0,1
 135 5 135 5 135 11.5 c 128,-1,2
 135 18 135 18 135 23 c 0,3,4
 135 112 135 112 146.5 183.5 c 128,-1,5
 158 255 158 255 181.5 314.5 c 128,-1,6
 205 374 205 374 242 424.5 c 128,-1,7
 279 475 279 475 330 522.5 c 128,-1,8
 381 570 381 570 446.5 618 c 128,-1,9
 512 666 512 666 593 721 c 0,10,11
 659 766 659 766 701.5 800 c 128,-1,12
 744 834 744 834 768 864.5 c 128,-1,13
 792 895 792 895 801.5 924.5 c 128,-1,14
 811 954 811 954 811 990 c 0,15,16
 811 1069 811 1069 752 1113.5 c 128,-1,17
 693 1158 693 1158 594 1158 c 0,18,19
 529 1158 529 1158 485.5 1142.5 c 128,-1,20
 442 1127 442 1127 416 1098 c 128,-1,21
 390 1069 390 1069 378.5 1026.5 c 128,-1,22
 367 984 367 984 365 930 c 1,23,-1
 165 944 l 1,24,-1
 166 1204 l 1,25,26
 257 1273 257 1273 373.5 1303.5 c 128,-1,27
 490 1334 490 1334 633 1334 c 0,28,29
 742 1334 742 1334 828.5 1309 c 128,-1,30
 915 1284 915 1284 975 1236.5 c 128,-1,31
 1035 1189 1035 1189 1066.5 1121 c 128,-1,32
 1098 1053 1098 1053 1098 967 c 0,33,34
 1098 892 1098 892 1070.5 834.5 c 128,-1,35
 1043 777 1043 777 994.5 728.5 c 128,-1,36
 946 680 946 680 878 636 c 128,-1,37
 810 592 810 592 729 543 c 0,38,39
 651 496 651 496 589.5 453 c 128,-1,40
 528 410 528 410 485.5 367.5 c 128,-1,41
 443 325 443 325 420 281.5 c 128,-1,42
 397 238 397 238 397 192 c 1,43,-1
 806 192 l 2,44,45
 844 192 844 192 865.5 198.5 c 128,-1,46
 887 205 887 205 898.5 227 c 128,-1,47
 910 249 910 249 914 290.5 c 128,-1,48
 918 332 918 332 920 402 c 1,49,-1
 1089 402 l 1,50,-1
 1089 0 l 1,51,-1
 136 0 l 1,0,1
EndSplineSet
EndChar

StartChar: three
Encoding: 51 51 22
Width: 1258
Flags: W
LayerCount: 2
Fore
SplineSet
324 418 m 1,0,1
 326 288 326 288 390.5 228 c 128,-1,2
 455 168 455 168 582 168 c 0,3,4
 633 168 633 168 677.5 181.5 c 128,-1,5
 722 195 722 195 755.5 221 c 128,-1,6
 789 247 789 247 808.5 286.5 c 128,-1,7
 828 326 828 326 828 378 c 0,8,9
 828 440 828 440 805.5 484 c 128,-1,10
 783 528 783 528 742.5 556.5 c 128,-1,11
 702 585 702 585 645 598.5 c 128,-1,12
 588 612 588 612 519 613 c 1,13,-1
 519 767 l 1,14,15
 585 774 585 774 636 788.5 c 128,-1,16
 687 803 687 803 722 828 c 128,-1,17
 757 853 757 853 775.5 890 c 128,-1,18
 794 927 794 927 794 980 c 0,19,20
 794 1023 794 1023 778 1059 c 128,-1,21
 762 1095 762 1095 732.5 1120.5 c 128,-1,22
 703 1146 703 1146 661.5 1160 c 128,-1,23
 620 1174 620 1174 570 1174 c 0,24,25
 511 1174 511 1174 470 1158.5 c 128,-1,26
 429 1143 429 1143 403.5 1114 c 128,-1,27
 378 1085 378 1085 366.5 1043 c 128,-1,28
 355 1001 355 1001 354 948 c 1,29,-1
 145 954 l 1,30,-1
 146 1220 l 1,31,32
 227 1278 227 1278 341.5 1305.5 c 128,-1,33
 456 1333 456 1333 596 1333 c 0,34,35
 707 1333 707 1333 795 1310 c 128,-1,36
 883 1287 883 1287 944 1242 c 128,-1,37
 1005 1197 1005 1197 1037.5 1131 c 128,-1,38
 1070 1065 1070 1065 1070 980 c 0,39,40
 1070 871 1070 871 1009 799 c 128,-1,41
 948 727 948 727 834 700 c 1,42,43
 897 686 897 686 948.5 659.5 c 128,-1,44
 1000 633 1000 633 1036 592 c 128,-1,45
 1072 551 1072 551 1092 495.5 c 128,-1,46
 1112 440 1112 440 1112 370 c 0,47,48
 1112 276 1112 276 1075.5 202.5 c 128,-1,49
 1039 129 1039 129 969.5 78 c 128,-1,50
 900 27 900 27 800.5 0.5 c 128,-1,51
 701 -26 701 -26 575 -26 c 0,52,53
 492 -26 492 -26 411 -6 c 128,-1,54
 330 14 330 14 265.5 63.5 c 128,-1,55
 201 113 201 113 160.5 197 c 128,-1,56
 120 281 120 281 117 409 c 1,57,-1
 324 418 l 1,0,1
EndSplineSet
EndChar

StartChar: four
Encoding: 52 52 23
Width: 1258
Flags: W
LayerCount: 2
Fore
SplineSet
968 1308 m 1,0,-1
 968 566 l 1,1,-1
 1158 566 l 1,2,-1
 1158 402 l 1,3,-1
 968 402 l 1,4,-1
 968 239 l 2,5,6
 968 213 968 213 971.5 197 c 128,-1,7
 975 181 975 181 986 172.5 c 128,-1,8
 997 164 997 164 1017.5 161 c 128,-1,9
 1038 158 1038 158 1073 158 c 2,10,-1
 1130 158 l 1,11,-1
 1130 0 l 1,12,13
 1112 0 1112 0 1070.5 0.5 c 128,-1,14
 1029 1 1029 1 979 1 c 128,-1,15
 929 1 929 1 878 1.5 c 128,-1,16
 827 2 827 2 790 2 c 0,17,18
 742 2 742 2 704.5 1.5 c 128,-1,19
 667 1 667 1 634.5 1 c 128,-1,20
 602 1 602 1 571.5 0.5 c 128,-1,21
 541 0 541 0 507 0 c 1,22,-1
 507 158 l 1,23,-1
 583 158 l 2,24,25
 618 158 618 158 642 161 c 128,-1,26
 666 164 666 164 680.5 172.5 c 128,-1,27
 695 181 695 181 701 195 c 128,-1,28
 707 209 707 209 707 232 c 2,29,-1
 707 402 l 1,30,-1
 123 402 l 1,31,32
 115 454 115 454 107 505 c 128,-1,33
 99 556 99 556 89 607 c 1,34,-1
 666 1308 l 1,35,-1
 968 1308 l 1,0,-1
262 563 m 1,36,-1
 710 563 l 1,37,-1
 710 1130 l 1,38,-1
 262 563 l 1,36,-1
EndSplineSet
EndChar

StartChar: five
Encoding: 53 53 24
Width: 1258
Flags: W
LayerCount: 2
Fore
SplineSet
1067 1308 m 1,0,-1
 1067 1069 l 1,1,-1
 893 1069 l 1,2,3
 893 1101 893 1101 890.5 1115.5 c 128,-1,4
 888 1130 888 1130 871 1130 c 2,5,-1
 401 1130 l 1,6,7
 397 1032 397 1032 394 955 c 0,8,9
 392 922 392 922 391.5 891 c 128,-1,10
 391 860 391 860 390 835 c 0,11,12
 389 806 389 806 388 780 c 1,13,14
 449 822 449 822 518.5 842.5 c 128,-1,15
 588 863 588 863 671 863 c 0,16,17
 774 863 774 863 858 832.5 c 128,-1,18
 942 802 942 802 1002 746 c 128,-1,19
 1062 690 1062 690 1095 610.5 c 128,-1,20
 1128 531 1128 531 1128 433 c 0,21,22
 1128 322 1128 322 1091.5 236.5 c 128,-1,23
 1055 151 1055 151 987.5 92.5 c 128,-1,24
 920 34 920 34 824 4 c 128,-1,25
 728 -26 728 -26 609 -26 c 0,26,27
 478 -26 478 -26 360.5 5.5 c 128,-1,28
 243 37 243 37 143 97 c 1,29,-1
 142 342 l 1,30,-1
 350 347 l 1,31,32
 364 256 364 256 421.5 212 c 128,-1,33
 479 168 479 168 589 168 c 0,34,35
 646 168 646 168 692.5 184.5 c 128,-1,36
 739 201 739 201 772 234 c 128,-1,37
 805 267 805 267 823 315 c 128,-1,38
 841 363 841 363 841 426 c 0,39,40
 841 482 841 482 823.5 526.5 c 128,-1,41
 806 571 806 571 774 602 c 128,-1,42
 742 633 742 633 695.5 649.5 c 128,-1,43
 649 666 649 666 592 666 c 0,44,45
 516 666 516 666 458.5 640.5 c 128,-1,46
 401 615 401 615 361 567 c 1,47,-1
 197 607 l 1,48,-1
 197 1308 l 1,49,-1
 1067 1308 l 1,0,-1
EndSplineSet
EndChar

StartChar: six
Encoding: 54 54 25
Width: 1258
Flags: W
LayerCount: 2
Fore
SplineSet
700 1334 m 0,0,1
 834 1334 834 1334 933.5 1306.5 c 128,-1,2
 1033 1279 1033 1279 1111 1231 c 1,3,-1
 1121 1005 l 1,4,-1
 926 994 l 1,5,6
 918 1091 918 1091 861 1135 c 128,-1,7
 804 1179 804 1179 690 1179 c 0,8,9
 615 1179 615 1179 562.5 1150 c 128,-1,10
 510 1121 510 1121 476 1064 c 128,-1,11
 442 1007 442 1007 425.5 924 c 128,-1,12
 409 841 409 841 407 733 c 1,13,14
 470 798 470 798 554 831.5 c 128,-1,15
 638 865 638 865 733 865 c 0,16,17
 830 865 830 865 909.5 833 c 128,-1,18
 989 801 989 801 1045.5 743.5 c 128,-1,19
 1102 686 1102 686 1132.5 606.5 c 128,-1,20
 1163 527 1163 527 1163 432 c 0,21,22
 1163 331 1163 331 1126.5 247 c 128,-1,23
 1090 163 1090 163 1024 102.5 c 128,-1,24
 958 42 958 42 865.5 8.5 c 128,-1,25
 773 -25 773 -25 661 -25 c 0,26,27
 542 -25 542 -25 444 15 c 128,-1,28
 346 55 346 55 275.5 136.5 c 128,-1,29
 205 218 205 218 166 342 c 128,-1,30
 127 466 127 466 127 635 c 0,31,32
 127 792 127 792 161.5 921 c 128,-1,33
 196 1050 196 1050 267 1141.5 c 128,-1,34
 338 1233 338 1233 445.5 1283.5 c 128,-1,35
 553 1334 553 1334 700 1334 c 0,0,1
657 690 m 0,36,37
 597 690 597 690 541 665 c 128,-1,38
 485 640 485 640 440 594 c 1,39,40
 425 562 425 562 417.5 524 c 128,-1,41
 410 486 410 486 410 444 c 0,42,43
 410 311 410 311 475.5 239.5 c 128,-1,44
 541 168 541 168 656 168 c 0,45,46
 765 168 765 168 826.5 231 c 128,-1,47
 888 294 888 294 888 414 c 0,48,49
 888 478 888 478 873 529 c 128,-1,50
 858 580 858 580 828.5 616 c 128,-1,51
 799 652 799 652 756 671 c 128,-1,52
 713 690 713 690 657 690 c 0,36,37
EndSplineSet
EndChar

StartChar: seven
Encoding: 55 55 26
Width: 1258
Flags: W
LayerCount: 2
Fore
SplineSet
185 1308 m 1,0,-1
 1121 1308 l 1,1,-1
 1121 1109 l 1,2,3
 1014 944 1014 944 936 785.5 c 128,-1,4
 858 627 858 627 804.5 484 c 128,-1,5
 751 341 751 341 720 218 c 128,-1,6
 689 95 689 95 676 0 c 1,7,-1
 364 0 l 1,8,9
 385 143 385 143 434 291.5 c 128,-1,10
 483 440 483 440 552.5 585.5 c 128,-1,11
 622 731 622 731 709 869 c 128,-1,12
 796 1007 796 1007 893 1129 c 1,13,-1
 520 1129 l 2,14,15
 469 1129 469 1129 436.5 1125.5 c 128,-1,16
 404 1122 404 1122 385.5 1111.5 c 128,-1,17
 367 1101 367 1101 359.5 1080.5 c 128,-1,18
 352 1060 352 1060 352 1026 c 2,19,-1
 352 916 l 1,20,-1
 185 916 l 1,21,-1
 185 1308 l 1,0,-1
EndSplineSet
EndChar

StartChar: eight
Encoding: 56 56 27
Width: 1258
Flags: W
LayerCount: 2
Fore
SplineSet
865 691 m 1,0,1
 1018 649 1018 649 1088.5 566 c 128,-1,2
 1159 483 1159 483 1159 356 c 0,3,4
 1159 275 1159 275 1129 205.5 c 128,-1,5
 1099 136 1099 136 1034 84.5 c 128,-1,6
 969 33 969 33 867.5 4 c 128,-1,7
 766 -25 766 -25 624 -25 c 0,8,9
 494 -25 494 -25 395.5 1.5 c 128,-1,10
 297 28 297 28 230.5 77 c 128,-1,11
 164 126 164 126 130.5 196 c 128,-1,12
 97 266 97 266 97 354 c 0,13,14
 97 476 97 476 168 558 c 128,-1,15
 239 640 239 640 389 690 c 1,16,17
 269 723 269 723 205.5 799 c 128,-1,18
 142 875 142 875 142 984 c 0,19,20
 142 1066 142 1066 175 1131 c 128,-1,21
 208 1196 208 1196 270.5 1241.5 c 128,-1,22
 333 1287 333 1287 422.5 1311 c 128,-1,23
 512 1335 512 1335 625 1335 c 0,24,25
 740 1335 740 1335 832 1311.5 c 128,-1,26
 924 1288 924 1288 988.5 1243.5 c 128,-1,27
 1053 1199 1053 1199 1087.5 1135.5 c 128,-1,28
 1122 1072 1122 1072 1122 991 c 0,29,30
 1122 877 1122 877 1057.5 803.5 c 128,-1,31
 993 730 993 730 865 691 c 1,0,1
630 168 m 0,32,33
 685 168 685 168 735.5 180 c 128,-1,34
 786 192 786 192 825 216 c 128,-1,35
 864 240 864 240 887 277 c 128,-1,36
 910 314 910 314 910 366 c 0,37,38
 910 455 910 455 840 523 c 128,-1,39
 770 591 770 591 628 626 c 1,40,41
 494 595 494 595 426 530 c 128,-1,42
 358 465 358 465 358 365 c 0,43,44
 358 316 358 316 378 279 c 128,-1,45
 398 242 398 242 434 217.5 c 128,-1,46
 470 193 470 193 520 180.5 c 128,-1,47
 570 168 570 168 630 168 c 0,32,33
634 1149 m 0,48,49
 589 1149 589 1149 547 1140.5 c 128,-1,50
 505 1132 505 1132 473.5 1114 c 128,-1,51
 442 1096 442 1096 423 1068 c 128,-1,52
 404 1040 404 1040 404 1001 c 0,53,54
 404 920 404 920 462 863 c 128,-1,55
 520 806 520 806 635 771 c 1,56,57
 852 833 852 833 852 994 c 0,58,59
 852 1037 852 1037 834 1067 c 128,-1,60
 816 1097 816 1097 786 1115 c 128,-1,61
 756 1133 756 1133 716.5 1141 c 128,-1,62
 677 1149 677 1149 634 1149 c 0,48,49
EndSplineSet
EndChar

StartChar: nine
Encoding: 57 57 28
Width: 1258
Flags: W
LayerCount: 2
Fore
SplineSet
610 1139 m 0,0,1
 499 1139 499 1139 439 1074 c 128,-1,2
 379 1009 379 1009 379 892 c 0,3,4
 379 831 379 831 394 781.5 c 128,-1,5
 409 732 409 732 438 696.5 c 128,-1,6
 467 661 467 661 509.5 641.5 c 128,-1,7
 552 622 552 622 607 622 c 0,8,9
 744 622 744 622 843 710 c 1,10,11
 854 771 854 771 857 850 c 1,12,13
 857 916 857 916 841 969.5 c 128,-1,14
 825 1023 825 1023 793.5 1060.5 c 128,-1,15
 762 1098 762 1098 716 1118.5 c 128,-1,16
 670 1139 670 1139 610 1139 c 0,0,1
597 -25 m 0,17,18
 466 -25 466 -25 357.5 6.5 c 128,-1,19
 249 38 249 38 166 102 c 1,20,-1
 165 304 l 1,21,-1
 367 315 l 1,22,23
 377 217 377 217 427 175.5 c 128,-1,24
 477 134 477 134 578 134 c 0,25,26
 656 134 656 134 710 162.5 c 128,-1,27
 764 191 764 191 798 247.5 c 128,-1,28
 832 304 832 304 848 387.5 c 128,-1,29
 864 471 864 471 865 582 c 1,30,31
 803 514 803 514 719.5 480.5 c 128,-1,32
 636 447 636 447 537 447 c 0,33,34
 439 447 439 447 359 479 c 128,-1,35
 279 511 279 511 222.5 568 c 128,-1,36
 166 625 166 625 135.5 705 c 128,-1,37
 105 785 105 785 105 881 c 0,38,39
 105 984 105 984 141 1067.5 c 128,-1,40
 177 1151 177 1151 243 1210 c 128,-1,41
 309 1269 309 1269 401.5 1301 c 128,-1,42
 494 1333 494 1333 606 1333 c 0,43,44
 725 1333 725 1333 823 1293.5 c 128,-1,45
 921 1254 921 1254 991.5 1172.5 c 128,-1,46
 1062 1091 1062 1091 1101 966 c 128,-1,47
 1140 841 1140 841 1140 669 c 0,48,49
 1140 513 1140 513 1107.5 385.5 c 128,-1,50
 1075 258 1075 258 1008 166.5 c 128,-1,51
 941 75 941 75 838.5 25 c 128,-1,52
 736 -25 736 -25 597 -25 c 0,17,18
EndSplineSet
EndChar

StartChar: colon
Encoding: 58 58 29
Width: 663
Flags: W
LayerCount: 2
Fore
SplineSet
330 903 m 0,0,1
 408 903 408 903 455.5 869.5 c 128,-1,2
 503 836 503 836 503 782 c 0,3,4
 503 729 503 729 458.5 694.5 c 128,-1,5
 414 660 414 660 330 660 c 0,6,7
 248 660 248 660 203 692 c 128,-1,8
 158 724 158 724 158 782 c 0,9,10
 158 834 158 834 203.5 868.5 c 128,-1,11
 249 903 249 903 330 903 c 0,0,1
330 231 m 0,12,13
 369 231 369 231 401 222 c 128,-1,14
 433 213 433 213 455.5 197.5 c 128,-1,15
 478 182 478 182 490.5 160 c 128,-1,16
 503 138 503 138 503 111 c 0,17,18
 503 58 503 58 458.5 23 c 128,-1,19
 414 -12 414 -12 330 -12 c 0,20,21
 248 -12 248 -12 203 20.5 c 128,-1,22
 158 53 158 53 158 111 c 0,23,24
 158 136 158 136 170 158 c 128,-1,25
 182 180 182 180 204 196.5 c 128,-1,26
 226 213 226 213 258 222 c 128,-1,27
 290 231 290 231 330 231 c 0,12,13
EndSplineSet
EndChar

StartChar: semicolon
Encoding: 59 59 30
Width: 663
Flags: W
LayerCount: 2
Fore
SplineSet
513 251 m 1,0,-1
 473 22 l 2,1,2
 461 -47 461 -47 436.5 -103.5 c 128,-1,3
 412 -160 412 -160 376.5 -201.5 c 128,-1,4
 341 -243 341 -243 295.5 -267.5 c 128,-1,5
 250 -292 250 -292 196 -298 c 1,6,-1
 124 -171 l 1,7,8
 155 -165 155 -165 173.5 -146 c 128,-1,9
 192 -127 192 -127 201.5 -103 c 128,-1,10
 211 -79 211 -79 214 -55 c 128,-1,11
 217 -31 217 -31 219 -15 c 1,12,-1
 143 9 l 1,13,-1
 170 251 l 1,14,-1
 513 251 l 1,0,-1
340 903 m 0,15,16
 379 903 379 903 410.5 894 c 128,-1,17
 442 885 442 885 464.5 869.5 c 128,-1,18
 487 854 487 854 499.5 831.5 c 128,-1,19
 512 809 512 809 512 782 c 0,20,21
 512 729 512 729 467.5 694.5 c 128,-1,22
 423 660 423 660 340 660 c 0,23,24
 258 660 258 660 212.5 692 c 128,-1,25
 167 724 167 724 167 782 c 0,26,27
 167 834 167 834 213 868.5 c 128,-1,28
 259 903 259 903 340 903 c 0,15,16
EndSplineSet
EndChar

StartChar: less
Encoding: 60 60 31
Width: 1536
Flags: W
LayerCount: 2
Fore
SplineSet
471 638 m 1,0,-1
 1343 290 l 1,1,-1
 1343 77 l 1,2,-1
 192 548 l 1,3,-1
 192 728 l 1,4,-1
 1343 1200 l 1,5,-1
 1343 986 l 1,6,-1
 471 638 l 1,0,-1
EndSplineSet
EndChar

StartChar: equal
Encoding: 61 61 32
Width: 1536
Flags: W
LayerCount: 2
Fore
SplineSet
1348 759 m 1,0,-1
 187 759 l 1,1,-1
 187 956 l 1,2,-1
 1348 956 l 1,3,-1
 1348 759 l 1,0,-1
1348 322 m 1,4,-1
 187 322 l 1,5,-1
 187 518 l 1,6,-1
 1348 518 l 1,7,-1
 1348 322 l 1,4,-1
EndSplineSet
EndChar

StartChar: greater
Encoding: 62 62 33
Width: 1536
Flags: W
LayerCount: 2
Fore
SplineSet
1343 548 m 1,0,-1
 192 77 l 1,1,-1
 192 290 l 1,2,-1
 1064 638 l 1,3,-1
 192 986 l 1,4,-1
 192 1200 l 1,5,-1
 1343 728 l 1,6,-1
 1343 548 l 1,0,-1
EndSplineSet
EndChar

StartChar: question
Encoding: 63 63 34
Width: 1082
Flags: W
LayerCount: 2
Fore
SplineSet
596 415 m 1,0,-1
 394 415 l 1,1,2
 390 427 390 427 386.5 443.5 c 128,-1,3
 383 460 383 460 381 477 c 128,-1,4
 379 494 379 494 377.5 508.5 c 128,-1,5
 376 523 376 523 376 531 c 0,6,7
 376 595 376 595 402.5 633.5 c 128,-1,8
 429 672 429 672 469 698.5 c 128,-1,9
 509 725 509 725 555 745.5 c 128,-1,10
 601 766 601 766 641 794.5 c 128,-1,11
 681 823 681 823 707.5 865.5 c 128,-1,12
 734 908 734 908 734 978 c 0,13,14
 734 1028 734 1028 716 1067 c 128,-1,15
 698 1106 698 1106 667.5 1132.5 c 128,-1,16
 637 1159 637 1159 595.5 1173 c 128,-1,17
 554 1187 554 1187 507 1187 c 0,18,19
 406 1187 406 1187 346 1130.5 c 128,-1,20
 286 1074 286 1074 286 955 c 1,21,-1
 75 955 l 1,22,-1
 97 1230 l 1,23,24
 185 1281 185 1281 290.5 1308 c 128,-1,25
 396 1335 396 1335 519 1335 c 0,26,27
 654 1335 654 1335 750.5 1308.5 c 128,-1,28
 847 1282 847 1282 908.5 1235.5 c 128,-1,29
 970 1189 970 1189 999 1126 c 128,-1,30
 1028 1063 1028 1063 1028 990 c 0,31,32
 1028 901 1028 901 990 833.5 c 128,-1,33
 952 766 952 766 891.5 710 c 128,-1,34
 831 654 831 654 756 603 c 128,-1,35
 681 552 681 552 606 495 c 1,36,-1
 596 415 l 1,0,-1
495 231 m 0,37,38
 573 231 573 231 620 197.5 c 128,-1,39
 667 164 667 164 667 110 c 0,40,41
 667 57 667 57 623 22.5 c 128,-1,42
 579 -12 579 -12 495 -12 c 0,43,44
 413 -12 413 -12 368 20 c 128,-1,45
 323 52 323 52 323 110 c 0,46,47
 323 162 323 162 368.5 196.5 c 128,-1,48
 414 231 414 231 495 231 c 0,37,38
EndSplineSet
EndChar

StartChar: at
Encoding: 64 64 35
Width: 1720
Flags: W
LayerCount: 2
Fore
SplineSet
1177 57 m 0,0,1
 1091 57 1091 57 1050 100.5 c 128,-1,2
 1009 144 1009 144 1007 235 c 1,3,4
 1006 233 1006 233 1002 231 c 1,5,6
 936 144 936 144 868.5 102.5 c 128,-1,7
 801 61 801 61 717 61 c 0,8,9
 651 61 651 61 595.5 88 c 128,-1,10
 540 115 540 115 500 164.5 c 128,-1,11
 460 214 460 214 438 283.5 c 128,-1,12
 416 353 416 353 416 437 c 0,13,14
 416 499 416 499 431 566.5 c 128,-1,15
 446 634 446 634 475 699 c 128,-1,16
 504 764 504 764 545 822 c 128,-1,17
 586 880 586 880 638.5 924 c 128,-1,18
 691 968 691 968 753 993.5 c 128,-1,19
 815 1019 815 1019 886 1019 c 0,20,21
 970 1019 970 1019 1024 973.5 c 128,-1,22
 1078 928 1078 928 1115 842 c 1,23,-1
 1152 994 l 1,24,-1
 1305 994 l 1,25,-1
 1163 347 l 2,26,27
 1156 312 1156 312 1149 279 c 128,-1,28
 1142 246 1142 246 1142 223 c 0,29,30
 1142 150 1142 150 1207 150 c 0,31,32
 1238 150 1238 150 1274 165.5 c 128,-1,33
 1310 181 1310 181 1350 210 c 0,34,35
 1399 246 1399 246 1440 295 c 128,-1,36
 1481 344 1481 344 1510 406.5 c 128,-1,37
 1539 469 1539 469 1555 543.5 c 128,-1,38
 1571 618 1571 618 1571 705 c 0,39,40
 1571 840 1571 840 1526 950.5 c 128,-1,41
 1481 1061 1481 1061 1399 1139.5 c 128,-1,42
 1317 1218 1317 1218 1201 1261 c 128,-1,43
 1085 1304 1085 1304 943 1304 c 0,44,45
 769 1304 769 1304 628.5 1242 c 128,-1,46
 488 1180 488 1180 388.5 1071.5 c 128,-1,47
 289 963 289 963 235 816.5 c 128,-1,48
 181 670 181 670 181 502 c 0,49,50
 181 339 181 339 236 206.5 c 128,-1,51
 291 74 291 74 388 -19.5 c 128,-1,52
 485 -113 485 -113 617.5 -164 c 128,-1,53
 750 -215 750 -215 905 -215 c 0,54,55
 1063 -215 1063 -215 1204.5 -163.5 c 128,-1,56
 1346 -112 1346 -112 1482 -6 c 1,57,-1
 1589 -27 l 1,58,59
 1524 -89 1524 -89 1445 -140 c 128,-1,60
 1366 -191 1366 -191 1278.5 -228.5 c 128,-1,61
 1191 -266 1191 -266 1097 -286.5 c 128,-1,62
 1003 -307 1003 -307 907 -307 c 0,63,64
 716 -307 716 -307 558.5 -244 c 128,-1,65
 401 -181 401 -181 288 -70 c 128,-1,66
 175 41 175 41 112.5 191.5 c 128,-1,67
 50 342 50 342 50 518 c 0,68,69
 50 635 50 635 79 746 c 128,-1,70
 108 857 108 857 162 954.5 c 128,-1,71
 216 1052 216 1052 294 1133 c 128,-1,72
 372 1214 372 1214 470 1272.5 c 128,-1,73
 568 1331 568 1331 685 1363.5 c 128,-1,74
 802 1396 802 1396 934 1396 c 0,75,76
 1114 1396 1114 1396 1251 1340 c 128,-1,77
 1388 1284 1388 1284 1480.5 1188 c 128,-1,78
 1573 1092 1573 1092 1619.5 965 c 128,-1,79
 1666 838 1666 838 1666 697 c 0,80,81
 1666 603 1666 603 1644.5 519 c 128,-1,82
 1623 435 1623 435 1587 364 c 128,-1,83
 1551 293 1551 293 1502.5 236 c 128,-1,84
 1454 179 1454 179 1399.5 139.5 c 128,-1,85
 1345 100 1345 100 1288 78.5 c 128,-1,86
 1231 57 1231 57 1177 57 c 0,0,1
1056 727 m 0,87,88
 1056 770 1056 770 1045.5 806.5 c 128,-1,89
 1035 843 1035 843 1014.5 870 c 128,-1,90
 994 897 994 897 964.5 912 c 128,-1,91
 935 927 935 927 897 927 c 0,92,93
 851 927 851 927 810 901 c 128,-1,94
 769 875 769 875 734.5 832 c 128,-1,95
 700 789 700 789 673 732.5 c 128,-1,96
 646 676 646 676 626.5 614 c 128,-1,97
 607 552 607 552 597 489.5 c 128,-1,98
 587 427 587 427 587 372 c 0,99,100
 587 272 587 272 628.5 211.5 c 128,-1,101
 670 151 670 151 745 151 c 0,102,103
 792 151 792 151 833.5 177.5 c 128,-1,104
 875 204 875 204 909.5 249 c 128,-1,105
 944 294 944 294 971.5 352.5 c 128,-1,106
 999 411 999 411 1017.5 475 c 128,-1,107
 1036 539 1036 539 1046 604 c 128,-1,108
 1056 669 1056 669 1056 727 c 0,87,88
EndSplineSet
EndChar

StartChar: A
Encoding: 65 65 36
Width: 1454
Flags: W
LayerCount: 2
Fore
SplineSet
921 1308 m 1,0,1
 1008 1072 1008 1072 1080 878 c 0,2,3
 1111 795 1111 795 1141 713.5 c 128,-1,4
 1171 632 1171 632 1196.5 563.5 c 128,-1,5
 1222 495 1222 495 1240 446.5 c 128,-1,6
 1258 398 1258 398 1264 382 c 0,7,8
 1289 313 1289 313 1303 273 c 128,-1,9
 1317 233 1317 233 1334.5 212 c 128,-1,10
 1352 191 1352 191 1379 184.5 c 128,-1,11
 1406 178 1406 178 1457 177 c 1,12,-1
 1457 0 l 1,13,14
 1398 0 1398 0 1342.5 1 c 128,-1,15
 1287 2 1287 2 1214 2 c 0,16,17
 1128 2 1128 2 1045.5 1.5 c 128,-1,18
 963 1 963 1 867 0 c 1,19,-1
 867 165 l 1,20,21
 871 165 871 165 878.5 165 c 128,-1,22
 886 165 886 165 894 165 c 128,-1,23
 902 165 902 165 909 165.5 c 128,-1,24
 916 166 916 166 919 166 c 0,25,26
 967 168 967 168 985 176 c 128,-1,27
 1003 184 1003 184 1003 204 c 0,28,29
 1003 216 1003 216 998 233.5 c 128,-1,30
 993 251 993 251 985 274 c 2,31,-1
 921 463 l 1,32,-1
 460 463 l 1,33,34
 457 452 457 452 446 420.5 c 128,-1,35
 435 389 435 389 422.5 353 c 128,-1,36
 410 317 410 317 400 286 c 128,-1,37
 390 255 390 255 388 247 c 0,38,39
 383 233 383 233 380.5 221.5 c 128,-1,40
 378 210 378 210 378 203 c 0,41,42
 378 181 378 181 391.5 173.5 c 128,-1,43
 405 166 405 166 437 165 c 0,44,45
 440 165 440 165 450 164.5 c 128,-1,46
 460 164 460 164 472 164 c 128,-1,47
 484 164 484 164 494.5 164 c 128,-1,48
 505 164 505 164 509 164 c 1,49,-1
 509 0 l 1,50,51
 448 0 448 0 386 1 c 128,-1,52
 324 2 324 2 252 2 c 0,53,54
 217 2 217 2 186.5 2 c 128,-1,55
 156 2 156 2 127 1.5 c 128,-1,56
 98 1 98 1 68 0.5 c 128,-1,57
 38 0 38 0 4 0 c 1,58,-1
 4 178 l 1,59,60
 40 182 40 182 62.5 185 c 128,-1,61
 85 188 85 188 100 196.5 c 128,-1,62
 115 205 115 205 126 221.5 c 128,-1,63
 137 238 137 238 149 268 c 0,64,65
 157 287 157 287 174 330 c 128,-1,66
 191 373 191 373 213.5 431 c 128,-1,67
 236 489 236 489 263 557.5 c 128,-1,68
 290 626 290 626 318 697 c 128,-1,69
 346 768 346 768 373 837 c 128,-1,70
 400 906 400 906 423 964.5 c 128,-1,71
 446 1023 446 1023 463 1066.5 c 128,-1,72
 480 1110 480 1110 488 1130 c 1,73,-1
 534 1308 l 1,74,-1
 921 1308 l 1,0,1
506 593 m 1,75,-1
 875 593 l 1,76,-1
 696 1119 l 1,77,-1
 694 1120 l 1,78,-1
 506 593 l 1,75,-1
EndSplineSet
EndChar

StartChar: B
Encoding: 66 66 37
Width: 1421
Flags: W
LayerCount: 2
Fore
SplineSet
711 1308 m 2,0,1
 877 1308 877 1308 987.5 1286 c 128,-1,2
 1098 1264 1098 1264 1164 1221.5 c 128,-1,3
 1230 1179 1230 1179 1257.5 1117 c 128,-1,4
 1285 1055 1285 1055 1285 975 c 0,5,6
 1285 925 1285 925 1269 878.5 c 128,-1,7
 1253 832 1253 832 1222 794 c 128,-1,8
 1191 756 1191 756 1145.5 728.5 c 128,-1,9
 1100 701 1100 701 1041 689 c 1,10,11
 1181 660 1181 660 1259 576 c 128,-1,12
 1337 492 1337 492 1337 362 c 0,13,14
 1337 283 1337 283 1309.5 216.5 c 128,-1,15
 1282 150 1282 150 1217.5 102 c 128,-1,16
 1153 54 1153 54 1046 27 c 128,-1,17
 939 0 939 0 781 0 c 2,18,-1
 73 0 l 1,19,-1
 73 178 l 1,20,-1
 125 178 l 2,21,22
 159 178 159 178 178 184.5 c 128,-1,23
 197 191 197 191 206.5 203 c 128,-1,24
 216 215 216 215 218 233 c 128,-1,25
 220 251 220 251 220 274 c 2,26,-1
 220 1011 l 2,27,28
 220 1030 220 1030 218.5 1050.5 c 128,-1,29
 217 1071 217 1071 208.5 1088.5 c 128,-1,30
 200 1106 200 1106 182 1117.5 c 128,-1,31
 164 1129 164 1129 131 1129 c 0,32,33
 128 1129 128 1129 120 1129.5 c 128,-1,34
 112 1130 112 1130 103.5 1130 c 128,-1,35
 95 1130 95 1130 86.5 1130 c 128,-1,36
 78 1130 78 1130 73 1130 c 1,37,-1
 73 1308 l 1,38,-1
 711 1308 l 2,0,1
546 745 m 1,39,-1
 706 745 l 2,40,41
 955 745 955 745 955 938 c 0,42,43
 955 983 955 983 940.5 1017.5 c 128,-1,44
 926 1052 926 1052 895 1076 c 128,-1,45
 864 1100 864 1100 815 1112.5 c 128,-1,46
 766 1125 766 1125 696 1125 c 2,47,-1
 546 1125 l 1,48,-1
 546 745 l 1,39,-1
546 182 m 1,49,-1
 711 182 l 2,50,51
 850 182 850 182 921 231 c 128,-1,52
 992 280 992 280 992 382 c 0,53,54
 992 438 992 438 974 478 c 128,-1,55
 956 518 956 518 915.5 544 c 128,-1,56
 875 570 875 570 811 582.5 c 128,-1,57
 747 595 747 595 656 595 c 2,58,-1
 546 595 l 1,59,-1
 546 182 l 1,49,-1
EndSplineSet
EndChar

StartChar: C
Encoding: 67 67 38
Width: 1446
Flags: W
LayerCount: 2
Fore
SplineSet
835 168 m 0,0,1
 911 168 911 168 968.5 184 c 128,-1,2
 1026 200 1026 200 1065 236 c 128,-1,3
 1104 272 1104 272 1125.5 330 c 128,-1,4
 1147 388 1147 388 1151 472 c 1,5,-1
 1355 428 l 1,6,-1
 1340 124 l 1,7,8
 1222 45 1222 45 1089 9.5 c 128,-1,9
 956 -26 956 -26 801 -26 c 0,10,11
 619 -26 619 -26 488 27 c 128,-1,12
 357 80 357 80 273 172 c 128,-1,13
 189 264 189 264 149 388 c 128,-1,14
 109 512 109 512 109 654 c 0,15,16
 109 803 109 803 154.5 928 c 128,-1,17
 200 1053 200 1053 285 1143 c 128,-1,18
 370 1233 370 1233 492 1283 c 128,-1,19
 614 1333 614 1333 768 1333 c 0,20,21
 814 1333 814 1333 863 1325 c 128,-1,22
 912 1317 912 1317 957 1302 c 128,-1,23
 1002 1287 1002 1287 1040.5 1266 c 128,-1,24
 1079 1245 1079 1245 1106 1219 c 1,25,-1
 1111 1305 l 1,26,-1
 1333 1305 l 1,27,-1
 1333 895 l 1,28,-1
 1128 896 l 1,29,30
 1120 1010 1120 1010 1046 1074.5 c 128,-1,31
 972 1139 972 1139 832 1139 c 0,32,33
 747 1139 747 1139 680 1108 c 128,-1,34
 613 1077 613 1077 566.5 1016.5 c 128,-1,35
 520 956 520 956 495 865.5 c 128,-1,36
 470 775 470 775 470 657 c 0,37,38
 470 541 470 541 495 450 c 128,-1,39
 520 359 520 359 567 296.5 c 128,-1,40
 614 234 614 234 681.5 201 c 128,-1,41
 749 168 749 168 835 168 c 0,0,1
EndSplineSet
EndChar

StartChar: D
Encoding: 68 68 39
Width: 1584
Flags: W
LayerCount: 2
Fore
SplineSet
625 1308 m 2,0,1
 1051 1308 1051 1308 1260 1146.5 c 128,-1,2
 1469 985 1469 985 1469 661 c 0,3,4
 1469 474 1469 474 1410.5 347.5 c 128,-1,5
 1352 221 1352 221 1244.5 143.5 c 128,-1,6
 1137 66 1137 66 985.5 33 c 128,-1,7
 834 0 834 0 647 0 c 2,8,-1
 65 0 l 1,9,-1
 65 178 l 1,10,-1
 114 178 l 2,11,12
 145 178 145 178 163 186.5 c 128,-1,13
 181 195 181 195 190 209.5 c 128,-1,14
 199 224 199 224 201.5 244 c 128,-1,15
 204 264 204 264 204 288 c 0,16,17
 204 291 204 291 204 324.5 c 128,-1,18
 204 358 204 358 203.5 411 c 128,-1,19
 203 464 203 464 203 531 c 128,-1,20
 203 598 203 598 203 667 c 2,21,-1
 203 1035 l 2,22,23
 203 1056 203 1056 199.5 1073 c 128,-1,24
 196 1090 196 1090 186.5 1103 c 128,-1,25
 177 1116 177 1116 159.5 1123.5 c 128,-1,26
 142 1131 142 1131 114 1131 c 2,27,-1
 65 1131 l 1,28,-1
 65 1308 l 1,29,-1
 625 1308 l 2,0,1
531 194 m 1,30,-1
 675 194 l 2,31,32
 785 194 785 194 867.5 221 c 128,-1,33
 950 248 950 248 1004.5 305.5 c 128,-1,34
 1059 363 1059 363 1086.5 452 c 128,-1,35
 1114 541 1114 541 1114 665 c 0,36,37
 1114 899 1114 899 1005.5 1006.5 c 128,-1,38
 897 1114 897 1114 674 1114 c 2,39,-1
 531 1114 l 1,40,-1
 531 194 l 1,30,-1
EndSplineSet
EndChar

StartChar: E
Encoding: 69 69 40
Width: 1316
Flags: W
LayerCount: 2
Fore
SplineSet
1211 1308 m 1,0,-1
 1211 944 l 1,1,-1
 1016 944 l 1,2,-1
 1016 985 l 2,3,4
 1016 1033 1016 1033 1006 1059 c 128,-1,5
 996 1085 996 1085 978 1096.5 c 128,-1,6
 960 1108 960 1108 934 1110 c 128,-1,7
 908 1112 908 1112 876 1112 c 2,8,-1
 541 1112 l 1,9,-1
 541 749 l 1,10,-1
 738 749 l 2,11,12
 760 749 760 749 775.5 751.5 c 128,-1,13
 791 754 791 754 802 763 c 128,-1,14
 813 772 813 772 820.5 791 c 128,-1,15
 828 810 828 810 833 843 c 1,16,-1
 918 843 l 1,17,-1
 918 489 l 1,18,-1
 832 489 l 1,19,20
 826 521 826 521 819 540 c 128,-1,21
 812 559 812 559 801 568.5 c 128,-1,22
 790 578 790 578 775 580.5 c 128,-1,23
 760 583 760 583 738 583 c 2,24,-1
 541 583 l 1,25,-1
 541 194 l 1,26,-1
 890 194 l 2,27,28
 927 194 927 194 952 199 c 128,-1,29
 977 204 977 204 992.5 221 c 128,-1,30
 1008 238 1008 238 1015 269.5 c 128,-1,31
 1022 301 1022 301 1022 354 c 2,32,-1
 1022 386 l 1,33,-1
 1215 386 l 1,34,-1
 1215 0 l 1,35,-1
 68 0 l 1,36,-1
 68 178 l 1,37,-1
 142 178 l 2,38,39
 168 178 168 178 182.5 187 c 128,-1,40
 197 196 197 196 204.5 212 c 128,-1,41
 212 228 212 228 213.5 248 c 128,-1,42
 215 268 215 268 215 291 c 2,43,-1
 215 1011 l 2,44,45
 215 1033 215 1033 214 1055 c 128,-1,46
 213 1077 213 1077 206 1094 c 128,-1,47
 199 1111 199 1111 184.5 1121.5 c 128,-1,48
 170 1132 170 1132 142 1132 c 2,49,-1
 72 1132 l 1,50,-1
 72 1308 l 1,51,-1
 1211 1308 l 1,0,-1
EndSplineSet
EndChar

StartChar: F
Encoding: 70 70 41
Width: 1213
Flags: W
LayerCount: 2
Fore
SplineSet
1196 1308 m 1,0,-1
 1196 934 l 1,1,-1
 1002 934 l 1,2,-1
 1002 982 l 2,3,4
 1002 1030 1002 1030 992 1056 c 128,-1,5
 982 1082 982 1082 965 1094.5 c 128,-1,6
 948 1107 948 1107 925.5 1109.5 c 128,-1,7
 903 1112 903 1112 878 1112 c 2,8,-1
 539 1112 l 1,9,-1
 539 748 l 1,10,-1
 715 748 l 2,11,12
 740 748 740 748 757.5 749.5 c 128,-1,13
 775 751 775 751 787 758.5 c 128,-1,14
 799 766 799 766 806 783 c 128,-1,15
 813 800 813 800 816 831 c 1,16,-1
 891 831 l 1,17,-1
 891 500 l 1,18,-1
 816 500 l 1,19,20
 813 528 813 528 806 544 c 128,-1,21
 799 560 799 560 788 568.5 c 128,-1,22
 777 577 777 577 759.5 579.5 c 128,-1,23
 742 582 742 582 718 582 c 2,24,-1
 539 582 l 1,25,-1
 539 261 l 2,26,27
 539 234 539 234 544 217.5 c 128,-1,28
 549 201 549 201 561 192.5 c 128,-1,29
 573 184 573 184 592.5 181 c 128,-1,30
 612 178 612 178 641 178 c 2,31,-1
 702 178 l 1,32,-1
 702 0 l 1,33,34
 659 0 659 0 619 0 c 128,-1,35
 579 0 579 0 536.5 0.5 c 128,-1,36
 494 1 494 1 447 1.5 c 128,-1,37
 400 2 400 2 344 2 c 0,38,39
 295 2 295 2 256.5 1.5 c 128,-1,40
 218 1 218 1 184.5 1 c 128,-1,41
 151 1 151 1 119.5 0.5 c 128,-1,42
 88 0 88 0 53 0 c 1,43,-1
 53 178 l 1,44,-1
 120 178 l 2,45,46
 147 178 147 178 165 181.5 c 128,-1,47
 183 185 183 185 193.5 197 c 128,-1,48
 204 209 204 209 208 232 c 128,-1,49
 212 255 212 255 212 294 c 2,50,-1
 212 1016 l 2,51,52
 212 1049 212 1049 210 1071 c 128,-1,53
 208 1093 208 1093 199 1106.5 c 128,-1,54
 190 1120 190 1120 171.5 1125.5 c 128,-1,55
 153 1131 153 1131 120 1131 c 2,56,-1
 55 1131 l 1,57,-1
 55 1308 l 1,58,-1
 1196 1308 l 1,0,-1
EndSplineSet
EndChar

StartChar: G
Encoding: 71 71 42
Width: 1554
Flags: W
LayerCount: 2
Fore
SplineSet
1368 906 m 1,0,-1
 1164 906 l 1,1,2
 1137 1021 1137 1021 1056.5 1080 c 128,-1,3
 976 1139 976 1139 848 1139 c 0,4,5
 753 1139 753 1139 681 1105 c 128,-1,6
 609 1071 609 1071 560.5 1007.5 c 128,-1,7
 512 944 512 944 487.5 853.5 c 128,-1,8
 463 763 463 763 463 650 c 0,9,10
 463 417 463 417 568 292.5 c 128,-1,11
 673 168 673 168 876 168 c 0,12,13
 924 168 924 168 964.5 175 c 128,-1,14
 1005 182 1005 182 1034.5 195.5 c 128,-1,15
 1064 209 1064 209 1080.5 229 c 128,-1,16
 1097 249 1097 249 1097 275 c 2,17,-1
 1097 436 l 2,18,19
 1097 463 1097 463 1091 477 c 128,-1,20
 1085 491 1085 491 1069.5 497 c 128,-1,21
 1054 503 1054 503 1028 503.5 c 128,-1,22
 1002 504 1002 504 962 504 c 2,23,-1
 899 504 l 1,24,-1
 899 657 l 1,25,26
 982 657 982 657 1058.5 656 c 128,-1,27
 1135 655 1135 655 1224 655 c 0,28,29
 1278 655 1278 655 1342.5 655 c 128,-1,30
 1407 655 1407 655 1479 657 c 1,31,32
 1479 644 1479 644 1478.5 624.5 c 128,-1,33
 1478 605 1478 605 1478 584.5 c 128,-1,34
 1478 564 1478 564 1477.5 544.5 c 128,-1,35
 1477 525 1477 525 1477 512 c 1,36,37
 1439 507 1439 507 1414 502 c 128,-1,38
 1389 497 1389 497 1375 489.5 c 128,-1,39
 1361 482 1361 482 1355 470 c 128,-1,40
 1349 458 1349 458 1349 439 c 0,41,42
 1349 427 1349 427 1346.5 388 c 128,-1,43
 1344 349 1344 349 1340.5 299 c 128,-1,44
 1337 249 1337 249 1333 196 c 128,-1,45
 1329 143 1329 143 1326 102 c 1,46,47
 1214 29 1214 29 1092 1.5 c 128,-1,48
 970 -26 970 -26 851 -26 c 0,49,50
 713 -26 713 -26 603.5 0 c 128,-1,51
 494 26 494 26 410.5 72.5 c 128,-1,52
 327 119 327 119 268 183 c 128,-1,53
 209 247 209 247 171.5 323 c 128,-1,54
 134 399 134 399 117 483.5 c 128,-1,55
 100 568 100 568 100 656 c 0,56,57
 100 811 100 811 151.5 936 c 128,-1,58
 203 1061 203 1061 293.5 1149.5 c 128,-1,59
 384 1238 384 1238 506.5 1285.5 c 128,-1,60
 629 1333 629 1333 772 1333 c 0,61,62
 824 1333 824 1333 876 1325.5 c 128,-1,63
 928 1318 928 1318 976 1303 c 128,-1,64
 1024 1288 1024 1288 1066 1265 c 128,-1,65
 1108 1242 1108 1242 1141 1211 c 1,66,-1
 1145 1304 l 1,67,-1
 1368 1304 l 1,68,-1
 1368 906 l 1,0,-1
EndSplineSet
EndChar

StartChar: H
Encoding: 72 72 43
Width: 1612
Flags: W
LayerCount: 2
Fore
SplineSet
75 1308 m 1,0,1
 90 1308 90 1308 127.5 1307.5 c 128,-1,2
 165 1307 165 1307 211.5 1307 c 128,-1,3
 258 1307 258 1307 305.5 1306.5 c 128,-1,4
 353 1306 353 1306 388 1306 c 0,5,6
 411 1306 411 1306 444 1306 c 128,-1,7
 477 1306 477 1306 515.5 1306.5 c 128,-1,8
 554 1307 554 1307 596 1307.5 c 128,-1,9
 638 1308 638 1308 679 1308 c 1,10,-1
 679 1130 l 1,11,-1
 644 1130 l 2,12,13
 605 1130 605 1130 584.5 1123 c 128,-1,14
 564 1116 564 1116 554 1103.5 c 128,-1,15
 544 1091 544 1091 542.5 1073 c 128,-1,16
 541 1055 541 1055 541 1034 c 2,17,-1
 541 755 l 1,18,-1
 1069 755 l 1,19,-1
 1069 1052 l 2,20,21
 1069 1075 1069 1075 1064.5 1090 c 128,-1,22
 1060 1105 1060 1105 1048.5 1114 c 128,-1,23
 1037 1123 1037 1123 1017 1126.5 c 128,-1,24
 997 1130 997 1130 966 1130 c 2,25,-1
 931 1130 l 1,26,-1
 931 1308 l 1,27,28
 1028 1306 1028 1306 1110 1306 c 128,-1,29
 1192 1306 1192 1306 1269 1306 c 0,30,31
 1288 1306 1288 1306 1317.5 1306 c 128,-1,32
 1347 1306 1347 1306 1383 1306.5 c 128,-1,33
 1419 1307 1419 1307 1459 1307.5 c 128,-1,34
 1499 1308 1499 1308 1537 1308 c 1,35,-1
 1537 1130 l 1,36,-1
 1505 1130 l 2,37,38
 1466 1130 1466 1130 1444 1124.5 c 128,-1,39
 1422 1119 1422 1119 1411.5 1107.5 c 128,-1,40
 1401 1096 1401 1096 1398.5 1079.5 c 128,-1,41
 1396 1063 1396 1063 1396 1042 c 2,42,-1
 1396 288 l 2,43,44
 1396 259 1396 259 1397 238.5 c 128,-1,45
 1398 218 1398 218 1407.5 204.5 c 128,-1,46
 1417 191 1417 191 1439.5 184.5 c 128,-1,47
 1462 178 1462 178 1505 178 c 2,48,-1
 1537 178 l 1,49,-1
 1537 0 l 1,50,51
 1501 0 1501 0 1467.5 0.5 c 128,-1,52
 1434 1 1434 1 1399 1 c 128,-1,53
 1364 1 1364 1 1324.5 1.5 c 128,-1,54
 1285 2 1285 2 1237 2 c 0,55,56
 1147 2 1147 2 1073.5 1 c 128,-1,57
 1000 0 1000 0 931 0 c 1,58,-1
 931 178 l 1,59,-1
 966 178 l 2,60,61
 1002 178 1002 178 1022.5 182 c 128,-1,62
 1043 186 1043 186 1053.5 197.5 c 128,-1,63
 1064 209 1064 209 1066.5 228.5 c 128,-1,64
 1069 248 1069 248 1069 278 c 2,65,-1
 1069 583 l 1,66,-1
 541 583 l 1,67,-1
 541 259 l 2,68,69
 541 229 541 229 545.5 212.5 c 128,-1,70
 550 196 550 196 562 188.5 c 128,-1,71
 574 181 574 181 594 179.5 c 128,-1,72
 614 178 614 178 644 178 c 2,73,-1
 679 178 l 1,74,-1
 679 0 l 1,75,76
 642 0 642 0 607.5 0.5 c 128,-1,77
 573 1 573 1 536.5 1 c 128,-1,78
 500 1 500 1 459 1.5 c 128,-1,79
 418 2 418 2 368 2 c 0,80,81
 321 2 321 2 282.5 1.5 c 128,-1,82
 244 1 244 1 209 1 c 128,-1,83
 174 1 174 1 141.5 0.5 c 128,-1,84
 109 0 109 0 75 0 c 1,85,-1
 75 178 l 1,86,-1
 106 178 l 2,87,88
 146 178 146 178 168 186.5 c 128,-1,89
 190 195 190 195 200.5 210 c 128,-1,90
 211 225 211 225 212.5 245.5 c 128,-1,91
 214 266 214 266 214 290 c 2,92,-1
 214 1049 l 2,93,94
 214 1069 214 1069 211.5 1084.5 c 128,-1,95
 209 1100 209 1100 198 1110 c 128,-1,96
 187 1120 187 1120 165.5 1125 c 128,-1,97
 144 1130 144 1130 106 1130 c 2,98,-1
 75 1130 l 1,99,-1
 75 1308 l 1,0,1
EndSplineSet
EndChar

StartChar: I
Encoding: 73 73 44
Width: 761
Flags: W
LayerCount: 2
Fore
SplineSet
75 1308 m 1,0,1
 120 1307 120 1307 157 1306.5 c 128,-1,2
 194 1306 194 1306 226 1306 c 128,-1,3
 258 1306 258 1306 287.5 1306 c 128,-1,4
 317 1306 317 1306 346 1306 c 0,5,6
 406 1306 406 1306 452.5 1306 c 128,-1,7
 499 1306 499 1306 538.5 1306 c 128,-1,8
 578 1306 578 1306 614.5 1306.5 c 128,-1,9
 651 1307 651 1307 691 1308 c 1,10,-1
 691 1130 l 1,11,-1
 649 1130 l 2,12,13
 613 1130 613 1130 592.5 1123.5 c 128,-1,14
 572 1117 572 1117 561.5 1104.5 c 128,-1,15
 551 1092 551 1092 548.5 1074.5 c 128,-1,16
 546 1057 546 1057 546 1035 c 2,17,-1
 546 269 l 2,18,19
 546 242 546 242 548 224.5 c 128,-1,20
 550 207 550 207 560 196.5 c 128,-1,21
 570 186 570 186 590.5 182 c 128,-1,22
 611 178 611 178 649 178 c 2,23,-1
 691 178 l 1,24,-1
 691 0 l 1,25,26
 654 0 654 0 619 0.5 c 128,-1,27
 584 1 584 1 547.5 1 c 128,-1,28
 511 1 511 1 469.5 1.5 c 128,-1,29
 428 2 428 2 379 2 c 0,30,31
 287 2 287 2 216.5 1 c 128,-1,32
 146 0 146 0 75 0 c 1,33,-1
 75 178 l 1,34,-1
 115 178 l 2,35,36
 154 178 154 178 175 185 c 128,-1,37
 196 192 196 192 206 206 c 128,-1,38
 216 220 216 220 217.5 241 c 128,-1,39
 219 262 219 262 219 290 c 2,40,-1
 219 1015 l 2,41,42
 219 1044 219 1044 217 1065.5 c 128,-1,43
 215 1087 215 1087 205 1101.5 c 128,-1,44
 195 1116 195 1116 174 1123 c 128,-1,45
 153 1130 153 1130 115 1130 c 2,46,-1
 75 1130 l 1,47,-1
 75 1308 l 1,0,1
EndSplineSet
EndChar

StartChar: J
Encoding: 74 74 45
Width: 864
Flags: W
LayerCount: 2
Fore
SplineSet
221 1308 m 2,0,1
 262 1308 262 1308 300 1307.5 c 128,-1,2
 338 1307 338 1307 376 1306.5 c 128,-1,3
 414 1306 414 1306 453.5 1306 c 128,-1,4
 493 1306 493 1306 538 1306 c 0,5,6
 557 1306 557 1306 587.5 1306 c 128,-1,7
 618 1306 618 1306 655 1306 c 128,-1,8
 692 1306 692 1306 732.5 1306.5 c 128,-1,9
 773 1307 773 1307 813 1308 c 1,10,-1
 813 1130 l 1,11,-1
 764 1130 l 2,12,13
 728 1130 728 1130 708.5 1122 c 128,-1,14
 689 1114 689 1114 679 1098 c 128,-1,15
 669 1082 669 1082 667 1059.5 c 128,-1,16
 665 1037 665 1037 665 1009 c 2,17,-1
 665 269 l 2,18,19
 665 126 665 126 644 29 c 128,-1,20
 623 -68 623 -68 572.5 -127 c 128,-1,21
 522 -186 522 -186 438.5 -211 c 128,-1,22
 355 -236 355 -236 231 -236 c 0,23,24
 171 -236 171 -236 121 -228.5 c 128,-1,25
 71 -221 71 -221 18 -210 c 1,26,-1
 18 95 l 1,27,28
 25 95 25 95 38 94 c 128,-1,29
 51 93 51 93 65.5 92 c 128,-1,30
 80 91 80 91 93 90 c 128,-1,31
 106 89 106 89 112 89 c 1,32,33
 126 29 126 29 145 6 c 128,-1,34
 164 -17 164 -17 196 -17 c 1,35,36
 245 -14 245 -14 273 15 c 128,-1,37
 301 44 301 44 315.5 91 c 128,-1,38
 330 138 330 138 333.5 198.5 c 128,-1,39
 337 259 337 259 337 324 c 2,40,-1
 337 1024 l 2,41,42
 337 1046 337 1046 335.5 1065 c 128,-1,43
 334 1084 334 1084 326 1098.5 c 128,-1,44
 318 1113 318 1113 301 1121.5 c 128,-1,45
 284 1130 284 1130 253 1130 c 2,46,-1
 180 1130 l 1,47,-1
 180 1308 l 1,48,-1
 221 1308 l 2,0,1
EndSplineSet
EndChar

StartChar: K
Encoding: 75 75 46
Width: 1510
Flags: W
LayerCount: 2
Fore
SplineSet
979 1091 m 2,0,1
 1002 1111 1002 1111 1002 1120 c 0,2,3
 1002 1128 1002 1128 989 1129 c 128,-1,4
 976 1130 976 1130 953 1130 c 2,5,-1
 849 1130 l 1,6,-1
 849 1307 l 1,7,8
 857 1307 857 1307 880.5 1306.5 c 128,-1,9
 904 1306 904 1306 935.5 1306 c 128,-1,10
 967 1306 967 1306 1002 1306 c 128,-1,11
 1037 1306 1037 1306 1068.5 1306 c 128,-1,12
 1100 1306 1100 1306 1124 1306 c 128,-1,13
 1148 1306 1148 1306 1156 1306 c 2,14,-1
 1450 1307 l 1,15,-1
 1450 1130 l 1,16,17
 1445 1130 1445 1130 1436.5 1130 c 128,-1,18
 1428 1130 1428 1130 1419 1130 c 128,-1,19
 1410 1130 1410 1130 1402 1129.5 c 128,-1,20
 1394 1129 1394 1129 1390 1129 c 0,21,22
 1349 1128 1349 1128 1318.5 1123.5 c 128,-1,23
 1288 1119 1288 1119 1260 1108.5 c 128,-1,24
 1232 1098 1232 1098 1204.5 1079 c 128,-1,25
 1177 1060 1177 1060 1142 1029 c 2,26,-1
 801 728 l 1,27,-1
 1250 261 l 2,28,29
 1279 231 1279 231 1319 207.5 c 128,-1,30
 1359 184 1359 184 1419 179 c 0,31,32
 1422 179 1422 179 1429.5 178.5 c 128,-1,33
 1437 178 1437 178 1446 178 c 128,-1,34
 1455 178 1455 178 1463 178 c 128,-1,35
 1471 178 1471 178 1474 178 c 1,36,-1
 1474 0 l 1,37,38
 1466 0 1466 0 1442 0 c 128,-1,39
 1418 0 1418 0 1386 0 c 128,-1,40
 1354 0 1354 0 1317.5 0.5 c 128,-1,41
 1281 1 1281 1 1248 1 c 128,-1,42
 1215 1 1215 1 1188.5 1 c 128,-1,43
 1162 1 1162 1 1151 1 c 256,44,45
 1140 1 1140 1 1114.5 1 c 128,-1,46
 1089 1 1089 1 1055.5 1 c 128,-1,47
 1022 1 1022 1 985.5 0.5 c 128,-1,48
 949 0 949 0 917 0 c 128,-1,49
 885 0 885 0 861.5 0 c 128,-1,50
 838 0 838 0 831 0 c 1,51,-1
 831 178 l 1,52,-1
 911 178 l 2,53,54
 948 178 948 178 948 187 c 0,55,56
 948 195 948 195 926 220 c 2,57,-1
 590 587 l 1,58,-1
 529 538 l 1,59,-1
 529 280 l 2,60,61
 529 256 529 256 531 237.5 c 128,-1,62
 533 219 533 219 542 205.5 c 128,-1,63
 551 192 551 192 571 185 c 128,-1,64
 591 178 591 178 627 178 c 2,65,-1
 673 178 l 1,66,-1
 673 0 l 1,67,68
 665 0 665 0 642.5 0 c 128,-1,69
 620 0 620 0 589.5 0 c 128,-1,70
 559 0 559 0 524.5 0.5 c 128,-1,71
 490 1 490 1 458.5 1 c 128,-1,72
 427 1 427 1 402 1 c 128,-1,73
 377 1 377 1 366 1 c 256,74,75
 355 1 355 1 330.5 1 c 128,-1,76
 306 1 306 1 274.5 1 c 128,-1,77
 243 1 243 1 208.5 0.5 c 128,-1,78
 174 0 174 0 143 0 c 128,-1,79
 112 0 112 0 89.5 0 c 128,-1,80
 67 0 67 0 59 0 c 1,81,-1
 59 178 l 1,82,-1
 104 178 l 2,83,84
 140 178 140 178 160 186 c 128,-1,85
 180 194 180 194 189 208 c 128,-1,86
 198 222 198 222 200 240.5 c 128,-1,87
 202 259 202 259 202 281 c 2,88,-1
 202 1022 l 2,89,90
 202 1045 202 1045 200 1064.5 c 128,-1,91
 198 1084 198 1084 188.5 1098.5 c 128,-1,92
 179 1113 179 1113 159 1121.5 c 128,-1,93
 139 1130 139 1130 104 1130 c 2,94,-1
 59 1130 l 1,95,-1
 59 1308 l 1,96,97
 104 1308 104 1308 141.5 1307 c 128,-1,98
 179 1306 179 1306 212 1305.5 c 128,-1,99
 245 1305 245 1305 274.5 1305 c 128,-1,100
 304 1305 304 1305 334 1305 c 256,101,102
 364 1305 364 1305 408 1305.5 c 128,-1,103
 452 1306 452 1306 500 1306.5 c 128,-1,104
 548 1307 548 1307 596.5 1307.5 c 128,-1,105
 645 1308 645 1308 685 1308 c 1,106,-1
 685 1130 l 1,107,-1
 628 1130 l 2,108,109
 593 1130 593 1130 573 1120.5 c 128,-1,110
 553 1111 553 1111 543 1095.5 c 128,-1,111
 533 1080 533 1080 531 1060 c 128,-1,112
 529 1040 529 1040 529 1020 c 2,113,-1
 529 682 l 1,114,-1
 979 1091 l 2,0,1
EndSplineSet
EndChar

StartChar: L
Encoding: 76 76 47
Width: 1190
Flags: W
LayerCount: 2
Fore
SplineSet
66 1308 m 1,0,1
 73 1308 73 1308 101.5 1307.5 c 128,-1,2
 130 1307 130 1307 166 1306.5 c 128,-1,3
 202 1306 202 1306 238.5 1305.5 c 128,-1,4
 275 1305 275 1305 299 1305 c 0,5,6
 347 1305 347 1305 393 1305 c 128,-1,7
 439 1305 439 1305 487 1305.5 c 128,-1,8
 535 1306 535 1306 587 1306.5 c 128,-1,9
 639 1307 639 1307 699 1308 c 1,10,-1
 699 1130 l 1,11,-1
 634 1130 l 2,12,13
 600 1130 600 1130 581 1120 c 128,-1,14
 562 1110 562 1110 552.5 1094 c 128,-1,15
 543 1078 543 1078 541 1057.5 c 128,-1,16
 539 1037 539 1037 539 1016 c 2,17,-1
 539 602 l 2,18,19
 539 423 539 423 540 197 c 1,20,-1
 863 197 l 2,21,22
 901 197 901 197 922.5 213 c 128,-1,23
 944 229 944 229 954.5 260.5 c 128,-1,24
 965 292 965 292 968 338 c 128,-1,25
 971 384 971 384 971 444 c 1,26,-1
 1154 444 l 1,27,-1
 1154 0 l 1,28,-1
 66 0 l 1,29,-1
 66 178 l 1,30,-1
 113 178 l 2,31,32
 149 178 149 178 169.5 187 c 128,-1,33
 190 196 190 196 199.5 211 c 128,-1,34
 209 226 209 226 211 247 c 128,-1,35
 213 268 213 268 213 292 c 2,36,-1
 213 989 l 1,37,-1
 213 1028 l 2,38,39
 213 1048 213 1048 210 1066.5 c 128,-1,40
 207 1085 207 1085 197 1099 c 128,-1,41
 187 1113 187 1113 167 1121.5 c 128,-1,42
 147 1130 147 1130 113 1130 c 2,43,-1
 66 1130 l 1,44,-1
 66 1308 l 1,0,1
EndSplineSet
EndChar

StartChar: M
Encoding: 77 77 48
Width: 1940
Flags: W
LayerCount: 2
Fore
SplineSet
77 1308 m 1,0,1
 91 1308 91 1308 126.5 1307.5 c 128,-1,2
 162 1307 162 1307 205 1306.5 c 128,-1,3
 248 1306 248 1306 292 1306 c 128,-1,4
 336 1306 336 1306 367 1306 c 0,5,6
 394 1306 394 1306 430.5 1306 c 128,-1,7
 467 1306 467 1306 507.5 1306.5 c 128,-1,8
 548 1307 548 1307 589 1307.5 c 128,-1,9
 630 1308 630 1308 668 1308 c 1,10,-1
 820 850 l 2,11,12
 848 764 848 764 875.5 682 c 128,-1,13
 903 600 903 600 924 535.5 c 128,-1,14
 945 471 945 471 958.5 431.5 c 128,-1,15
 972 392 972 392 972 392 c 1,16,17
 981 426 981 426 1004 496.5 c 128,-1,18
 1027 567 1027 567 1057.5 656.5 c 128,-1,19
 1088 746 1088 746 1122 845 c 128,-1,20
 1156 944 1156 944 1187 1034.5 c 128,-1,21
 1218 1125 1218 1125 1242.5 1198 c 128,-1,22
 1267 1271 1267 1271 1278 1308 c 1,23,24
 1314 1308 1314 1308 1358.5 1307.5 c 128,-1,25
 1403 1307 1403 1307 1448.5 1306.5 c 128,-1,26
 1494 1306 1494 1306 1536 1306 c 128,-1,27
 1578 1306 1578 1306 1608 1306 c 0,28,29
 1632 1306 1632 1306 1671.5 1306 c 128,-1,30
 1711 1306 1711 1306 1751 1306.5 c 128,-1,31
 1791 1307 1791 1307 1823 1307.5 c 128,-1,32
 1855 1308 1855 1308 1866 1308 c 1,33,-1
 1866 1130 l 1,34,-1
 1815 1130 l 2,35,36
 1784 1130 1784 1130 1766.5 1125.5 c 128,-1,37
 1749 1121 1749 1121 1740.5 1112.5 c 128,-1,38
 1732 1104 1732 1104 1730 1091 c 128,-1,39
 1728 1078 1728 1078 1728 1061 c 2,40,-1
 1728 663 l 2,41,42
 1728 490 1728 490 1729 270 c 0,43,44
 1729 243 1729 243 1732 225 c 128,-1,45
 1735 207 1735 207 1744.5 196.5 c 128,-1,46
 1754 186 1754 186 1772 182 c 128,-1,47
 1790 178 1790 178 1820 178 c 2,48,-1
 1869 178 l 1,49,-1
 1869 0 l 1,50,51
 1831 0 1831 0 1795 0.5 c 128,-1,52
 1759 1 1759 1 1720.5 1 c 128,-1,53
 1682 1 1682 1 1639.5 1.5 c 128,-1,54
 1597 2 1597 2 1548 2 c 0,55,56
 1505 2 1505 2 1471.5 1.5 c 128,-1,57
 1438 1 1438 1 1408.5 1 c 128,-1,58
 1379 1 1379 1 1351.5 0.5 c 128,-1,59
 1324 0 1324 0 1294 0 c 1,60,-1
 1294 178 l 1,61,-1
 1335 178 l 2,62,63
 1369 178 1369 178 1388.5 186.5 c 128,-1,64
 1408 195 1408 195 1418.5 211.5 c 128,-1,65
 1429 228 1429 228 1432 252 c 128,-1,66
 1435 276 1435 276 1435 306 c 2,67,-1
 1435 1149 l 1,68,-1
 1378 992 l 1,69,-1
 1024 0 l 1,70,-1
 840 0 l 1,71,72
 831 24 831 24 813 74 c 128,-1,73
 795 124 795 124 771.5 190.5 c 128,-1,74
 748 257 748 257 721 335.5 c 128,-1,75
 694 414 694 414 666 494.5 c 128,-1,76
 638 575 638 575 610.5 653 c 128,-1,77
 583 731 583 731 559.5 797.5 c 128,-1,78
 536 864 536 864 518.5 914.5 c 128,-1,79
 501 965 501 965 492 989 c 2,80,-1
 464 1067 l 2,81,82
 459 1081 459 1081 453.5 1095.5 c 128,-1,83
 448 1110 448 1110 444 1121 c 0,84,85
 439 1134 439 1134 435 1146 c 1,86,-1
 435 267 l 2,87,88
 435 237 435 237 438.5 219.5 c 128,-1,89
 442 202 442 202 451.5 193 c 128,-1,90
 461 184 461 184 478.5 181 c 128,-1,91
 496 178 496 178 525 178 c 2,92,-1
 573 178 l 1,93,-1
 573 0 l 1,94,95
 544 0 544 0 517 0.5 c 128,-1,96
 490 1 490 1 461 1 c 128,-1,97
 432 1 432 1 399.5 1.5 c 128,-1,98
 367 2 367 2 328 2 c 0,99,100
 286 2 286 2 252 1.5 c 128,-1,101
 218 1 218 1 188 1 c 128,-1,102
 158 1 158 1 129.5 0.5 c 128,-1,103
 101 0 101 0 71 0 c 1,104,-1
 71 178 l 1,105,-1
 120 178 l 2,106,107
 156 178 156 178 175 185.5 c 128,-1,108
 194 193 194 193 202 207 c 128,-1,109
 210 221 210 221 211.5 241 c 128,-1,110
 213 261 213 261 214 287 c 2,111,-1
 215 1039 l 2,112,113
 215 1063 215 1063 211.5 1080 c 128,-1,114
 208 1097 208 1097 198.5 1108.5 c 128,-1,115
 189 1120 189 1120 171 1125 c 128,-1,116
 153 1130 153 1130 124 1130 c 2,117,-1
 77 1130 l 1,118,-1
 77 1308 l 1,0,1
EndSplineSet
EndChar

StartChar: N
Encoding: 78 78 49
Width: 1543
Flags: W
LayerCount: 2
Fore
SplineSet
319 1308 m 2,0,1
 325 1308 325 1308 343 1308 c 128,-1,2
 361 1308 361 1308 385.5 1308 c 128,-1,3
 410 1308 410 1308 437.5 1308 c 128,-1,4
 465 1308 465 1308 489.5 1308 c 128,-1,5
 514 1308 514 1308 532.5 1308 c 128,-1,6
 551 1308 551 1308 557 1308 c 1,7,-1
 1128 345 l 1,8,-1
 1130 345 l 1,9,-1
 1129 1046 l 2,10,11
 1129 1074 1129 1074 1125 1090.5 c 128,-1,12
 1121 1107 1121 1107 1110 1116 c 128,-1,13
 1099 1125 1099 1125 1079.5 1127.5 c 128,-1,14
 1060 1130 1060 1130 1029 1130 c 2,15,-1
 983 1130 l 1,16,-1
 983 1308 l 1,17,18
 1058 1308 1058 1308 1117.5 1307 c 128,-1,19
 1177 1306 1177 1306 1226 1306 c 0,20,21
 1233 1306 1233 1306 1248.5 1306 c 128,-1,22
 1264 1306 1264 1306 1284 1306 c 128,-1,23
 1304 1306 1304 1306 1327 1306.5 c 128,-1,24
 1350 1307 1350 1307 1373 1307 c 0,25,26
 1427 1307 1427 1307 1491 1308 c 1,27,-1
 1491 1130 l 1,28,-1
 1440 1130 l 2,29,30
 1406 1130 1406 1130 1388 1122.5 c 128,-1,31
 1370 1115 1370 1115 1361.5 1101.5 c 128,-1,32
 1353 1088 1353 1088 1351.5 1068.5 c 128,-1,33
 1350 1049 1350 1049 1350 1026 c 0,34,35
 1350 1024 1350 1024 1350 978 c 128,-1,36
 1350 932 1350 932 1350 858.5 c 128,-1,37
 1350 785 1350 785 1350 692 c 128,-1,38
 1350 599 1350 599 1350 502 c 2,39,-1
 1350 -14 l 1,40,-1
 1021 -14 l 1,41,-1
 420 988 l 1,42,-1
 418 988 l 1,43,-1
 419 266 l 2,44,45
 419 235 419 235 422.5 217.5 c 128,-1,46
 426 200 426 200 437.5 191 c 128,-1,47
 449 182 449 182 469 180 c 128,-1,48
 489 178 489 178 522 178 c 2,49,-1
 571 178 l 1,50,-1
 571 0 l 1,51,52
 514 0 514 0 455.5 1 c 128,-1,53
 397 2 397 2 320 2 c 0,54,55
 277 2 277 2 242 1.5 c 128,-1,56
 207 1 207 1 175.5 1 c 128,-1,57
 144 1 144 1 114 0.5 c 128,-1,58
 84 0 84 0 52 0 c 1,59,-1
 52 178 l 1,60,-1
 104 178 l 2,61,62
 141 178 141 178 160.5 185 c 128,-1,63
 180 192 180 192 189 206 c 128,-1,64
 198 220 198 220 199 241.5 c 128,-1,65
 200 263 200 263 200 292 c 2,66,-1
 200 1029 l 2,67,68
 200 1059 200 1059 198 1078.5 c 128,-1,69
 196 1098 196 1098 186.5 1109.5 c 128,-1,70
 177 1121 177 1121 158 1125.5 c 128,-1,71
 139 1130 139 1130 106 1130 c 2,72,-1
 54 1130 l 1,73,-1
 54 1308 l 1,74,-1
 319 1308 l 2,0,1
EndSplineSet
EndChar

StartChar: O
Encoding: 79 79 50
Width: 1575
Flags: W
LayerCount: 2
Fore
SplineSet
788 1333 m 0,0,1
 953 1333 953 1333 1080.5 1281 c 128,-1,2
 1208 1229 1208 1229 1295.5 1137.5 c 128,-1,3
 1383 1046 1383 1046 1428.5 922 c 128,-1,4
 1474 798 1474 798 1474 655 c 256,5,6
 1474 512 1474 512 1428.5 388 c 128,-1,7
 1383 264 1383 264 1296 172 c 128,-1,8
 1209 80 1209 80 1082 27 c 128,-1,9
 955 -26 955 -26 791 -26 c 0,10,11
 625 -26 625 -26 496 26 c 128,-1,12
 367 78 367 78 279 169.5 c 128,-1,13
 191 261 191 261 145 385.5 c 128,-1,14
 99 510 99 510 99 655 c 0,15,16
 99 798 99 798 144 921.5 c 128,-1,17
 189 1045 189 1045 276.5 1136.5 c 128,-1,18
 364 1228 364 1228 492.5 1280.5 c 128,-1,19
 621 1333 621 1333 788 1333 c 0,0,1
787 1139 m 0,20,21
 701 1139 701 1139 639.5 1106 c 128,-1,22
 578 1073 578 1073 538.5 1010.5 c 128,-1,23
 499 948 499 948 480.5 858.5 c 128,-1,24
 462 769 462 769 462 657 c 0,25,26
 462 540 462 540 482 449 c 128,-1,27
 502 358 502 358 542 295.5 c 128,-1,28
 582 233 582 233 643 200.5 c 128,-1,29
 704 168 704 168 787 168 c 0,30,31
 871 168 871 168 932.5 201.5 c 128,-1,32
 994 235 994 235 1033.5 298 c 128,-1,33
 1073 361 1073 361 1092.5 451.5 c 128,-1,34
 1112 542 1112 542 1112 656 c 0,35,36
 1112 890 1112 890 1032 1014.5 c 128,-1,37
 952 1139 952 1139 787 1139 c 0,20,21
EndSplineSet
EndChar

StartChar: P
Encoding: 80 80 51
Width: 1353
Flags: W
LayerCount: 2
Fore
SplineSet
754 1308 m 2,0,1
 901 1308 901 1308 1004 1279.5 c 128,-1,2
 1107 1251 1107 1251 1172 1200 c 128,-1,3
 1237 1149 1237 1149 1267 1077.5 c 128,-1,4
 1297 1006 1297 1006 1297 920 c 0,5,6
 1297 835 1297 835 1270 765 c 128,-1,7
 1243 695 1243 695 1179.5 644.5 c 128,-1,8
 1116 594 1116 594 1011.5 566.5 c 128,-1,9
 907 539 907 539 751 539 c 2,10,-1
 552 539 l 1,11,-1
 552 273 l 2,12,13
 552 241 552 241 556.5 222 c 128,-1,14
 561 203 561 203 572 193.5 c 128,-1,15
 583 184 583 184 603 181 c 128,-1,16
 623 178 623 178 655 178 c 2,17,-1
 705 178 l 1,18,-1
 705 0 l 1,19,20
 670 0 670 0 637 0.5 c 128,-1,21
 604 1 604 1 569 1 c 128,-1,22
 534 1 534 1 494.5 1.5 c 128,-1,23
 455 2 455 2 409 2 c 0,24,25
 358 2 358 2 313.5 1.5 c 128,-1,26
 269 1 269 1 227.5 1 c 128,-1,27
 186 1 186 1 147 0.5 c 128,-1,28
 108 0 108 0 69 0 c 1,29,-1
 69 178 l 1,30,-1
 119 178 l 2,31,32
 156 178 156 178 177.5 182 c 128,-1,33
 199 186 199 186 209 198.5 c 128,-1,34
 219 211 219 211 221.5 233.5 c 128,-1,35
 224 256 224 256 224 293 c 2,36,-1
 224 1021 l 2,37,38
 224 1045 224 1045 222 1064.5 c 128,-1,39
 220 1084 220 1084 210 1098.5 c 128,-1,40
 200 1113 200 1113 180 1121.5 c 128,-1,41
 160 1130 160 1130 124 1130 c 2,42,-1
 69 1130 l 1,43,-1
 69 1308 l 1,44,-1
 754 1308 l 2,0,1
552 715 m 1,45,-1
 714 715 l 2,46,47
 839 715 839 715 902 766 c 128,-1,48
 965 817 965 817 965 922 c 0,49,50
 965 973 965 973 950 1011.5 c 128,-1,51
 935 1050 935 1050 903 1075.5 c 128,-1,52
 871 1101 871 1101 820 1114 c 128,-1,53
 769 1127 769 1127 696 1127 c 2,54,-1
 552 1127 l 1,55,-1
 552 715 l 1,45,-1
EndSplineSet
EndChar

StartChar: Q
Encoding: 81 81 52
Width: 1575
Flags: W
LayerCount: 2
Fore
SplineSet
787 168 m 0,0,1
 871 168 871 168 932 201.5 c 128,-1,2
 993 235 993 235 1033 298.5 c 128,-1,3
 1073 362 1073 362 1092.5 452.5 c 128,-1,4
 1112 543 1112 543 1112 657 c 256,5,6
 1112 771 1112 771 1092 861 c 128,-1,7
 1072 951 1072 951 1031.5 1012.5 c 128,-1,8
 991 1074 991 1074 930 1106.5 c 128,-1,9
 869 1139 869 1139 787 1139 c 0,10,11
 701 1139 701 1139 639.5 1105 c 128,-1,12
 578 1071 578 1071 538.5 1008 c 128,-1,13
 499 945 499 945 480.5 856 c 128,-1,14
 462 767 462 767 462 658 c 0,15,16
 462 542 462 542 481.5 451 c 128,-1,17
 501 360 501 360 541 297 c 128,-1,18
 581 234 581 234 642.5 201 c 128,-1,19
 704 168 704 168 787 168 c 0,0,1
1273 -349 m 0,20,21
 1215 -349 1215 -349 1161.5 -335.5 c 128,-1,22
 1108 -322 1108 -322 1057.5 -302 c 128,-1,23
 1007 -282 1007 -282 959.5 -258.5 c 128,-1,24
 912 -235 912 -235 865.5 -215 c 128,-1,25
 819 -195 819 -195 772.5 -181.5 c 128,-1,26
 726 -168 726 -168 678 -168 c 0,27,28
 647 -168 647 -168 618.5 -177.5 c 128,-1,29
 590 -187 590 -187 572 -207 c 1,30,-1
 501 -80 l 1,31,32
 530 -45 530 -45 564.5 -31 c 128,-1,33
 599 -17 599 -17 646 -13 c 1,34,35
 519 5 519 5 418 62 c 128,-1,36
 317 119 317 119 246 206.5 c 128,-1,37
 175 294 175 294 137 408 c 128,-1,38
 99 522 99 522 99 655 c 0,39,40
 99 799 99 799 145 922.5 c 128,-1,41
 191 1046 191 1046 279 1137.5 c 128,-1,42
 367 1229 367 1229 495.5 1281 c 128,-1,43
 624 1333 624 1333 789 1333 c 0,44,45
 952 1333 952 1333 1079.5 1281 c 128,-1,46
 1207 1229 1207 1229 1294.5 1137.5 c 128,-1,47
 1382 1046 1382 1046 1428 922.5 c 128,-1,48
 1474 799 1474 799 1474 656 c 0,49,50
 1474 529 1474 529 1435.5 412.5 c 128,-1,51
 1397 296 1397 296 1320.5 204.5 c 128,-1,52
 1244 113 1244 113 1131 53.5 c 128,-1,53
 1018 -6 1018 -6 870 -18 c 1,54,55
 871 -18 871 -18 872 -19 c 128,-1,56
 873 -20 873 -20 874 -20 c 0,57,58
 932 -34 932 -34 979.5 -52.5 c 128,-1,59
 1027 -71 1027 -71 1081.5 -87.5 c 128,-1,60
 1136 -104 1136 -104 1206.5 -115.5 c 128,-1,61
 1277 -127 1277 -127 1381 -127 c 1,62,-1
 1314 -348 l 1,63,64
 1303 -349 1303 -349 1293 -349 c 128,-1,65
 1283 -349 1283 -349 1273 -349 c 0,20,21
EndSplineSet
EndChar

StartChar: R
Encoding: 82 82 53
Width: 1474
Flags: W
LayerCount: 2
Fore
SplineSet
1201 362 m 1,0,1
 1210 312 1210 312 1218.5 275.5 c 128,-1,2
 1227 239 1227 239 1238.5 215 c 128,-1,3
 1250 191 1250 191 1266.5 179.5 c 128,-1,4
 1283 168 1283 168 1307 168 c 0,5,6
 1342 168 1342 168 1360 188 c 128,-1,7
 1378 208 1378 208 1378 256 c 1,8,-1
 1494 270 l 2,9,10
 1494 269 1494 269 1494 264.5 c 128,-1,11
 1494 260 1494 260 1493.5 254.5 c 128,-1,12
 1493 249 1493 249 1493 244.5 c 128,-1,13
 1493 240 1493 240 1493 239 c 0,14,15
 1491 169 1491 169 1471.5 119 c 128,-1,16
 1452 69 1452 69 1416 36.5 c 128,-1,17
 1380 4 1380 4 1329.5 -11 c 128,-1,18
 1279 -26 1279 -26 1215 -26 c 0,19,20
 1138 -26 1138 -26 1081 -4 c 128,-1,21
 1024 18 1024 18 983 62 c 128,-1,22
 942 106 942 106 915 172.5 c 128,-1,23
 888 239 888 239 871 329 c 0,24,25
 856 409 856 409 835.5 462 c 128,-1,26
 815 515 815 515 790 550 c 1,27,28
 763 572 763 572 725 579.5 c 128,-1,29
 687 587 687 587 631 587 c 2,30,-1
 544 587 l 1,31,-1
 543 250 l 2,32,33
 543 227 543 227 547.5 212.5 c 128,-1,34
 552 198 552 198 563 190.5 c 128,-1,35
 574 183 574 183 593 180.5 c 128,-1,36
 612 178 612 178 642 178 c 2,37,-1
 686 178 l 1,38,-1
 686 0 l 1,39,40
 649 0 649 0 612.5 0 c 128,-1,41
 576 0 576 0 538 0.5 c 128,-1,42
 500 1 500 1 457.5 1.5 c 128,-1,43
 415 2 415 2 366 2 c 0,44,45
 318 2 318 2 278.5 1.5 c 128,-1,46
 239 1 239 1 204 1 c 128,-1,47
 169 1 169 1 136.5 0.5 c 128,-1,48
 104 0 104 0 70 0 c 1,49,-1
 70 178 l 1,50,-1
 102 178 l 2,51,52
 145 178 145 178 168.5 184.5 c 128,-1,53
 192 191 192 191 202.5 204 c 128,-1,54
 213 217 213 217 214.5 236 c 128,-1,55
 216 255 216 255 216 280 c 2,56,-1
 216 1027 l 2,57,58
 216 1055 216 1055 213.5 1074.5 c 128,-1,59
 211 1094 211 1094 199.5 1106.5 c 128,-1,60
 188 1119 188 1119 164 1124.5 c 128,-1,61
 140 1130 140 1130 97 1130 c 2,62,-1
 70 1130 l 1,63,-1
 70 1308 l 1,64,-1
 709 1308 l 2,65,66
 782 1308 782 1308 853.5 1303 c 128,-1,67
 925 1298 925 1298 989.5 1283.5 c 128,-1,68
 1054 1269 1054 1269 1109.5 1244 c 128,-1,69
 1165 1219 1165 1219 1205.5 1179 c 128,-1,70
 1246 1139 1246 1139 1269 1082 c 128,-1,71
 1292 1025 1292 1025 1292 948 c 0,72,73
 1292 894 1292 894 1274 845.5 c 128,-1,74
 1256 797 1256 797 1221.5 758 c 128,-1,75
 1187 719 1187 719 1137.5 691 c 128,-1,76
 1088 663 1088 663 1025 649 c 1,77,78
 1055 635 1055 635 1082.5 614 c 128,-1,79
 1110 593 1110 593 1133 560 c 128,-1,80
 1156 527 1156 527 1173.5 479 c 128,-1,81
 1191 431 1191 431 1201 362 c 1,0,1
543 732 m 1,82,-1
 698 732 l 2,83,84
 765 732 765 732 814.5 741.5 c 128,-1,85
 864 751 864 751 896 774 c 128,-1,86
 928 797 928 797 944 834 c 128,-1,87
 960 871 960 871 960 927 c 0,88,89
 960 986 960 986 941 1024.5 c 128,-1,90
 922 1063 922 1063 885.5 1085.5 c 128,-1,91
 849 1108 849 1108 794.5 1116.5 c 128,-1,92
 740 1125 740 1125 668 1125 c 2,93,-1
 543 1125 l 1,94,-1
 543 732 l 1,82,-1
EndSplineSet
EndChar

StartChar: S
Encoding: 83 83 54
Width: 1199
Flags: W
LayerCount: 2
Fore
SplineSet
1064 943 m 1,0,-1
 872 943 l 1,1,2
 868 956 868 956 865.5 968 c 128,-1,3
 863 980 863 980 860 992 c 0,4,5
 843 1081 843 1081 784 1128.5 c 128,-1,6
 725 1176 725 1176 605 1176 c 0,7,8
 556 1176 556 1176 517 1164 c 128,-1,9
 478 1152 478 1152 450.5 1130 c 128,-1,10
 423 1108 423 1108 408 1078 c 128,-1,11
 393 1048 393 1048 393 1011 c 0,12,13
 393 954 393 954 428 917 c 128,-1,14
 463 880 463 880 523 850.5 c 128,-1,15
 583 821 583 821 662 793.5 c 128,-1,16
 741 766 741 766 829 728 c 0,17,18
 887 704 887 704 938.5 671.5 c 128,-1,19
 990 639 990 639 1029 595.5 c 128,-1,20
 1068 552 1068 552 1090.5 494.5 c 128,-1,21
 1113 437 1113 437 1113 363 c 0,22,23
 1113 284 1113 284 1082 213.5 c 128,-1,24
 1051 143 1051 143 993.5 89.5 c 128,-1,25
 936 36 936 36 853 5 c 128,-1,26
 770 -26 770 -26 666 -26 c 0,27,28
 616 -26 616 -26 566.5 -17.5 c 128,-1,29
 517 -9 517 -9 471.5 7 c 128,-1,30
 426 23 426 23 386.5 46 c 128,-1,31
 347 69 347 69 317 98 c 1,32,-1
 317 0 l 1,33,-1
 98 0 l 1,34,-1
 98 406 l 1,35,-1
 290 406 l 1,36,37
 296 380 296 380 302 358 c 1,38,39
 312 307 312 307 331.5 267.5 c 128,-1,40
 351 228 351 228 384 201 c 128,-1,41
 417 174 417 174 465 160 c 128,-1,42
 513 146 513 146 580 146 c 0,43,44
 631 146 631 146 672.5 158 c 128,-1,45
 714 170 714 170 744 192.5 c 128,-1,46
 774 215 774 215 790 248.5 c 128,-1,47
 806 282 806 282 806 324 c 0,48,49
 806 381 806 381 771.5 419.5 c 128,-1,50
 737 458 737 458 680.5 487 c 128,-1,51
 624 516 624 516 553 540.5 c 128,-1,52
 482 565 482 565 409 595 c 0,53,54
 251 660 251 660 174.5 748 c 128,-1,55
 98 836 98 836 98 961 c 0,56,57
 98 1040 98 1040 127.5 1108 c 128,-1,58
 157 1176 157 1176 213.5 1226 c 128,-1,59
 270 1276 270 1276 351 1304.5 c 128,-1,60
 432 1333 432 1333 536 1333 c 0,61,62
 626 1333 626 1333 713.5 1311 c 128,-1,63
 801 1289 801 1289 878 1228 c 1,64,65
 878 1242 878 1242 877.5 1256 c 128,-1,66
 877 1270 877 1270 877 1282 c 2,67,-1
 877 1309 l 1,68,69
 883 1309 883 1309 903.5 1309 c 128,-1,70
 924 1309 924 1309 951.5 1308.5 c 128,-1,71
 979 1308 979 1308 1009.5 1308 c 128,-1,72
 1040 1308 1040 1308 1064 1308 c 1,73,-1
 1064 943 l 1,0,-1
EndSplineSet
EndChar

StartChar: T
Encoding: 84 84 55
Width: 1324
Flags: W
LayerCount: 2
Fore
SplineSet
57 1308 m 1,0,1
 154 1307 154 1307 242 1307 c 0,2,3
 279 1307 279 1307 318.5 1306.5 c 128,-1,4
 358 1306 358 1306 395.5 1306 c 128,-1,5
 433 1306 433 1306 466 1306 c 128,-1,6
 499 1306 499 1306 523 1306 c 2,7,-1
 901 1306 l 2,8,9
 944 1306 944 1306 991.5 1306.5 c 128,-1,10
 1039 1307 1039 1307 1086.5 1307 c 128,-1,11
 1134 1307 1134 1307 1180 1307.5 c 128,-1,12
 1226 1308 1226 1308 1267 1308 c 1,13,-1
 1267 866 l 1,14,-1
 1109 866 l 1,15,-1
 1109 1001 l 2,16,17
 1109 1036 1109 1036 1105 1057.5 c 128,-1,18
 1101 1079 1101 1079 1085 1091 c 128,-1,19
 1069 1103 1069 1103 1037.5 1107 c 128,-1,20
 1006 1111 1006 1111 952 1111 c 2,21,-1
 827 1111 l 1,22,-1
 827 255 l 2,23,24
 827 244 827 244 829.5 230.5 c 128,-1,25
 832 217 832 217 841.5 205.5 c 128,-1,26
 851 194 851 194 870.5 186 c 128,-1,27
 890 178 890 178 923 178 c 2,28,-1
 979 178 l 1,29,-1
 979 0 l 1,30,31
 942 0 942 0 907.5 0 c 128,-1,32
 873 0 873 0 836.5 0.5 c 128,-1,33
 800 1 800 1 759 1.5 c 128,-1,34
 718 2 718 2 667 2 c 0,35,36
 632 2 632 2 591.5 1.5 c 128,-1,37
 551 1 551 1 508.5 1 c 128,-1,38
 466 1 466 1 425 0.5 c 128,-1,39
 384 0 384 0 348 0 c 1,40,-1
 348 178 l 1,41,-1
 404 178 l 2,42,43
 441 178 441 178 460.5 188 c 128,-1,44
 480 198 480 198 489 214 c 128,-1,45
 498 230 498 230 499 250.5 c 128,-1,46
 500 271 500 271 500 291 c 2,47,-1
 500 1111 l 1,48,-1
 340 1111 l 2,49,50
 299 1111 299 1111 274 1107.5 c 128,-1,51
 249 1104 249 1104 235.5 1095 c 128,-1,52
 222 1086 222 1086 217.5 1071 c 128,-1,53
 213 1056 213 1056 213 1033 c 0,54,55
 213 1022 213 1022 213 1000.5 c 128,-1,56
 213 979 213 979 213 954.5 c 128,-1,57
 213 930 213 930 213.5 905.5 c 128,-1,58
 214 881 214 881 214 866 c 1,59,-1
 57 866 l 1,60,-1
 57 1308 l 1,0,1
EndSplineSet
EndChar

StartChar: U
Encoding: 85 85 56
Width: 1411
Flags: W
LayerCount: 2
Fore
SplineSet
47 1308 m 1,0,1
 62 1308 62 1308 94.5 1307.5 c 128,-1,2
 127 1307 127 1307 165 1306.5 c 128,-1,3
 203 1306 203 1306 241.5 1305.5 c 128,-1,4
 280 1305 280 1305 308 1305 c 0,5,6
 347 1305 347 1305 384.5 1305 c 128,-1,7
 422 1305 422 1305 461 1305.5 c 128,-1,8
 500 1306 500 1306 542.5 1306.5 c 128,-1,9
 585 1307 585 1307 633 1308 c 1,10,-1
 633 1130 l 1,11,-1
 600 1130 l 2,12,13
 564 1130 564 1130 544.5 1120.5 c 128,-1,14
 525 1111 525 1111 515.5 1095.5 c 128,-1,15
 506 1080 506 1080 504 1059.5 c 128,-1,16
 502 1039 502 1039 502 1018 c 2,17,-1
 502 497 l 2,18,19
 502 417 502 417 514.5 355.5 c 128,-1,20
 527 294 527 294 557 252.5 c 128,-1,21
 587 211 587 211 638 189.5 c 128,-1,22
 689 168 689 168 766 168 c 0,23,24
 836 168 836 168 882 188 c 128,-1,25
 928 208 928 208 955 248 c 128,-1,26
 982 288 982 288 993 347 c 128,-1,27
 1004 406 1004 406 1004 484 c 2,28,-1
 1004 1026 l 2,29,30
 1004 1045 1004 1045 1002 1063.5 c 128,-1,31
 1000 1082 1000 1082 990 1097 c 128,-1,32
 980 1112 980 1112 959.5 1121 c 128,-1,33
 939 1130 939 1130 903 1130 c 2,34,-1
 867 1130 l 1,35,-1
 867 1308 l 1,36,37
 880 1307 880 1307 913 1306.5 c 128,-1,38
 946 1306 946 1306 986 1306 c 128,-1,39
 1026 1306 1026 1306 1066 1306 c 128,-1,40
 1106 1306 1106 1306 1135 1306 c 0,41,42
 1151 1306 1151 1306 1177 1306 c 128,-1,43
 1203 1306 1203 1306 1234.5 1306.5 c 128,-1,44
 1266 1307 1266 1307 1300.5 1307.5 c 128,-1,45
 1335 1308 1335 1308 1367 1308 c 1,46,-1
 1367 1130 l 1,47,-1
 1320 1130 l 2,48,49
 1285 1130 1285 1130 1267.5 1118.5 c 128,-1,50
 1250 1107 1250 1107 1242.5 1090 c 128,-1,51
 1235 1073 1235 1073 1235 1053.5 c 128,-1,52
 1235 1034 1235 1034 1235 1018 c 2,53,-1
 1235 500 l 2,54,55
 1235 371 1235 371 1206 272.5 c 128,-1,56
 1177 174 1177 174 1114.5 107.5 c 128,-1,57
 1052 41 1052 41 952.5 7.5 c 128,-1,58
 853 -26 853 -26 712 -26 c 0,59,60
 570 -26 570 -26 468.5 5.5 c 128,-1,61
 367 37 367 37 302.5 101.5 c 128,-1,62
 238 166 238 166 208 263.5 c 128,-1,63
 178 361 178 361 178 493 c 2,64,-1
 178 1053 l 2,65,66
 178 1064 178 1064 176 1077.5 c 128,-1,67
 174 1091 174 1091 165 1102.5 c 128,-1,68
 156 1114 156 1114 138.5 1122 c 128,-1,69
 121 1130 121 1130 90 1130 c 2,70,-1
 47 1130 l 1,71,-1
 47 1308 l 1,0,1
EndSplineSet
EndChar

StartChar: V
Encoding: 86 86 57
Width: 1404
Flags: W
LayerCount: 2
Fore
SplineSet
453 1043 m 1,0,1
 456 1033 456 1033 469.5 996.5 c 128,-1,2
 483 960 483 960 503.5 906 c 128,-1,3
 524 852 524 852 549 785.5 c 128,-1,4
 574 719 574 719 600 650 c 128,-1,5
 626 581 626 581 651.5 514.5 c 128,-1,6
 677 448 677 448 697.5 394 c 128,-1,7
 718 340 718 340 731.5 303.5 c 128,-1,8
 745 267 745 267 749 258 c 1,9,-1
 1028 1040 l 2,10,11
 1033 1056 1033 1056 1036.5 1068 c 128,-1,12
 1040 1080 1040 1080 1040 1088 c 0,13,14
 1040 1113 1040 1113 1016.5 1120 c 128,-1,15
 993 1127 993 1127 943 1129 c 0,16,17
 938 1129 938 1129 922.5 1129 c 128,-1,18
 907 1129 907 1129 902 1130 c 1,19,-1
 902 1308 l 1,20,21
 960 1307 960 1307 1011 1307 c 0,22,23
 1032 1307 1032 1307 1054 1306.5 c 128,-1,24
 1076 1306 1076 1306 1095.5 1306 c 128,-1,25
 1115 1306 1115 1306 1131 1306 c 128,-1,26
 1147 1306 1147 1306 1156 1306 c 0,27,28
 1213 1306 1213 1306 1272 1306 c 128,-1,29
 1331 1306 1331 1306 1401 1308 c 1,30,-1
 1401 1130 l 1,31,32
 1359 1130 1359 1130 1332.5 1117.5 c 128,-1,33
 1306 1105 1306 1105 1285.5 1076 c 128,-1,34
 1265 1047 1265 1047 1246.5 999.5 c 128,-1,35
 1228 952 1228 952 1202 882 c 2,36,-1
 864 -15 l 1,37,-1
 563 -15 l 1,38,-1
 159 991 l 2,39,40
 145 1025 145 1025 133.5 1051 c 128,-1,41
 122 1077 122 1077 105.5 1094.5 c 128,-1,42
 89 1112 89 1112 65 1121 c 128,-1,43
 41 1130 41 1130 3 1130 c 1,44,-1
 3 1308 l 1,45,46
 11 1308 11 1308 35.5 1307.5 c 128,-1,47
 60 1307 60 1307 90.5 1306.5 c 128,-1,48
 121 1306 121 1306 152 1305.5 c 128,-1,49
 183 1305 183 1305 205 1305 c 0,50,51
 218 1305 218 1305 241 1305 c 128,-1,52
 264 1305 264 1305 292.5 1305 c 128,-1,53
 321 1305 321 1305 354 1305.5 c 128,-1,54
 387 1306 387 1306 419 1306 c 0,55,56
 495 1307 495 1307 582 1308 c 1,57,-1
 582 1130 l 1,58,59
 553 1129 553 1129 528 1128 c 128,-1,60
 503 1127 503 1127 484.5 1122.5 c 128,-1,61
 466 1118 466 1118 455.5 1108.5 c 128,-1,62
 445 1099 445 1099 445 1081 c 0,63,64
 445 1074 445 1074 446.5 1064.5 c 128,-1,65
 448 1055 448 1055 453 1043 c 1,0,1
EndSplineSet
EndChar

StartChar: W
Encoding: 87 87 58
Width: 2021
Flags: W
LayerCount: 2
Fore
SplineSet
164 956 m 2,0,1
 146 1017 146 1017 136 1052 c 128,-1,2
 126 1087 126 1087 112.5 1104 c 128,-1,3
 99 1121 99 1121 75.5 1125.5 c 128,-1,4
 52 1130 52 1130 6 1130 c 1,5,-1
 6 1308 l 1,6,7
 70 1307 70 1307 127 1307 c 0,8,9
 151 1307 151 1307 176.5 1306.5 c 128,-1,10
 202 1306 202 1306 225 1306 c 128,-1,11
 248 1306 248 1306 267.5 1306 c 128,-1,12
 287 1306 287 1306 300 1306 c 0,13,14
 357 1306 357 1306 422 1306.5 c 128,-1,15
 487 1307 487 1307 574 1308 c 1,16,-1
 574 1130 l 1,17,18
 498 1128 498 1128 463 1120 c 1,19,20
 445 1105 445 1105 445 1074 c 0,21,22
 445 1061 445 1061 447 1045 c 128,-1,23
 449 1029 449 1029 454 1011 c 0,24,25
 463 979 463 979 478.5 918 c 128,-1,26
 494 857 494 857 512.5 782 c 128,-1,27
 531 707 531 707 551.5 624.5 c 128,-1,28
 572 542 572 542 590.5 467 c 128,-1,29
 609 392 609 392 624.5 331 c 128,-1,30
 640 270 640 270 649 238 c 1,31,-1
 911 1230 l 1,32,-1
 1177 1230 l 1,33,-1
 1445 237 l 1,34,-1
 1641 1028 l 2,35,36
 1645 1045 1645 1045 1648.5 1059 c 128,-1,37
 1652 1073 1652 1073 1654 1086 c 1,38,39
 1649 1106 1649 1106 1628 1116 c 128,-1,40
 1607 1126 1607 1126 1561 1128 c 0,41,42
 1556 1129 1556 1129 1541.5 1129 c 128,-1,43
 1527 1129 1527 1129 1522 1130 c 1,44,-1
 1522 1308 l 1,45,46
 1601 1307 1601 1307 1660 1306.5 c 128,-1,47
 1719 1306 1719 1306 1770 1306 c 0,48,49
 1793 1306 1793 1306 1829.5 1306 c 128,-1,50
 1866 1306 1866 1306 1903 1306.5 c 128,-1,51
 1940 1307 1940 1307 1971.5 1307.5 c 128,-1,52
 2003 1308 2003 1308 2016 1308 c 1,53,-1
 2016 1130 l 1,54,55
 1980 1129 1980 1129 1955.5 1123.5 c 128,-1,56
 1931 1118 1931 1118 1913 1102 c 128,-1,57
 1895 1086 1895 1086 1880.5 1055 c 128,-1,58
 1866 1024 1866 1024 1850 972 c 1,59,60
 1844 956 1844 956 1832.5 917 c 128,-1,61
 1821 878 1821 878 1804.5 822.5 c 128,-1,62
 1788 767 1788 767 1768.5 699 c 128,-1,63
 1749 631 1749 631 1727.5 556 c 128,-1,64
 1706 481 1706 481 1683.5 403.5 c 128,-1,65
 1661 326 1661 326 1639.5 251 c 128,-1,66
 1618 176 1618 176 1598 108 c 128,-1,67
 1578 40 1578 40 1561 -15 c 1,68,-1
 1253 -15 l 1,69,-1
 1013 936 l 1,70,-1
 771 -15 l 1,71,-1
 454 -15 l 1,72,-1
 164 956 l 2,0,1
EndSplineSet
EndChar

StartChar: X
Encoding: 88 88 59
Width: 1655
Flags: W
LayerCount: 2
Fore
SplineSet
43 1308 m 1,0,1
 106 1307 106 1307 147.5 1307 c 128,-1,2
 189 1307 189 1307 223 1307 c 128,-1,3
 257 1307 257 1307 292 1307 c 128,-1,4
 327 1307 327 1307 377 1307 c 1,5,6
 405 1306 405 1306 449.5 1306 c 128,-1,7
 494 1306 494 1306 543 1306 c 128,-1,8
 592 1306 592 1306 640 1307 c 128,-1,9
 688 1308 688 1308 724 1308 c 1,10,-1
 724 1130 l 1,11,-1
 681 1130 l 2,12,13
 641 1130 641 1130 619 1126 c 128,-1,14
 597 1122 597 1122 597 1104 c 0,15,16
 597 1096 597 1096 614.5 1074.5 c 128,-1,17
 632 1053 632 1053 654 1030 c 2,18,-1
 848 818 l 1,19,20
 848 818 848 818 859.5 832 c 128,-1,21
 871 846 871 846 889.5 867.5 c 128,-1,22
 908 889 908 889 930.5 915 c 128,-1,23
 953 941 953 941 974 966.5 c 128,-1,24
 995 992 995 992 1012.5 1013.5 c 128,-1,25
 1030 1035 1030 1035 1038 1047 c 1,26,27
 1058 1072 1058 1072 1072 1086 c 128,-1,28
 1086 1100 1086 1100 1086 1104 c 0,29,30
 1086 1121 1086 1121 1052.5 1124.5 c 128,-1,31
 1019 1128 1019 1128 954 1130 c 1,32,-1
 954 1308 l 1,33,34
 994 1308 994 1308 1037.5 1307 c 128,-1,35
 1081 1306 1081 1306 1122.5 1305.5 c 128,-1,36
 1164 1305 1164 1305 1201 1305 c 128,-1,37
 1238 1305 1238 1305 1265 1306 c 1,38,39
 1342 1306 1342 1306 1418 1306 c 128,-1,40
 1494 1306 1494 1306 1585 1308 c 1,41,-1
 1583 1146 l 1,42,43
 1541 1146 1541 1146 1509 1144 c 128,-1,44
 1477 1142 1477 1142 1452 1136 c 128,-1,45
 1427 1130 1427 1130 1407.5 1118 c 128,-1,46
 1388 1106 1388 1106 1372 1085 c 0,47,48
 1370 1084 1370 1084 1354 1066 c 128,-1,49
 1338 1048 1338 1048 1312 1019.5 c 128,-1,50
 1286 991 1286 991 1254 955.5 c 128,-1,51
 1222 920 1222 920 1188 882.5 c 128,-1,52
 1154 845 1154 845 1122 810 c 128,-1,53
 1090 775 1090 775 1065 747 c 128,-1,54
 1040 719 1040 719 1025 702 c 2,55,-1
 1010 686 l 1,56,-1
 1359 313 l 1,57,58
 1390 278 1390 278 1415 252.5 c 128,-1,59
 1440 227 1440 227 1468 210 c 128,-1,60
 1496 193 1496 193 1531 185 c 128,-1,61
 1566 177 1566 177 1617 177 c 1,62,-1
 1617 0 l 1,63,64
 1535 1 1535 1 1454.5 2 c 128,-1,65
 1374 3 1374 3 1281 3 c 0,66,67
 1177 3 1177 3 1085.5 2 c 128,-1,68
 994 1 994 1 901 0 c 1,69,70
 901 45 901 45 900.5 88.5 c 128,-1,71
 900 132 900 132 900 177 c 1,72,73
 962 177 962 177 1000.5 183 c 128,-1,74
 1039 189 1039 189 1039 212 c 0,75,76
 1039 217 1039 217 1032 227.5 c 128,-1,77
 1025 238 1025 238 1014.5 251.5 c 128,-1,78
 1004 265 1004 265 991 280 c 128,-1,79
 978 295 978 295 965 310 c 2,80,-1
 792 517 l 1,81,-1
 608 306 l 1,82,83
 571 266 571 266 556 243 c 128,-1,84
 541 220 541 220 541 209 c 0,85,86
 541 197 541 197 551.5 190.5 c 128,-1,87
 562 184 562 184 581 181 c 128,-1,88
 600 178 600 178 626 177.5 c 128,-1,89
 652 177 652 177 683 177 c 1,90,-1
 683 0 l 1,91,92
 569 0 569 0 475 1 c 128,-1,93
 381 2 381 2 318 2 c 0,94,95
 292 2 292 2 266.5 2 c 128,-1,96
 241 2 241 2 209 1.5 c 128,-1,97
 177 1 177 1 135 0.5 c 128,-1,98
 93 0 93 0 33 0 c 1,99,-1
 33 178 l 1,100,101
 72 178 72 178 99.5 181 c 128,-1,102
 127 184 127 184 153.5 195 c 128,-1,103
 180 206 180 206 208.5 229 c 128,-1,104
 237 252 237 252 277 291 c 1,105,-1
 618 646 l 1,106,-1
 285 1007 l 2,107,108
 243 1052 243 1052 216 1076.5 c 128,-1,109
 189 1101 189 1101 165 1112.5 c 128,-1,110
 141 1124 141 1124 113.5 1126.5 c 128,-1,111
 86 1129 86 1129 43 1130 c 1,112,-1
 43 1308 l 1,0,1
EndSplineSet
EndChar

StartChar: Y
Encoding: 89 89 60
Width: 1320
Flags: W
LayerCount: 2
Fore
SplineSet
16 1308 m 1,0,1
 23 1308 23 1308 45 1307.5 c 128,-1,2
 67 1307 67 1307 95 1306.5 c 128,-1,3
 123 1306 123 1306 151 1305.5 c 128,-1,4
 179 1305 179 1305 197 1305 c 0,5,6
 243 1305 243 1305 286 1305.5 c 128,-1,7
 329 1306 329 1306 376.5 1306.5 c 128,-1,8
 424 1307 424 1307 478 1307.5 c 128,-1,9
 532 1308 532 1308 599 1308 c 1,10,-1
 599 1130 l 1,11,-1
 568 1130 l 2,12,13
 519 1130 519 1130 498 1122.5 c 128,-1,14
 477 1115 477 1115 477 1095 c 1,15,16
 480 1089 480 1089 484.5 1079.5 c 128,-1,17
 489 1070 489 1070 494.5 1059 c 128,-1,18
 500 1048 500 1048 505 1037 c 128,-1,19
 510 1026 510 1026 515 1019 c 1,20,21
 521 1007 521 1007 535.5 981.5 c 128,-1,22
 550 956 550 956 568.5 924 c 128,-1,23
 587 892 587 892 607.5 857 c 128,-1,24
 628 822 628 822 646.5 790 c 128,-1,25
 665 758 665 758 679 732.5 c 128,-1,26
 693 707 693 707 699 695 c 1,27,-1
 896 1022 l 2,28,29
 911 1047 911 1047 921 1066 c 128,-1,30
 931 1085 931 1085 933 1099 c 1,31,32
 929 1115 929 1115 909 1121 c 128,-1,33
 889 1127 889 1127 847 1129 c 0,34,35
 843 1129 843 1129 832 1129.5 c 128,-1,36
 821 1130 821 1130 816 1130 c 1,37,-1
 816 1308 l 1,38,39
 875 1307 875 1307 928 1307 c 0,40,41
 950 1307 950 1307 973.5 1306.5 c 128,-1,42
 997 1306 997 1306 1018 1306 c 128,-1,43
 1039 1306 1039 1306 1056 1306 c 128,-1,44
 1073 1306 1073 1306 1084 1306 c 0,45,46
 1132 1306 1132 1306 1183.5 1306 c 128,-1,47
 1235 1306 1235 1306 1303 1308 c 1,48,-1
 1303 1130 l 1,49,50
 1270 1130 1270 1130 1250 1126.5 c 128,-1,51
 1230 1123 1230 1123 1214.5 1113.5 c 128,-1,52
 1199 1104 1199 1104 1185 1085.5 c 128,-1,53
 1171 1067 1171 1067 1151 1037 c 1,54,55
 1126 1002 1126 1002 1096 957 c 128,-1,56
 1066 912 1066 912 1034 863.5 c 128,-1,57
 1002 815 1002 815 970 765.5 c 128,-1,58
 938 716 938 716 909.5 671.5 c 128,-1,59
 881 627 881 627 857.5 590.5 c 128,-1,60
 834 554 834 554 819 532 c 1,61,-1
 819 270 l 2,62,63
 819 247 819 247 821 230 c 128,-1,64
 823 213 823 213 833 201.5 c 128,-1,65
 843 190 843 190 862.5 184 c 128,-1,66
 882 178 882 178 918 178 c 2,67,-1
 967 178 l 1,68,-1
 967 0 l 1,69,70
 930 0 930 0 894.5 0 c 128,-1,71
 859 0 859 0 821 0.5 c 128,-1,72
 783 1 783 1 741 1.5 c 128,-1,73
 699 2 699 2 649 2 c 0,74,75
 619 2 619 2 576.5 1.5 c 128,-1,76
 534 1 534 1 490.5 1 c 128,-1,77
 447 1 447 1 409 0.5 c 128,-1,78
 371 0 371 0 352 0 c 1,79,-1
 352 178 l 1,80,-1
 400 178 l 2,81,82
 439 178 439 178 459 187.5 c 128,-1,83
 479 197 479 197 488 211 c 128,-1,84
 497 225 497 225 497.5 240.5 c 128,-1,85
 498 256 498 256 498 268 c 2,86,-1
 498 534 l 1,87,88
 483 556 483 556 458.5 594.5 c 128,-1,89
 434 633 434 633 404.5 679.5 c 128,-1,90
 375 726 375 726 342.5 777 c 128,-1,91
 310 828 310 828 280.5 874.5 c 128,-1,92
 251 921 251 921 226.5 959.5 c 128,-1,93
 202 998 202 998 188 1021 c 0,94,95
 164 1058 164 1058 149.5 1079 c 128,-1,96
 135 1100 135 1100 118.5 1111.5 c 128,-1,97
 102 1123 102 1123 79 1126 c 128,-1,98
 56 1129 56 1129 17 1130 c 1,99,100
 17 1174 17 1174 16.5 1218.5 c 128,-1,101
 16 1263 16 1263 16 1308 c 1,0,1
EndSplineSet
EndChar

StartChar: Z
Encoding: 90 90 61
Width: 1267
Flags: W
LayerCount: 2
Fore
SplineSet
1193 1306 m 1,0,-1
 1193 1111 l 1,1,-1
 427 183 l 1,2,-1
 911 183 l 2,3,4
 949 183 949 183 972 194 c 128,-1,5
 995 205 995 205 1007 230.5 c 128,-1,6
 1019 256 1019 256 1023 298 c 128,-1,7
 1027 340 1027 340 1027 401 c 1,8,-1
 1214 401 l 1,9,-1
 1214 0 l 1,10,-1
 52 0 l 1,11,-1
 52 204 l 1,12,-1
 809 1122 l 1,13,-1
 429 1122 l 2,14,15
 373 1122 373 1122 339.5 1121 c 128,-1,16
 306 1120 306 1120 288.5 1112 c 128,-1,17
 271 1104 271 1104 265.5 1085 c 128,-1,18
 260 1066 260 1066 260 1029 c 2,19,-1
 260 923 l 1,20,-1
 75 923 l 1,21,-1
 75 1306 l 1,22,-1
 1193 1306 l 1,0,-1
EndSplineSet
EndChar

StartChar: bracketleft
Encoding: 91 91 62
Width: 807
Flags: W
LayerCount: 2
Fore
SplineSet
736 1308 m 1,0,-1
 736 1092 l 1,1,-1
 460 1092 l 1,2,-1
 460 -82 l 1,3,-1
 734 -82 l 1,4,-1
 734 -298 l 1,5,-1
 161 -298 l 1,6,-1
 161 1308 l 1,7,-1
 736 1308 l 1,0,-1
EndSplineSet
EndChar

StartChar: backslash
Encoding: 92 92 63
Width: 503
Flags: W
LayerCount: 2
Fore
SplineSet
155 1322 m 1,0,-1
 551 -96 l 1,1,-1
 371 -96 l 1,2,-1
 -26 1322 l 1,3,-1
 155 1322 l 1,0,-1
EndSplineSet
EndChar

StartChar: bracketright
Encoding: 93 93 64
Width: 807
Flags: W
LayerCount: 2
Fore
SplineSet
645 1308 m 1,0,-1
 645 -298 l 1,1,-1
 70 -298 l 1,2,-1
 70 -82 l 1,3,-1
 347 -82 l 1,4,-1
 347 1092 l 1,5,-1
 71 1092 l 1,6,-1
 71 1308 l 1,7,-1
 645 1308 l 1,0,-1
EndSplineSet
EndChar

StartChar: asciicircum
Encoding: 94 94 65
Width: 1721
Flags: W
LayerCount: 2
Fore
SplineSet
1428 798 m 1,0,-1
 1249 787 l 1,1,-1
 859 1229 l 1,2,-1
 467 787 l 1,3,-1
 291 798 l 1,4,-1
 763 1427 l 1,5,-1
 965 1427 l 1,6,-1
 1428 798 l 1,0,-1
EndSplineSet
EndChar

StartChar: underscore
Encoding: 95 95 66
Width: 1024
Flags: W
LayerCount: 2
Fore
SplineSet
1030 -366 m 1,0,-1
 -6 -366 l 1,1,-1
 -6 -241 l 1,2,-1
 1030 -241 l 1,3,-1
 1030 -366 l 1,0,-1
EndSplineSet
EndChar

StartChar: grave
Encoding: 96 96 67
Width: 853
Flags: W
LayerCount: 2
Fore
SplineSet
611 1048 m 1,0,-1
 472 1048 l 1,1,2
 462 1057 462 1057 430.5 1081 c 128,-1,3
 399 1105 399 1105 357.5 1135.5 c 128,-1,4
 316 1166 316 1166 270.5 1200.5 c 128,-1,5
 225 1235 225 1235 186.5 1266 c 128,-1,6
 148 1297 148 1297 123 1320 c 128,-1,7
 98 1343 98 1343 97 1352 c 0,8,9
 97 1356 97 1356 112 1365 c 128,-1,10
 127 1374 127 1374 150.5 1383.5 c 128,-1,11
 174 1393 174 1393 203.5 1400.5 c 128,-1,12
 233 1408 233 1408 263 1408 c 0,13,14
 297 1408 297 1408 327.5 1398 c 128,-1,15
 358 1388 358 1388 375 1365 c 2,16,-1
 611 1048 l 1,0,-1
EndSplineSet
EndChar

StartChar: a
Encoding: 97 97 68
Width: 1203
Flags: W
LayerCount: 2
Fore
SplineSet
1050 272 m 2,0,1
 1050 231 1050 231 1052.5 208 c 128,-1,2
 1055 185 1055 185 1063.5 174.5 c 128,-1,3
 1072 164 1072 164 1087 162 c 128,-1,4
 1102 160 1102 160 1128 160 c 2,5,-1
 1176 160 l 1,6,-1
 1176 0 l 1,7,8
 1168 0 1168 0 1141 0 c 128,-1,9
 1114 0 1114 0 1082 0.5 c 128,-1,10
 1050 1 1050 1 1020.5 1 c 128,-1,11
 991 1 991 1 979 1 c 0,12,13
 951 1 951 1 928 0.5 c 128,-1,14
 905 0 905 0 883.5 -0.5 c 128,-1,15
 862 -1 862 -1 839 -1.5 c 128,-1,16
 816 -2 816 -2 788 -3 c 1,17,-1
 758 127 l 1,18,19
 736 92 736 92 706 64.5 c 128,-1,20
 676 37 676 37 634 17.5 c 128,-1,21
 592 -2 592 -2 537 -12.5 c 128,-1,22
 482 -23 482 -23 411 -23 c 0,23,24
 325 -23 325 -23 259.5 -0.5 c 128,-1,25
 194 22 194 22 150.5 60 c 128,-1,26
 107 98 107 98 85 149.5 c 128,-1,27
 63 201 63 201 63 259 c 0,28,29
 63 326 63 326 92.5 380 c 128,-1,30
 122 434 122 434 177.5 471.5 c 128,-1,31
 233 509 233 509 312 529.5 c 128,-1,32
 391 550 391 550 491 550 c 0,33,34
 556 550 556 550 621 542.5 c 128,-1,35
 686 535 686 535 744 520 c 1,36,-1
 744 635 l 2,37,38
 744 711 744 711 691.5 756 c 128,-1,39
 639 801 639 801 529 801 c 0,40,41
 347 801 347 801 312 656 c 1,42,-1
 147 671 l 1,43,-1
 153 871 l 1,44,45
 168 878 168 878 202 889 c 128,-1,46
 236 900 236 900 288 910.5 c 128,-1,47
 340 921 340 921 408 928.5 c 128,-1,48
 476 936 476 936 559 936 c 0,49,50
 689 936 689 936 782 917.5 c 128,-1,51
 875 899 875 899 934.5 859 c 128,-1,52
 994 819 994 819 1022 755.5 c 128,-1,53
 1050 692 1050 692 1050 601 c 2,54,-1
 1050 272 l 2,0,1
578 446 m 0,55,56
 473 446 473 446 415 403 c 128,-1,57
 357 360 357 360 357 282 c 0,58,59
 357 245 357 245 370 222.5 c 128,-1,60
 383 200 383 200 405.5 179.5 c 128,-1,61
 428 159 428 159 459.5 148 c 128,-1,62
 491 137 491 137 527 137 c 0,63,64
 576 137 576 137 616 150 c 128,-1,65
 656 163 656 163 684.5 188.5 c 128,-1,66
 713 214 713 214 728.5 244 c 128,-1,67
 744 274 744 274 744 321 c 2,68,-1
 744 424 l 1,69,70
 702 436 702 436 661 441 c 128,-1,71
 620 446 620 446 578 446 c 0,55,56
EndSplineSet
EndChar

StartChar: b
Encoding: 98 98 69
Width: 1343
Flags: W
LayerCount: 2
Fore
SplineSet
801 -23 m 0,0,1
 686 -23 686 -23 606 15 c 128,-1,2
 526 53 526 53 469 128 c 1,3,-1
 468 -3 l 1,4,5
 406 -1 406 -1 347.5 -0.5 c 128,-1,6
 289 0 289 0 230 1 c 0,7,8
 213 1 213 1 182 0.5 c 128,-1,9
 151 0 151 0 121 0 c 2,10,-1
 46 0 l 1,11,-1
 46 159 l 1,12,-1
 101 159 l 1,13,14
 128 160 128 160 142.5 171 c 128,-1,15
 157 182 157 182 164 196.5 c 128,-1,16
 171 211 171 211 172.5 225 c 128,-1,17
 174 239 174 239 174 245 c 2,18,-1
 174 1070 l 2,19,20
 174 1096 174 1096 166 1111.5 c 128,-1,21
 158 1127 158 1127 142 1135 c 128,-1,22
 126 1143 126 1143 101 1145.5 c 128,-1,23
 76 1148 76 1148 43 1148 c 1,24,-1
 43 1308 l 1,25,26
 99 1307 99 1307 158.5 1308.5 c 128,-1,27
 218 1310 218 1310 275 1310 c 1,28,29
 329 1311 329 1311 379.5 1311.5 c 128,-1,30
 430 1312 430 1312 480 1314 c 1,31,-1
 480 808 l 1,32,33
 537 868 537 868 616 900 c 128,-1,34
 695 932 695 932 791 932 c 0,35,36
 894 932 894 932 979.5 899.5 c 128,-1,37
 1065 867 1065 867 1126.5 805 c 128,-1,38
 1188 743 1188 743 1222 654 c 128,-1,39
 1256 565 1256 565 1256 453 c 0,40,41
 1256 351 1256 351 1224.5 264 c 128,-1,42
 1193 177 1193 177 1133.5 113.5 c 128,-1,43
 1074 50 1074 50 990 13.5 c 128,-1,44
 906 -23 906 -23 801 -23 c 0,0,1
708 763 m 0,45,46
 651 763 651 763 606.5 741.5 c 128,-1,47
 562 720 562 720 531.5 680 c 128,-1,48
 501 640 501 640 485.5 582.5 c 128,-1,49
 470 525 470 525 470 454 c 0,50,51
 470 312 470 312 532 232.5 c 128,-1,52
 594 153 594 153 710 153 c 0,53,54
 822 153 822 153 883.5 231.5 c 128,-1,55
 945 310 945 310 945 457 c 0,56,57
 945 529 945 529 928.5 586 c 128,-1,58
 912 643 912 643 881.5 682 c 128,-1,59
 851 721 851 721 807 742 c 128,-1,60
 763 763 763 763 708 763 c 0,45,46
EndSplineSet
EndChar

StartChar: c
Encoding: 99 99 70
Width: 1129
Flags: W
LayerCount: 2
Fore
SplineSet
1021 561 m 1,0,-1
 847 561 l 1,1,2
 833 672 833 672 777.5 724.5 c 128,-1,3
 722 777 722 777 633 777 c 0,4,5
 576 777 576 777 531.5 753.5 c 128,-1,6
 487 730 487 730 456.5 687 c 128,-1,7
 426 644 426 644 410.5 583.5 c 128,-1,8
 395 523 395 523 395 450 c 0,9,10
 395 375 395 375 411.5 320.5 c 128,-1,11
 428 266 428 266 459.5 224 c 128,-1,12
 491 182 491 182 536 159.5 c 128,-1,13
 581 137 581 137 639 137 c 0,14,15
 725 137 725 137 776 186 c 128,-1,16
 827 235 827 235 842 315 c 1,17,-1
 1055 288 l 1,18,19
 1041 212 1041 212 1003 153 c 128,-1,20
 965 94 965 94 906.5 57 c 128,-1,21
 848 20 848 20 770.5 -1.5 c 128,-1,22
 693 -23 693 -23 600 -23 c 0,23,24
 482 -23 482 -23 386 11 c 128,-1,25
 290 45 290 45 222.5 104 c 128,-1,26
 155 163 155 163 118 251 c 128,-1,27
 81 339 81 339 81 448 c 0,28,29
 81 553 81 553 118.5 641 c 128,-1,30
 156 729 156 729 220 792.5 c 128,-1,31
 284 856 284 856 369.5 891.5 c 128,-1,32
 455 927 455 927 552 927 c 0,33,34
 627 927 627 927 698.5 906.5 c 128,-1,35
 770 886 770 886 827 835 c 1,36,-1
 839 910 l 1,37,38
 857 909 857 909 880.5 908 c 128,-1,39
 904 907 904 907 928.5 906 c 128,-1,40
 953 905 953 905 977 903.5 c 128,-1,41
 1001 902 1001 902 1021 900 c 1,42,-1
 1021 561 l 1,0,-1
EndSplineSet
EndChar

StartChar: d
Encoding: 100 100 71
Width: 1346
Flags: W
LayerCount: 2
Fore
SplineSet
1164 223 m 2,0,1
 1164 195 1164 195 1181 177.5 c 128,-1,2
 1198 160 1198 160 1246 159 c 1,3,-1
 1295 159 l 1,4,-1
 1293 0 l 1,5,6
 1253 0 1253 0 1208 0.5 c 128,-1,7
 1163 1 1163 1 1121 1 c 0,8,9
 1058 0 1058 0 995.5 -0.5 c 128,-1,10
 933 -1 933 -1 870 -3 c 1,11,12
 870 4 870 4 870 20.5 c 128,-1,13
 870 37 870 37 870 56.5 c 128,-1,14
 870 76 870 76 869.5 95 c 128,-1,15
 869 114 869 114 869 127 c 1,16,17
 821 59 821 59 737 18 c 128,-1,18
 653 -23 653 -23 536 -23 c 0,19,20
 434 -23 434 -23 350.5 11.5 c 128,-1,21
 267 46 267 46 208 108.5 c 128,-1,22
 149 171 149 171 116.5 258.5 c 128,-1,23
 84 346 84 346 84 452 c 0,24,25
 84 564 84 564 117.5 653 c 128,-1,26
 151 742 151 742 212 804 c 128,-1,27
 273 866 273 866 359.5 898.5 c 128,-1,28
 446 931 446 931 551 931 c 0,29,30
 648 931 648 931 723.5 899.5 c 128,-1,31
 799 868 799 868 857 808 c 1,32,-1
 858 1085 l 2,33,34
 858 1106 858 1106 851 1118.5 c 128,-1,35
 844 1131 844 1131 831.5 1137.5 c 128,-1,36
 819 1144 819 1144 800.5 1146 c 128,-1,37
 782 1148 782 1148 758 1148 c 1,38,39
 747 1149 747 1149 735.5 1148.5 c 128,-1,40
 724 1148 724 1148 712 1148 c 1,41,-1
 712 1308 l 1,42,43
 766 1307 766 1307 818.5 1308.5 c 128,-1,44
 871 1310 871 1310 936 1310 c 1,45,46
 997 1311 997 1311 1053 1311.5 c 128,-1,47
 1109 1312 1109 1312 1164 1314 c 1,48,-1
 1164 223 l 2,0,1
630 763 m 0,49,50
 574 763 574 763 530.5 741.5 c 128,-1,51
 487 720 487 720 457 680.5 c 128,-1,52
 427 641 427 641 411 584 c 128,-1,53
 395 527 395 527 395 455 c 0,54,55
 395 384 395 384 410.5 328 c 128,-1,56
 426 272 426 272 456 233 c 128,-1,57
 486 194 486 194 529.5 173.5 c 128,-1,58
 573 153 573 153 629 153 c 0,59,60
 688 153 688 153 733 174 c 128,-1,61
 778 195 778 195 808 234.5 c 128,-1,62
 838 274 838 274 853 330 c 128,-1,63
 868 386 868 386 868 455 c 0,64,65
 868 525 868 525 851.5 582 c 128,-1,66
 835 639 835 639 804 679 c 128,-1,67
 773 719 773 719 729 741 c 128,-1,68
 685 763 685 763 630 763 c 0,49,50
EndSplineSet
EndChar

StartChar: e
Encoding: 101 101 72
Width: 1198
Flags: W
LayerCount: 2
Fore
SplineSet
1068 415 m 1,0,-1
 388 415 l 1,1,2
 389 272 389 272 458 204.5 c 128,-1,3
 527 137 527 137 647 137 c 0,4,5
 732 137 732 137 790.5 176 c 128,-1,6
 849 215 849 215 874 270 c 1,7,-1
 1102 252 l 1,8,9
 1062 115 1062 115 937.5 46 c 128,-1,10
 813 -23 813 -23 624 -23 c 0,11,12
 486 -23 486 -23 384 13 c 128,-1,13
 282 49 282 49 214 110 c 128,-1,14
 146 171 146 171 112.5 259 c 128,-1,15
 79 347 79 347 79 451 c 0,16,17
 79 562 79 562 116.5 652 c 128,-1,18
 154 742 154 742 223 805 c 128,-1,19
 292 868 292 868 389 902 c 128,-1,20
 486 936 486 936 605 936 c 0,21,22
 720 936 720 936 815 903.5 c 128,-1,23
 910 871 910 871 978 806.5 c 128,-1,24
 1046 742 1046 742 1084 646 c 128,-1,25
 1122 550 1122 550 1122 423 c 1,26,-1
 1068 415 l 1,0,-1
836 545 m 1,27,-1
 836 552 l 2,28,29
 836 555 836 555 835.5 558.5 c 128,-1,30
 835 562 835 562 835 566 c 0,31,32
 826 672 826 672 769 730.5 c 128,-1,33
 712 789 712 789 619 789 c 0,34,35
 516 789 516 789 457.5 724 c 128,-1,36
 399 659 399 659 391 546 c 1,37,-1
 836 546 l 1,38,-1
 836 545 l 1,27,-1
EndSplineSet
EndChar

StartChar: f
Encoding: 102 102 73
Width: 745
Flags: W
LayerCount: 2
Fore
SplineSet
850 1066 m 1,0,-1
 742 1066 l 1,1,2
 737 1114 737 1114 708.5 1144.5 c 128,-1,3
 680 1175 680 1175 630 1175 c 0,4,5
 586 1175 586 1175 560.5 1159.5 c 128,-1,6
 535 1144 535 1144 522 1116 c 128,-1,7
 509 1088 509 1088 505 1048.5 c 128,-1,8
 501 1009 501 1009 501 962 c 2,9,-1
 501 908 l 1,10,-1
 714 908 l 1,11,-1
 714 748 l 1,12,-1
 501 748 l 1,13,-1
 501 239 l 2,14,15
 501 210 501 210 512 194.5 c 128,-1,16
 523 179 523 179 543.5 171.5 c 128,-1,17
 564 164 564 164 594 163 c 128,-1,18
 624 162 624 162 663 162 c 1,19,-1
 663 0 l 1,20,21
 604 0 604 0 543 1 c 0,22,23
 491 1 491 1 430 1.5 c 128,-1,24
 369 2 369 2 313 2 c 0,25,26
 273 2 273 2 229 1.5 c 128,-1,27
 185 1 185 1 148 1 c 0,28,29
 105 0 105 0 63 0 c 1,30,-1
 63 77 l 2,31,32
 63 92 63 92 63 106 c 128,-1,33
 63 120 63 120 63.5 132 c 128,-1,34
 64 144 64 144 64 152 c 128,-1,35
 64 160 64 160 64 162 c 1,36,37
 104 162 104 162 129.5 164 c 128,-1,38
 155 166 155 166 169.5 174 c 128,-1,39
 184 182 184 182 189.5 198 c 128,-1,40
 195 214 195 214 195 242 c 2,41,-1
 195 748 l 1,42,-1
 53 748 l 1,43,-1
 53 908 l 1,44,-1
 195 908 l 1,45,-1
 195 971 l 2,46,47
 195 1157 195 1157 293.5 1247 c 128,-1,48
 392 1337 392 1337 583 1337 c 0,49,50
 616 1337 616 1337 652.5 1335 c 128,-1,51
 689 1333 689 1333 726 1329.5 c 128,-1,52
 763 1326 763 1326 799 1320.5 c 128,-1,53
 835 1315 835 1315 868 1309 c 1,54,-1
 850 1066 l 1,0,-1
EndSplineSet
EndChar

StartChar: g
Encoding: 103 103 74
Width: 1327
Flags: W
LayerCount: 2
Fore
SplineSet
630 756 m 0,0,1
 575 756 575 756 530.5 734.5 c 128,-1,2
 486 713 486 713 455 673.5 c 128,-1,3
 424 634 424 634 407.5 578 c 128,-1,4
 391 522 391 522 391 453 c 0,5,6
 391 386 391 386 407.5 332 c 128,-1,7
 424 278 424 278 455.5 240 c 128,-1,8
 487 202 487 202 532 181.5 c 128,-1,9
 577 161 577 161 633 161 c 256,10,11
 689 161 689 161 733.5 181.5 c 128,-1,12
 778 202 778 202 809 241 c 128,-1,13
 840 280 840 280 856.5 335.5 c 128,-1,14
 873 391 873 391 873 462 c 0,15,16
 873 528 873 528 856.5 582 c 128,-1,17
 840 636 840 636 809 675 c 128,-1,18
 778 714 778 714 732.5 735 c 128,-1,19
 687 756 687 756 630 756 c 0,0,1
883 911 m 1,20,21
 944 909 944 909 1005 907.5 c 128,-1,22
 1066 906 1066 906 1130 906 c 0,23,24
 1183 906 1183 906 1221.5 906.5 c 128,-1,25
 1260 907 1260 907 1299 908 c 1,26,-1
 1299 747 l 1,27,28
 1283 747 1283 747 1274 747.5 c 128,-1,29
 1265 748 1265 748 1255 747 c 1,30,31
 1228 747 1228 747 1211 742 c 128,-1,32
 1194 737 1194 737 1184.5 725 c 128,-1,33
 1175 713 1175 713 1171.5 692.5 c 128,-1,34
 1168 672 1168 672 1168 641 c 2,35,-1
 1168 69 l 2,36,37
 1168 -74 1168 -74 1132 -170 c 128,-1,38
 1096 -266 1096 -266 1025 -323.5 c 128,-1,39
 954 -381 954 -381 849 -405 c 128,-1,40
 744 -429 744 -429 606 -429 c 0,41,42
 547 -429 547 -429 487 -423.5 c 128,-1,43
 427 -418 427 -418 369.5 -407.5 c 128,-1,44
 312 -397 312 -397 257.5 -381 c 128,-1,45
 203 -365 203 -365 156 -345 c 1,46,-1
 195 -99 l 1,47,48
 210 -104 210 -104 240.5 -106 c 128,-1,49
 271 -108 271 -108 302 -110 c 0,50,51
 338 -112 338 -112 379 -113 c 1,52,53
 385 -158 385 -158 402.5 -188 c 128,-1,54
 420 -218 420 -218 448 -235.5 c 128,-1,55
 476 -253 476 -253 514.5 -260 c 128,-1,56
 553 -267 553 -267 603 -267 c 0,57,58
 660 -267 660 -267 708 -251.5 c 128,-1,59
 756 -236 756 -236 790.5 -200.5 c 128,-1,60
 825 -165 825 -165 844.5 -109 c 128,-1,61
 864 -53 864 -53 865 28 c 1,62,-1
 865 128 l 1,63,64
 803 68 803 68 720.5 39.5 c 128,-1,65
 638 11 638 11 539 11 c 0,66,67
 434 11 434 11 349 42 c 128,-1,68
 264 73 264 73 204 130.5 c 128,-1,69
 144 188 144 188 111.5 271 c 128,-1,70
 79 354 79 354 79 458 c 0,71,72
 79 566 79 566 112.5 653 c 128,-1,73
 146 740 146 740 207.5 801.5 c 128,-1,74
 269 863 269 863 354.5 896.5 c 128,-1,75
 440 930 440 930 544 930 c 0,76,77
 662 930 662 930 745.5 888.5 c 128,-1,78
 829 847 829 847 883 778 c 1,79,-1
 883 911 l 1,20,21
EndSplineSet
EndChar

StartChar: h
Encoding: 104 104 75
Width: 1336
Flags: W
LayerCount: 2
Fore
SplineSet
865 515 m 2,0,1
 865 566 865 566 859 610.5 c 128,-1,2
 853 655 853 655 836 687.5 c 128,-1,3
 819 720 819 720 788 738.5 c 128,-1,4
 757 757 757 757 708 757 c 0,5,6
 653 757 653 757 613 741 c 128,-1,7
 573 725 573 725 545.5 697.5 c 128,-1,8
 518 670 518 670 502 633.5 c 128,-1,9
 486 597 486 597 479 556 c 1,10,-1
 479 222 l 2,11,12
 479 199 479 199 487 187 c 128,-1,13
 495 175 495 175 511.5 169.5 c 128,-1,14
 528 164 528 164 554 163 c 128,-1,15
 580 162 580 162 617 162 c 1,16,-1
 617 0 l 1,17,18
 577 0 577 0 540.5 0 c 128,-1,19
 504 0 504 0 465.5 0.5 c 128,-1,20
 427 1 427 1 385 1.5 c 128,-1,21
 343 2 343 2 292 2 c 0,22,23
 253 2 253 2 219.5 1.5 c 128,-1,24
 186 1 186 1 155.5 1 c 128,-1,25
 125 1 125 1 96 0.5 c 128,-1,26
 67 0 67 0 37 0 c 1,27,-1
 37 162 l 1,28,29
 83 162 83 162 110 164 c 128,-1,30
 137 166 137 166 151 173.5 c 128,-1,31
 165 181 165 181 169 196.5 c 128,-1,32
 173 212 173 212 173 239 c 2,33,-1
 173 1092 l 2,34,35
 173 1111 173 1111 166 1122.5 c 128,-1,36
 159 1134 159 1134 146.5 1140 c 128,-1,37
 134 1146 134 1146 117 1148 c 128,-1,38
 100 1150 100 1150 79 1150 c 2,39,-1
 43 1150 l 1,40,-1
 43 1308 l 1,41,42
 96 1307 96 1307 152.5 1308 c 128,-1,43
 209 1309 209 1309 263 1309 c 0,44,45
 315 1309 315 1309 368 1310 c 128,-1,46
 421 1311 421 1311 478 1314 c 1,47,-1
 478 780 l 1,48,49
 548 857 548 857 638 893 c 128,-1,50
 728 929 728 929 838 929 c 0,51,52
 929 929 929 929 992.5 902.5 c 128,-1,53
 1056 876 1056 876 1095.5 821 c 128,-1,54
 1135 766 1135 766 1153 680.5 c 128,-1,55
 1171 595 1171 595 1171 477 c 2,56,-1
 1171 250 l 2,57,58
 1171 220 1171 220 1175 202.5 c 128,-1,59
 1179 185 1179 185 1189.5 176 c 128,-1,60
 1200 167 1200 167 1217 164.5 c 128,-1,61
 1234 162 1234 162 1260 162 c 2,62,-1
 1295 162 l 1,63,-1
 1295 0 l 1,64,65
 1263 0 1263 0 1233 0 c 128,-1,66
 1203 0 1203 0 1171 0.5 c 128,-1,67
 1139 1 1139 1 1104 1.5 c 128,-1,68
 1069 2 1069 2 1027 2 c 0,69,70
 984 2 984 2 947 1.5 c 128,-1,71
 910 1 910 1 876 1 c 128,-1,72
 842 1 842 1 810 0.5 c 128,-1,73
 778 0 778 0 745 0 c 1,74,-1
 745 162 l 1,75,76
 784 162 784 162 807.5 168.5 c 128,-1,77
 831 175 831 175 844 187 c 128,-1,78
 857 199 857 199 861 216.5 c 128,-1,79
 865 234 865 234 865 255 c 2,80,-1
 865 515 l 2,0,1
EndSplineSet
EndChar

StartChar: i
Encoding: 105 105 76
Width: 655
Flags: W
LayerCount: 2
Fore
SplineSet
315 1335 m 0,0,1
 352 1335 352 1335 383.5 1326.5 c 128,-1,2
 415 1318 415 1318 438.5 1302.5 c 128,-1,3
 462 1287 462 1287 475 1264 c 128,-1,4
 488 1241 488 1241 488 1213 c 0,5,6
 488 1157 488 1157 441.5 1123 c 128,-1,7
 395 1089 395 1089 315 1089 c 0,8,9
 237 1089 237 1089 190 1120 c 128,-1,10
 143 1151 143 1151 143 1213 c 0,11,12
 143 1268 143 1268 190 1301.5 c 128,-1,13
 237 1335 237 1335 315 1335 c 0,0,1
486 254 m 2,14,15
 486 223 486 223 490.5 205 c 128,-1,16
 495 187 495 187 507.5 177.5 c 128,-1,17
 520 168 520 168 543 165 c 128,-1,18
 566 162 566 162 603 162 c 1,19,-1
 603 0 l 1,20,21
 569 0 569 0 527.5 0.5 c 128,-1,22
 486 1 486 1 443.5 1 c 128,-1,23
 401 1 401 1 361.5 1.5 c 128,-1,24
 322 2 322 2 292 2 c 0,25,26
 256 2 256 2 225 1.5 c 128,-1,27
 194 1 194 1 166 1 c 128,-1,28
 138 1 138 1 111 0.5 c 128,-1,29
 84 0 84 0 56 0 c 1,30,-1
 56 162 l 1,31,32
 98 162 98 162 122.5 164.5 c 128,-1,33
 147 167 147 167 160 176.5 c 128,-1,34
 173 186 173 186 177 204 c 128,-1,35
 181 222 181 222 181 254 c 2,36,-1
 181 692 l 2,37,38
 181 713 181 713 174 724 c 128,-1,39
 167 735 167 735 152 740.5 c 128,-1,40
 137 746 137 746 114.5 747 c 128,-1,41
 92 748 92 748 61 748 c 1,42,43
 61 789 61 789 61.5 828 c 128,-1,44
 62 867 62 867 62 908 c 1,45,46
 104 908 104 908 142 907.5 c 128,-1,47
 180 907 180 907 216 907 c 0,48,49
 281 907 281 907 348.5 908 c 128,-1,50
 416 909 416 909 486 912 c 1,51,-1
 486 254 l 2,14,15
EndSplineSet
EndChar

StartChar: j
Encoding: 106 106 77
Width: 645
Flags: W
LayerCount: 2
Fore
SplineSet
496 89 m 2,0,1
 496 -34 496 -34 483.5 -126.5 c 128,-1,2
 471 -219 471 -219 434.5 -281.5 c 128,-1,3
 398 -344 398 -344 330.5 -377 c 128,-1,4
 263 -410 263 -410 152 -413 c 1,5,6
 90 -413 90 -413 28 -407 c 128,-1,7
 -34 -401 -34 -401 -83 -389 c 1,8,-1
 -83 -161 l 1,9,10
 -79 -161 -79 -161 -69.5 -161.5 c 128,-1,11
 -60 -162 -60 -162 -48.5 -162 c 128,-1,12
 -37 -162 -37 -162 -24.5 -161.5 c 128,-1,13
 -12 -161 -12 -161 -3 -161 c 1,14,15
 5 -210 5 -210 22 -229 c 128,-1,16
 39 -248 39 -248 68 -248 c 0,17,18
 108 -248 108 -248 132.5 -231.5 c 128,-1,19
 157 -215 157 -215 169.5 -177.5 c 128,-1,20
 182 -140 182 -140 186 -79 c 128,-1,21
 190 -18 190 -18 190 70 c 2,22,-1
 190 667 l 2,23,24
 190 692 190 692 185 707.5 c 128,-1,25
 180 723 180 723 166.5 732 c 128,-1,26
 153 741 153 741 130 744.5 c 128,-1,27
 107 748 107 748 71 748 c 1,28,-1
 71 908 l 1,29,30
 131 907 131 907 181.5 907 c 128,-1,31
 232 907 232 907 283 907 c 0,32,33
 335 907 335 907 388 908 c 128,-1,34
 441 909 441 909 496 912 c 1,35,-1
 496 89 l 2,0,1
319 1335 m 0,36,37
 397 1335 397 1335 444.5 1303 c 128,-1,38
 492 1271 492 1271 492 1213 c 0,39,40
 492 1154 492 1154 444.5 1121.5 c 128,-1,41
 397 1089 397 1089 319 1089 c 0,42,43
 239 1089 239 1089 193.5 1120 c 128,-1,44
 148 1151 148 1151 148 1213 c 0,45,46
 148 1242 148 1242 161 1264.5 c 128,-1,47
 174 1287 174 1287 197 1303 c 128,-1,48
 220 1319 220 1319 251 1327 c 128,-1,49
 282 1335 282 1335 319 1335 c 0,36,37
EndSplineSet
EndChar

StartChar: k
Encoding: 107 107 78
Width: 1268
Flags: W
LayerCount: 2
Fore
SplineSet
37 163 m 1,0,1
 79 164 79 164 105.5 167.5 c 128,-1,2
 132 171 132 171 147 180 c 128,-1,3
 162 189 162 189 167.5 204 c 128,-1,4
 173 219 173 219 173 243 c 2,5,-1
 173 1083 l 2,6,7
 173 1108 173 1108 163.5 1121.5 c 128,-1,8
 154 1135 154 1135 136.5 1141 c 128,-1,9
 119 1147 119 1147 95 1147.5 c 128,-1,10
 71 1148 71 1148 42 1148 c 1,11,-1
 42 1308 l 1,12,13
 46 1308 46 1308 57.5 1308 c 128,-1,14
 69 1308 69 1308 85 1308 c 128,-1,15
 101 1308 101 1308 120 1308.5 c 128,-1,16
 139 1309 139 1309 159 1309 c 0,17,18
 205 1310 205 1310 260 1310 c 0,19,20
 318 1310 318 1310 368.5 1311 c 128,-1,21
 419 1312 419 1312 477 1314 c 1,22,-1
 477 481 l 1,23,-1
 695 651 l 2,24,25
 719 669 719 669 741.5 688.5 c 128,-1,26
 764 708 764 708 781.5 724 c 128,-1,27
 799 740 799 740 809.5 751 c 128,-1,28
 820 762 820 762 820 764 c 0,29,30
 820 767 820 767 807 768 c 128,-1,31
 794 769 794 769 776.5 770 c 128,-1,32
 759 771 759 771 741 771 c 128,-1,33
 723 771 723 771 714 771 c 1,34,-1
 716 908 l 1,35,36
 782 906 782 906 830.5 906 c 128,-1,37
 879 906 879 906 924 906 c 0,38,39
 955 906 955 906 986.5 906 c 128,-1,40
 1018 906 1018 906 1052.5 906 c 128,-1,41
 1087 906 1087 906 1125.5 906.5 c 128,-1,42
 1164 907 1164 907 1209 908 c 1,43,-1
 1209 760 l 1,44,-1
 1181 760 l 2,45,46
 1170 760 1170 760 1159.5 760.5 c 128,-1,47
 1149 761 1149 761 1145 761 c 0,48,49
 1121 761 1121 761 1104 758 c 128,-1,50
 1087 755 1087 755 1070 747 c 128,-1,51
 1053 739 1053 739 1033 725.5 c 128,-1,52
 1013 712 1013 712 985 690 c 2,53,-1
 775 528 l 1,54,-1
 1056 236 l 1,55,56
 1093 192 1093 192 1125 178 c 128,-1,57
 1157 164 1157 164 1199 163 c 1,58,-1
 1254 163 l 1,59,-1
 1254 0 l 1,60,61
 1221 0 1221 0 1178.5 0.5 c 128,-1,62
 1136 1 1136 1 1095.5 1 c 128,-1,63
 1055 1 1055 1 1022.5 1.5 c 128,-1,64
 990 2 990 2 977 2 c 0,65,66
 894 2 894 2 829.5 1 c 128,-1,67
 765 0 765 0 697 0 c 1,68,-1
 697 163 l 1,69,70
 704 163 704 163 713.5 163 c 128,-1,71
 723 163 723 163 731.5 163.5 c 128,-1,72
 740 164 740 164 747 164.5 c 128,-1,73
 754 165 754 165 757 165 c 0,74,75
 783 168 783 168 783 176 c 0,76,77
 783 182 783 182 775.5 190 c 128,-1,78
 768 198 768 198 757 208 c 1,79,-1
 564 412 l 1,80,-1
 478 351 l 1,81,-1
 478 231 l 2,82,83
 478 211 478 211 481 198 c 128,-1,84
 484 185 484 185 496.5 177.5 c 128,-1,85
 509 170 509 170 533.5 166.5 c 128,-1,86
 558 163 558 163 600 163 c 1,87,-1
 600 0 l 1,88,89
 570 0 570 0 534.5 0 c 128,-1,90
 499 0 499 0 460.5 0.5 c 128,-1,91
 422 1 422 1 382.5 1.5 c 128,-1,92
 343 2 343 2 306 2 c 0,93,94
 280 2 280 2 246 1.5 c 128,-1,95
 212 1 212 1 175 1 c 128,-1,96
 138 1 138 1 102 0.5 c 128,-1,97
 66 0 66 0 37 0 c 1,98,-1
 37 163 l 1,0,1
EndSplineSet
EndChar

StartChar: l
Encoding: 108 108 79
Width: 650
Flags: W
LayerCount: 2
Fore
SplineSet
478 265 m 2,0,1
 478 233 478 233 483 213 c 128,-1,2
 488 193 488 193 501.5 182 c 128,-1,3
 515 171 515 171 538.5 166.5 c 128,-1,4
 562 162 562 162 599 162 c 1,5,-1
 599 0 l 1,6,7
 565 0 565 0 532 0 c 128,-1,8
 499 0 499 0 464.5 0.5 c 128,-1,9
 430 1 430 1 392 1.5 c 128,-1,10
 354 2 354 2 311 2 c 0,11,12
 231 2 231 2 170 1 c 128,-1,13
 109 0 109 0 47 0 c 1,14,-1
 47 162 l 1,15,16
 94 162 94 162 119.5 168 c 128,-1,17
 145 174 145 174 157 188.5 c 128,-1,18
 169 203 169 203 171 227 c 128,-1,19
 173 251 173 251 173 287 c 2,20,-1
 173 1078 l 2,21,22
 173 1102 173 1102 165.5 1116 c 128,-1,23
 158 1130 158 1130 142.5 1137 c 128,-1,24
 127 1144 127 1144 104.5 1146 c 128,-1,25
 82 1148 82 1148 52 1148 c 1,26,-1
 52 1308 l 1,27,28
 68 1308 68 1308 101 1308 c 128,-1,29
 134 1308 134 1308 170 1308.5 c 128,-1,30
 206 1309 206 1309 236 1309.5 c 128,-1,31
 266 1310 266 1310 276 1310 c 0,32,33
 326 1310 326 1310 375 1311 c 128,-1,34
 424 1312 424 1312 478 1314 c 1,35,-1
 478 265 l 2,0,1
EndSplineSet
EndChar

StartChar: m
Encoding: 109 109 80
Width: 2007
Flags: W
LayerCount: 2
Fore
SplineSet
854 508 m 2,0,1
 854 566 854 566 846.5 609 c 128,-1,2
 839 652 839 652 822 680.5 c 128,-1,3
 805 709 805 709 775.5 723.5 c 128,-1,4
 746 738 746 738 703 738 c 0,5,6
 641 738 641 738 595 716.5 c 128,-1,7
 549 695 549 695 510 644 c 1,8,9
 499 627 499 627 492 584 c 128,-1,10
 485 541 485 541 485 475 c 2,11,-1
 485 244 l 2,12,13
 485 214 485 214 492 197.5 c 128,-1,14
 499 181 499 181 515 173.5 c 128,-1,15
 531 166 531 166 557 164 c 128,-1,16
 583 162 583 162 621 162 c 1,17,-1
 621 0 l 1,18,19
 584 0 584 0 550 0 c 128,-1,20
 516 0 516 0 480 0.5 c 128,-1,21
 444 1 444 1 404 1.5 c 128,-1,22
 364 2 364 2 316 2 c 0,23,24
 275 2 275 2 240.5 1.5 c 128,-1,25
 206 1 206 1 174.5 1 c 128,-1,26
 143 1 143 1 112.5 0.5 c 128,-1,27
 82 0 82 0 51 0 c 1,28,-1
 51 162 l 1,29,30
 94 162 94 162 119.5 165 c 128,-1,31
 145 168 145 168 158.5 176.5 c 128,-1,32
 172 185 172 185 176 200.5 c 128,-1,33
 180 216 180 216 180 241 c 2,34,-1
 180 691 l 2,35,36
 180 730 180 730 149 739 c 128,-1,37
 118 748 118 748 56 748 c 1,38,-1
 56 908 l 1,39,40
 85 908 85 908 111.5 907 c 128,-1,41
 138 906 138 906 166 906 c 0,42,43
 244 906 244 906 319 907.5 c 128,-1,44
 394 909 394 909 475 911 c 1,45,-1
 475 753 l 1,46,47
 501 789 501 789 538 820.5 c 128,-1,48
 575 852 575 852 622.5 876 c 128,-1,49
 670 900 670 900 726.5 914 c 128,-1,50
 783 928 783 928 848 928 c 0,51,52
 954 928 954 928 1028 883 c 128,-1,53
 1102 838 1102 838 1140 747 c 1,54,55
 1217 833 1217 833 1312 880.5 c 128,-1,56
 1407 928 1407 928 1516 928 c 0,57,58
 1607 928 1607 928 1667.5 899.5 c 128,-1,59
 1728 871 1728 871 1765 816.5 c 128,-1,60
 1802 762 1802 762 1817.5 681.5 c 128,-1,61
 1833 601 1833 601 1833 496 c 2,62,-1
 1833 222 l 2,63,64
 1833 200 1833 200 1839.5 188 c 128,-1,65
 1846 176 1846 176 1860.5 170.5 c 128,-1,66
 1875 165 1875 165 1898.5 163.5 c 128,-1,67
 1922 162 1922 162 1956 162 c 1,68,-1
 1956 0 l 1,69,70
 1892 0 1892 0 1829 1 c 128,-1,71
 1766 2 1766 2 1687 2 c 0,72,73
 1609 2 1609 2 1542.5 1 c 128,-1,74
 1476 0 1476 0 1407 0 c 1,75,-1
 1407 162 l 1,76,77
 1442 162 1442 162 1465.5 166.5 c 128,-1,78
 1489 171 1489 171 1502.5 181 c 128,-1,79
 1516 191 1516 191 1521.5 209 c 128,-1,80
 1527 227 1527 227 1527 254 c 2,81,-1
 1527 530 l 2,82,83
 1527 632 1527 632 1494 685 c 128,-1,84
 1461 738 1461 738 1374 738 c 0,85,86
 1305 738 1305 738 1258.5 710.5 c 128,-1,87
 1212 683 1212 683 1180 640 c 1,88,89
 1169 609 1169 609 1164.5 572 c 128,-1,90
 1160 535 1160 535 1160 491 c 2,91,-1
 1160 226 l 2,92,93
 1160 205 1160 205 1166 192.5 c 128,-1,94
 1172 180 1172 180 1185.5 173 c 128,-1,95
 1199 166 1199 166 1222 164 c 128,-1,96
 1245 162 1245 162 1279 162 c 1,97,-1
 1279 0 l 1,98,99
 1246 0 1246 0 1214.5 0 c 128,-1,100
 1183 0 1183 0 1150 0.5 c 128,-1,101
 1117 1 1117 1 1080 1.5 c 128,-1,102
 1043 2 1043 2 998 2 c 0,103,104
 959 2 959 2 925 1.5 c 128,-1,105
 891 1 891 1 860.5 1 c 128,-1,106
 830 1 830 1 800.5 0.5 c 128,-1,107
 771 0 771 0 741 0 c 1,108,-1
 741 162 l 1,109,110
 807 163 807 163 830.5 184 c 128,-1,111
 854 205 854 205 854 247 c 2,112,-1
 854 508 l 2,0,1
EndSplineSet
EndChar

StartChar: n
Encoding: 110 110 81
Width: 1341
Flags: W
LayerCount: 2
Fore
SplineSet
42 0 m 1,0,1
 42 2 42 2 42 14.5 c 128,-1,2
 42 27 42 27 42 44 c 128,-1,3
 42 61 42 61 41.5 81 c 128,-1,4
 41 101 41 101 41 118 c 128,-1,5
 41 135 41 135 41 147 c 128,-1,6
 41 159 41 159 41 162 c 1,7,8
 84 162 84 162 111 164 c 128,-1,9
 138 166 138 166 153 174 c 128,-1,10
 168 182 168 182 173.5 198 c 128,-1,11
 179 214 179 214 179 243 c 2,12,-1
 179 697 l 2,13,14
 179 716 179 716 171 726.5 c 128,-1,15
 163 737 163 737 146.5 741.5 c 128,-1,16
 130 746 130 746 105 747 c 128,-1,17
 80 748 80 748 47 748 c 1,18,-1
 47 908 l 1,19,20
 90 908 90 908 129 907.5 c 128,-1,21
 168 907 168 907 204 907 c 0,22,23
 273 907 273 907 338 908 c 128,-1,24
 403 909 403 909 475 912 c 1,25,-1
 475 762 l 1,26,27
 503 795 503 795 540 824.5 c 128,-1,28
 577 854 577 854 622 876.5 c 128,-1,29
 667 899 667 899 720 912.5 c 128,-1,30
 773 926 773 926 833 928 c 1,31,32
 918 928 918 928 982.5 907 c 128,-1,33
 1047 886 1047 886 1090.5 841 c 128,-1,34
 1134 796 1134 796 1156 725 c 128,-1,35
 1178 654 1178 654 1178 555 c 2,36,-1
 1178 222 l 2,37,38
 1178 197 1178 197 1186 185 c 128,-1,39
 1194 173 1194 173 1209.5 168 c 128,-1,40
 1225 163 1225 163 1248 162.5 c 128,-1,41
 1271 162 1271 162 1301 162 c 1,42,-1
 1301 0 l 1,43,44
 1270 0 1270 0 1241 0 c 128,-1,45
 1212 0 1212 0 1181 0.5 c 128,-1,46
 1150 1 1150 1 1115 1.5 c 128,-1,47
 1080 2 1080 2 1038 2 c 0,48,49
 960 2 960 2 890.5 1 c 128,-1,50
 821 0 821 0 752 0 c 1,51,-1
 752 162 l 1,52,53
 797 162 797 162 821.5 164.5 c 128,-1,54
 846 167 846 167 857 175 c 128,-1,55
 868 183 868 183 870 198 c 128,-1,56
 872 213 872 213 872 238 c 2,57,-1
 872 512 l 2,58,59
 872 567 872 567 864 609 c 128,-1,60
 856 651 856 651 837 679 c 128,-1,61
 818 707 818 707 786 721.5 c 128,-1,62
 754 736 754 736 707 736 c 0,63,64
 667 736 667 736 634.5 727.5 c 128,-1,65
 602 719 602 719 576.5 705.5 c 128,-1,66
 551 692 551 692 532 674 c 128,-1,67
 513 656 513 656 500 638 c 1,68,69
 489 606 489 606 486.5 567.5 c 128,-1,70
 484 529 484 529 484 484 c 2,71,-1
 484 238 l 2,72,73
 484 209 484 209 492 194 c 128,-1,74
 500 179 500 179 517 172 c 128,-1,75
 534 165 534 165 561 163.5 c 128,-1,76
 588 162 588 162 626 162 c 1,77,-1
 626 0 l 1,78,79
 589 0 589 0 555 0 c 128,-1,80
 521 0 521 0 484.5 0.5 c 128,-1,81
 448 1 448 1 407.5 1.5 c 128,-1,82
 367 2 367 2 318 2 c 0,83,84
 235 2 235 2 170.5 1 c 128,-1,85
 106 0 106 0 42 0 c 1,0,1
EndSplineSet
EndChar

StartChar: o
Encoding: 111 111 82
Width: 1256
Flags: W
LayerCount: 2
Fore
SplineSet
628 936 m 0,0,1
 739 936 739 936 839 905 c 128,-1,2
 939 874 939 874 1014 813 c 128,-1,3
 1089 752 1089 752 1133 661.5 c 128,-1,4
 1177 571 1177 571 1177 453 c 0,5,6
 1177 338 1177 338 1134 248 c 128,-1,7
 1091 158 1091 158 1017 100 c 128,-1,8
 943 42 943 42 843 9.5 c 128,-1,9
 743 -23 743 -23 628 -23 c 0,10,11
 512 -23 512 -23 412 9 c 128,-1,12
 312 41 312 41 237.5 99 c 128,-1,13
 163 157 163 157 120.5 247 c 128,-1,14
 78 337 78 337 78 453 c 0,15,16
 78 567 78 567 120 657 c 128,-1,17
 162 747 162 747 236 809 c 128,-1,18
 310 871 310 871 410.5 903.5 c 128,-1,19
 511 936 511 936 628 936 c 0,0,1
629 771 m 0,20,21
 515 771 515 771 453 687 c 128,-1,22
 391 603 391 603 391 454 c 0,23,24
 391 304 391 304 452 220.5 c 128,-1,25
 513 137 513 137 626 137 c 0,26,27
 682 137 682 137 726 159 c 128,-1,28
 770 181 770 181 801 222 c 128,-1,29
 832 263 832 263 848 323 c 128,-1,30
 864 383 864 383 864 458 c 0,31,32
 864 531 864 531 848 589 c 128,-1,33
 832 647 832 647 802 687.5 c 128,-1,34
 772 728 772 728 728 749.5 c 128,-1,35
 684 771 684 771 629 771 c 0,20,21
EndSplineSet
EndChar

StartChar: p
Encoding: 112 112 83
Width: 1342
Flags: W
LayerCount: 2
Fore
SplineSet
705 754 m 0,0,1
 591 754 591 754 528.5 674.5 c 128,-1,2
 466 595 466 595 466 455 c 0,3,4
 466 311 466 311 528 229 c 128,-1,5
 590 147 590 147 705 147 c 0,6,7
 759 147 759 147 803.5 166.5 c 128,-1,8
 848 186 848 186 879.5 225 c 128,-1,9
 911 264 911 264 928.5 322 c 128,-1,10
 946 380 946 380 946 457 c 0,11,12
 946 598 946 598 883 676 c 128,-1,13
 820 754 820 754 705 754 c 0,0,1
41 -253 m 1,14,15
 84 -252 84 -252 111 -248.5 c 128,-1,16
 138 -245 138 -245 154 -238 c 1,17,18
 163 -219 163 -219 166.5 -200 c 128,-1,19
 170 -181 170 -181 170 -154 c 2,20,-1
 170 681 l 2,21,22
 170 706 170 706 163 720 c 128,-1,23
 156 734 156 734 141.5 740 c 128,-1,24
 127 746 127 746 104 747 c 128,-1,25
 81 748 81 748 48 748 c 1,26,-1
 48 908 l 1,27,28
 90 908 90 908 130 907.5 c 128,-1,29
 170 907 170 907 207 907 c 0,30,31
 269 907 269 907 333 908 c 128,-1,32
 397 909 397 909 464 912 c 1,33,-1
 465 778 l 1,34,35
 484 808 484 808 514.5 835.5 c 128,-1,36
 545 863 545 863 587 884 c 128,-1,37
 629 905 629 905 681 917.5 c 128,-1,38
 733 930 733 930 795 930 c 0,39,40
 897 930 897 930 982 896 c 128,-1,41
 1067 862 1067 862 1128 800 c 128,-1,42
 1189 738 1189 738 1222.5 651 c 128,-1,43
 1256 564 1256 564 1256 458 c 0,44,45
 1256 347 1256 347 1222.5 257.5 c 128,-1,46
 1189 168 1189 168 1127.5 106 c 128,-1,47
 1066 44 1066 44 980 10.5 c 128,-1,48
 894 -23 894 -23 789 -23 c 0,49,50
 692 -23 692 -23 612.5 7.5 c 128,-1,51
 533 38 533 38 476 99 c 1,52,-1
 475 -183 l 2,53,54
 475 -209 475 -209 481 -223.5 c 128,-1,55
 487 -238 487 -238 501.5 -244.5 c 128,-1,56
 516 -251 516 -251 539 -252 c 128,-1,57
 562 -253 562 -253 596 -253 c 2,58,-1
 620 -253 l 1,59,-1
 620 -414 l 1,60,61
 592 -414 592 -414 553 -413.5 c 128,-1,62
 514 -413 514 -413 472.5 -413 c 128,-1,63
 431 -413 431 -413 390.5 -413 c 128,-1,64
 350 -413 350 -413 318 -413 c 0,65,66
 288 -413 288 -413 250 -413 c 128,-1,67
 212 -413 212 -413 174 -413 c 128,-1,68
 136 -413 136 -413 101 -413.5 c 128,-1,69
 66 -414 66 -414 41 -414 c 1,70,-1
 41 -253 l 1,14,15
EndSplineSet
EndChar

StartChar: q
Encoding: 113 113 84
Width: 1342
Flags: W
LayerCount: 2
Fore
SplineSet
876 450 m 0,0,1
 876 592 876 592 814.5 672.5 c 128,-1,2
 753 753 753 753 637 753 c 0,3,4
 520 753 520 753 458.5 675 c 128,-1,5
 397 597 397 597 397 454 c 0,6,7
 397 379 397 379 414.5 321.5 c 128,-1,8
 432 264 432 264 463.5 225 c 128,-1,9
 495 186 495 186 539.5 166 c 128,-1,10
 584 146 584 146 638 146 c 0,11,12
 694 146 694 146 738.5 167 c 128,-1,13
 783 188 783 188 813.5 227.5 c 128,-1,14
 844 267 844 267 860 323.5 c 128,-1,15
 876 380 876 380 876 450 c 0,0,1
722 -253 m 1,16,-1
 766 -253 l 2,17,18
 800 -253 800 -253 820 -250.5 c 128,-1,19
 840 -248 840 -248 850.5 -240 c 128,-1,20
 861 -232 861 -232 864 -217.5 c 128,-1,21
 867 -203 867 -203 867 -179 c 2,22,-1
 866 99 l 1,23,24
 818 47 818 47 742 12 c 128,-1,25
 666 -23 666 -23 554 -23 c 0,26,27
 449 -23 449 -23 362.5 10.5 c 128,-1,28
 276 44 276 44 215 106 c 128,-1,29
 154 168 154 168 120.5 257.5 c 128,-1,30
 87 347 87 347 87 458 c 0,31,32
 87 564 87 564 120.5 651 c 128,-1,33
 154 738 154 738 215 800 c 128,-1,34
 276 862 276 862 360.5 896 c 128,-1,35
 445 930 445 930 547 930 c 0,36,37
 606 930 606 930 656.5 918.5 c 128,-1,38
 707 907 707 907 748.5 887 c 128,-1,39
 790 867 790 867 822 839.5 c 128,-1,40
 854 812 854 812 877 779 c 1,41,-1
 878 912 l 1,42,43
 934 909 934 909 988.5 908 c 128,-1,44
 1043 907 1043 907 1097 907 c 0,45,46
 1145 907 1145 907 1192.5 907.5 c 128,-1,47
 1240 908 1240 908 1297 908 c 1,48,-1
 1297 748 l 1,49,50
 1251 748 1251 748 1226 745 c 128,-1,51
 1201 742 1201 742 1189 733 c 128,-1,52
 1177 724 1177 724 1174.5 706.5 c 128,-1,53
 1172 689 1172 689 1172 660 c 2,54,-1
 1172 -160 l 2,55,56
 1172 -185 1172 -185 1174.5 -199 c 128,-1,57
 1177 -213 1177 -213 1186 -222 c 1,58,59
 1194 -245 1194 -245 1220.5 -248.5 c 128,-1,60
 1247 -252 1247 -252 1301 -253 c 1,61,-1
 1301 -414 l 1,62,63
 1274 -414 1274 -414 1236 -413.5 c 128,-1,64
 1198 -413 1198 -413 1157 -413 c 128,-1,65
 1116 -413 1116 -413 1076 -413 c 128,-1,66
 1036 -413 1036 -413 1005 -413 c 256,67,68
 974 -413 974 -413 936 -413 c 128,-1,69
 898 -413 898 -413 859 -413 c 128,-1,70
 820 -413 820 -413 784 -413.5 c 128,-1,71
 748 -414 748 -414 722 -414 c 1,72,-1
 722 -253 l 1,16,-1
EndSplineSet
EndChar

StartChar: r
Encoding: 114 114 85
Width: 920
Flags: W
LayerCount: 2
Fore
SplineSet
223 907 m 1,0,1
 394 908 394 908 475 912 c 1,2,-1
 475 720 l 1,3,4
 513 823 513 823 597.5 876 c 128,-1,5
 682 929 682 929 806 929 c 0,6,7
 829 929 829 929 852.5 927 c 128,-1,8
 876 925 876 925 900 921 c 1,9,-1
 900 619 l 1,10,11
 891 620 891 620 877.5 620 c 128,-1,12
 864 620 864 620 855 620 c 0,13,14
 839 620 839 620 818.5 619.5 c 128,-1,15
 798 619 798 619 784 618 c 1,16,17
 773 660 773 660 748.5 678 c 128,-1,18
 724 696 724 696 681 696 c 0,19,20
 643 696 643 696 611 681 c 128,-1,21
 579 666 579 666 554.5 638.5 c 128,-1,22
 530 611 530 611 514.5 571.5 c 128,-1,23
 499 532 499 532 494 484 c 1,24,25
 491 474 491 474 489 439 c 128,-1,26
 487 404 487 404 486 362.5 c 128,-1,27
 485 321 485 321 485 282.5 c 128,-1,28
 485 244 485 244 485 227 c 0,29,30
 485 201 485 201 492.5 188 c 128,-1,31
 500 175 500 175 518 169 c 128,-1,32
 536 163 536 163 565 162.5 c 128,-1,33
 594 162 594 162 636 162 c 1,34,-1
 636 0 l 1,35,36
 596 0 596 0 557.5 0.5 c 128,-1,37
 519 1 519 1 479 1 c 128,-1,38
 439 1 439 1 394.5 1.5 c 128,-1,39
 350 2 350 2 298 2 c 0,40,41
 257 2 257 2 223.5 1.5 c 128,-1,42
 190 1 190 1 160.5 1 c 128,-1,43
 131 1 131 1 102.5 0.5 c 128,-1,44
 74 0 74 0 44 0 c 1,45,-1
 44 162 l 1,46,47
 86 162 86 162 110.5 164 c 128,-1,48
 135 166 135 166 146 174 c 1,49,50
 166 179 166 179 172.5 195.5 c 128,-1,51
 179 212 179 212 179 250 c 2,52,-1
 179 691 l 2,53,54
 179 713 179 713 171.5 724.5 c 128,-1,55
 164 736 164 736 148 741 c 128,-1,56
 132 746 132 746 107 747 c 128,-1,57
 82 748 82 748 47 748 c 1,58,-1
 47 908 l 1,59,60
 64 908 64 908 223 907 c 1,0,1
EndSplineSet
EndChar

StartChar: s
Encoding: 115 115 86
Width: 1032
Flags: W
LayerCount: 2
Fore
SplineSet
900 633 m 1,0,-1
 742 633 l 1,1,2
 726 706 726 706 666.5 749 c 128,-1,3
 607 792 607 792 509 795 c 1,4,5
 469 795 469 795 440.5 787 c 128,-1,6
 412 779 412 779 394 765.5 c 128,-1,7
 376 752 376 752 367.5 734.5 c 128,-1,8
 359 717 359 717 359 698 c 0,9,10
 359 674 359 674 374 656.5 c 128,-1,11
 389 639 389 639 417 624 c 128,-1,12
 445 609 445 609 485.5 595.5 c 128,-1,13
 526 582 526 582 578 567 c 0,14,15
 666 543 666 543 733.5 516.5 c 128,-1,16
 801 490 801 490 847.5 455 c 128,-1,17
 894 420 894 420 918 373.5 c 128,-1,18
 942 327 942 327 942 261 c 0,19,20
 942 186 942 186 910 132.5 c 128,-1,21
 878 79 878 79 825.5 44 c 128,-1,22
 773 9 773 9 706 -7 c 128,-1,23
 639 -23 639 -23 568 -23 c 0,24,25
 466 -23 466 -23 397.5 2.5 c 128,-1,26
 329 28 329 28 285 80 c 1,27,-1
 281 1 l 1,28,29
 234 1 234 1 189.5 4 c 128,-1,30
 145 7 145 7 99 7 c 1,31,-1
 99 291 l 1,32,-1
 280 291 l 1,33,34
 284 246 284 246 304.5 212 c 128,-1,35
 325 178 325 178 357 155.5 c 128,-1,36
 389 133 389 133 430 122 c 128,-1,37
 471 111 471 111 517 111 c 0,38,39
 587 111 587 111 632 137 c 128,-1,40
 677 163 677 163 677 208 c 0,41,42
 677 238 677 238 652.5 259.5 c 128,-1,43
 628 281 628 281 587.5 299 c 128,-1,44
 547 317 547 317 494.5 334 c 128,-1,45
 442 351 442 351 386 371 c 0,46,47
 319 395 319 395 265.5 420 c 128,-1,48
 212 445 212 445 174.5 477 c 128,-1,49
 137 509 137 509 117 552 c 128,-1,50
 97 595 97 595 97 655 c 0,51,52
 97 717 97 717 120.5 767.5 c 128,-1,53
 144 818 144 818 189 853.5 c 128,-1,54
 234 889 234 889 300 908.5 c 128,-1,55
 366 928 366 928 450 928 c 0,56,57
 538 928 538 928 614 905.5 c 128,-1,58
 690 883 690 883 734 838 c 1,59,60
 735 844 735 844 737.5 856.5 c 128,-1,61
 740 869 740 869 743 882 c 0,62,63
 747 897 747 897 750 915 c 1,64,65
 780 912 780 912 808 909 c 0,66,67
 832 907 832 907 857.5 905 c 128,-1,68
 883 903 883 903 900 901 c 1,69,-1
 900 633 l 1,0,-1
EndSplineSet
EndChar

StartChar: t
Encoding: 116 116 87
Width: 792
Flags: W
LayerCount: 2
Fore
SplineSet
464 1183 m 1,0,-1
 464 908 l 1,1,-1
 709 908 l 1,2,-1
 709 748 l 1,3,-1
 465 748 l 1,4,-1
 465 342 l 2,5,6
 465 298 465 298 467.5 265.5 c 128,-1,7
 470 233 470 233 479 211.5 c 128,-1,8
 488 190 488 190 505 179 c 128,-1,9
 522 168 522 168 550 168 c 0,10,11
 617 168 617 168 617 261 c 1,12,-1
 728 275 l 1,13,-1
 728 243 l 1,14,15
 726 169 726 169 707.5 120 c 128,-1,16
 689 71 689 71 654 38.5 c 128,-1,17
 619 6 619 6 569 -8.5 c 128,-1,18
 519 -23 519 -23 455 -23 c 0,19,20
 300 -23 300 -23 229.5 59.5 c 128,-1,21
 159 142 159 142 159 288 c 2,22,-1
 159 748 l 1,23,-1
 7 748 l 1,24,-1
 7 897 l 1,25,26
 18 897 18 897 46.5 899.5 c 128,-1,27
 75 902 75 902 105 904 c 0,28,29
 139 907 139 907 180 910 c 1,30,31
 180 913 180 913 182.5 929.5 c 128,-1,32
 185 946 185 946 189 969 c 128,-1,33
 193 992 193 992 197.5 1019 c 128,-1,34
 202 1046 202 1046 205.5 1070 c 128,-1,35
 209 1094 209 1094 211.5 1112 c 128,-1,36
 214 1130 214 1130 214 1136 c 1,37,-1
 464 1183 l 1,0,-1
EndSplineSet
EndChar

StartChar: u
Encoding: 117 117 88
Width: 1336
Flags: W
LayerCount: 2
Fore
SplineSet
477 -20 m 0,0,1
 392 -20 392 -20 333 7.5 c 128,-1,2
 274 35 274 35 237.5 90 c 128,-1,3
 201 145 201 145 185 230 c 128,-1,4
 169 315 169 315 169 429 c 2,5,-1
 169 674 l 2,6,7
 169 702 169 702 163.5 717 c 128,-1,8
 158 732 158 732 144 738.5 c 128,-1,9
 130 745 130 745 105.5 746 c 128,-1,10
 81 747 81 747 43 747 c 1,11,-1
 43 907 l 1,12,13
 59 907 59 907 85.5 907 c 128,-1,14
 112 907 112 907 139 906.5 c 128,-1,15
 166 906 166 906 187.5 906 c 128,-1,16
 209 906 209 906 216 906 c 0,17,18
 282 907 282 907 345.5 908 c 128,-1,19
 409 909 409 909 475 911 c 1,20,-1
 475 389 l 2,21,22
 475 334 475 334 482 291 c 128,-1,23
 489 248 489 248 506.5 219 c 128,-1,24
 524 190 524 190 554 174.5 c 128,-1,25
 584 159 584 159 630 159 c 0,26,27
 715 159 715 159 768.5 186 c 128,-1,28
 822 213 822 213 848 256 c 1,29,30
 859 286 859 286 860.5 321.5 c 128,-1,31
 862 357 862 357 862 396 c 2,32,-1
 862 655 l 2,33,34
 862 690 862 690 856.5 708.5 c 128,-1,35
 851 727 851 727 836 735.5 c 128,-1,36
 821 744 821 744 794.5 745.5 c 128,-1,37
 768 747 768 747 725 747 c 1,38,-1
 725 907 l 1,39,40
 773 906 773 906 820 906 c 128,-1,41
 867 906 867 906 927 906 c 0,42,43
 989 907 989 907 1048 908 c 128,-1,44
 1107 909 1107 909 1167 911 c 1,45,-1
 1167 223 l 2,46,47
 1167 203 1167 203 1172.5 190.5 c 128,-1,48
 1178 178 1178 178 1192 171 c 128,-1,49
 1206 164 1206 164 1230 162 c 128,-1,50
 1254 160 1254 160 1291 160 c 1,51,-1
 1291 0 l 1,52,53
 1244 0 1244 0 1207.5 0.5 c 128,-1,54
 1171 1 1171 1 1133 1 c 0,55,56
 1067 0 1067 0 1002 -0.5 c 128,-1,57
 937 -1 937 -1 871 -3 c 1,58,-1
 871 137 l 1,59,60
 804 57 804 57 702 18.5 c 128,-1,61
 600 -20 600 -20 477 -20 c 0,0,1
EndSplineSet
EndChar

StartChar: v
Encoding: 118 118 89
Width: 1220
Flags: W
LayerCount: 2
Fore
SplineSet
155 656 m 2,0,1
 138 694 138 694 124 710 c 128,-1,2
 110 726 110 726 92 730 c 1,3,4
 81 734 81 734 65.5 733.5 c 128,-1,5
 50 733 50 733 25 731 c 1,6,-1
 24 908 l 1,7,8
 94 908 94 908 156 907 c 128,-1,9
 218 906 218 906 268 906 c 0,10,11
 333 906 333 906 404 906.5 c 128,-1,12
 475 907 475 907 566 908 c 1,13,-1
 565 746 l 1,14,-1
 548 746 l 2,15,16
 494 746 494 746 466.5 738 c 128,-1,17
 439 730 439 730 431 710 c 1,18,19
 435 696 435 696 440.5 679.5 c 128,-1,20
 446 663 446 663 457 644 c 1,21,22
 463 627 463 627 475 598 c 128,-1,23
 487 569 487 569 502 533 c 128,-1,24
 517 497 517 497 533.5 456 c 128,-1,25
 550 415 550 415 567 375 c 0,26,27
 606 281 606 281 651 172 c 1,28,29
 659 189 659 189 673.5 224.5 c 128,-1,30
 688 260 688 260 706 304.5 c 128,-1,31
 724 349 724 349 744 398 c 128,-1,32
 764 447 764 447 782 491.5 c 128,-1,33
 800 536 800 536 814.5 571 c 128,-1,34
 829 606 829 606 837 624 c 0,35,36
 860 674 860 674 867 710 c 1,37,38
 860 730 860 730 834 738 c 128,-1,39
 808 746 808 746 755 746 c 2,40,-1
 740 746 l 1,41,-1
 740 908 l 1,42,43
 782 907 782 907 816.5 906.5 c 128,-1,44
 851 906 851 906 882.5 905.5 c 128,-1,45
 914 905 914 905 944 905 c 128,-1,46
 974 905 974 905 1007 905 c 0,47,48
 1050 905 1050 905 1096.5 906 c 128,-1,49
 1143 907 1143 907 1194 908 c 1,50,-1
 1194 746 l 1,51,52
 1152 745 1152 745 1131 738 c 128,-1,53
 1110 731 1110 731 1098 715 c 1,54,55
 1082 703 1082 703 1071 676.5 c 128,-1,56
 1060 650 1060 650 1039 605 c 2,57,-1
 754 -14 l 1,58,-1
 471 -14 l 1,59,-1
 155 656 l 2,0,1
EndSplineSet
EndChar

StartChar: w
Encoding: 119 119 90
Width: 1808
Flags: W
LayerCount: 2
Fore
SplineSet
29 908 m 1,0,1
 41 908 41 908 70 907.5 c 128,-1,2
 99 907 99 907 133.5 906.5 c 128,-1,3
 168 906 168 906 202 905.5 c 128,-1,4
 236 905 236 905 259 905 c 0,5,6
 310 905 310 905 381 906.5 c 128,-1,7
 452 908 452 908 521 908 c 1,8,-1
 521 746 l 1,9,10
 510 746 510 746 492 746.5 c 128,-1,11
 474 747 474 747 469 747 c 0,12,13
 437 747 437 747 429 733.5 c 128,-1,14
 421 720 421 720 424 696 c 0,15,16
 428 659 428 659 439 616.5 c 128,-1,17
 450 574 450 574 462 535 c 0,18,19
 475 493 475 493 492 442 c 128,-1,20
 509 391 509 391 525 342 c 128,-1,21
 541 293 541 293 554.5 252 c 128,-1,22
 568 211 568 211 575 188 c 1,23,24
 600 267 600 267 621 330 c 0,25,26
 630 357 630 357 638.5 383.5 c 128,-1,27
 647 410 647 410 654 431.5 c 128,-1,28
 661 453 661 453 666 467.5 c 128,-1,29
 671 482 671 482 672 485 c 2,30,-1
 803 874 l 1,31,-1
 1099 874 l 1,32,-1
 1212 511 l 2,33,34
 1214 504 1214 504 1219.5 486.5 c 128,-1,35
 1225 469 1225 469 1232 444.5 c 128,-1,36
 1239 420 1239 420 1247 391 c 128,-1,37
 1255 362 1255 362 1264 333 c 0,38,39
 1283 264 1283 264 1308 183 c 1,40,41
 1352 319 1352 319 1386 427 c 0,42,43
 1401 473 1401 473 1415 517 c 128,-1,44
 1429 561 1429 561 1440 596 c 128,-1,45
 1451 631 1451 631 1458 653 c 128,-1,46
 1465 675 1465 675 1466 677 c 0,47,48
 1472 699 1472 699 1479 719 c 1,49,50
 1473 735 1473 735 1450.5 739.5 c 128,-1,51
 1428 744 1428 744 1378 746 c 1,52,-1
 1378 908 l 1,53,54
 1429 907 1429 907 1479.5 906 c 128,-1,55
 1530 905 1530 905 1581 905 c 0,56,57
 1631 905 1631 905 1679.5 906 c 128,-1,58
 1728 907 1728 907 1779 908 c 1,59,-1
 1779 746 l 1,60,61
 1743 744 1743 744 1723.5 740.5 c 128,-1,62
 1704 737 1704 737 1692 723.5 c 128,-1,63
 1680 710 1680 710 1670 684 c 128,-1,64
 1660 658 1660 658 1642 612 c 1,65,-1
 1416 -14 l 1,66,-1
 1131 -14 l 1,67,-1
 911 664 l 1,68,-1
 686 -14 l 1,69,-1
 400 -14 l 1,70,-1
 157 647 l 1,71,72
 143 681 143 681 133 700 c 128,-1,73
 123 719 123 719 109.5 728.5 c 128,-1,74
 96 738 96 738 77.5 741 c 128,-1,75
 59 744 59 744 29 746 c 1,76,-1
 29 908 l 1,0,1
EndSplineSet
EndChar

StartChar: x
Encoding: 120 120 91
Width: 1213
Flags: W
LayerCount: 2
Fore
SplineSet
49 908 m 1,0,1
 69 908 69 908 94.5 907.5 c 128,-1,2
 120 907 120 907 147 906.5 c 128,-1,3
 174 906 174 906 202 905.5 c 128,-1,4
 230 905 230 905 254 905 c 0,5,6
 296 905 296 905 339 905 c 128,-1,7
 382 905 382 905 422.5 905.5 c 128,-1,8
 463 906 463 906 500.5 906.5 c 128,-1,9
 538 907 538 907 570 908 c 1,10,-1
 570 749 l 1,11,12
 532 749 532 749 515.5 745 c 128,-1,13
 499 741 499 741 499 730 c 0,14,15
 499 720 499 720 511.5 703 c 128,-1,16
 524 686 524 686 547 661 c 2,17,-1
 628 569 l 1,18,-1
 707 661 l 2,19,20
 728 686 728 686 740 702 c 128,-1,21
 752 718 752 718 752 729 c 0,22,23
 752 741 752 741 732.5 745 c 128,-1,24
 713 749 713 749 670 749 c 1,25,-1
 670 908 l 1,26,27
 693 908 693 908 726.5 907.5 c 128,-1,28
 760 907 760 907 796.5 906.5 c 128,-1,29
 833 906 833 906 868.5 906 c 128,-1,30
 904 906 904 906 932 906 c 0,31,32
 963 906 963 906 989.5 906 c 128,-1,33
 1016 906 1016 906 1041 906 c 128,-1,34
 1066 906 1066 906 1091 906.5 c 128,-1,35
 1116 907 1116 907 1143 908 c 1,36,-1
 1143 748 l 1,37,-1
 1102 748 l 2,38,39
 1079 748 1079 748 1063.5 745 c 128,-1,40
 1048 742 1048 742 1032.5 732 c 128,-1,41
 1017 722 1017 722 998.5 702.5 c 128,-1,42
 980 683 980 683 952 650 c 0,43,44
 947 644 947 644 937.5 633 c 128,-1,45
 928 622 928 622 915.5 608 c 128,-1,46
 903 594 903 594 888.5 577.5 c 128,-1,47
 874 561 874 561 860 545 c 0,48,49
 827 507 827 507 787 462 c 1,50,51
 787 462 787 462 802 447.5 c 128,-1,52
 817 433 817 433 840.5 410.5 c 128,-1,53
 864 388 864 388 892.5 360.5 c 128,-1,54
 921 333 921 333 948 307.5 c 128,-1,55
 975 282 975 282 996.5 260.5 c 128,-1,56
 1018 239 1018 239 1028 229 c 0,57,58
 1050 205 1050 205 1066 192 c 128,-1,59
 1082 179 1082 179 1097.5 172 c 128,-1,60
 1113 165 1113 165 1130.5 163.5 c 128,-1,61
 1148 162 1148 162 1172 162 c 1,62,-1
 1172 0 l 1,63,64
 1152 0 1152 0 1132.5 0.5 c 128,-1,65
 1113 1 1113 1 1084 1 c 2,66,-1
 867 1 l 2,67,68
 840 1 840 1 805.5 1 c 128,-1,69
 771 1 771 1 737 1 c 128,-1,70
 703 1 703 1 673.5 0.5 c 128,-1,71
 644 0 644 0 627 0 c 1,72,-1
 627 162 l 1,73,74
 697 162 697 162 697 188 c 0,75,76
 697 208 697 208 651 257 c 2,77,-1
 568 343 l 1,78,-1
 482 225 l 2,79,80
 456 190 456 190 456 178 c 0,81,82
 456 167 456 167 471.5 164.5 c 128,-1,83
 487 162 487 162 519 162 c 1,84,-1
 518 0 l 1,85,86
 490 0 490 0 454.5 0.5 c 128,-1,87
 419 1 419 1 382.5 1 c 128,-1,88
 346 1 346 1 310.5 1.5 c 128,-1,89
 275 2 275 2 246 2 c 0,90,91
 219 2 219 2 196 1.5 c 128,-1,92
 173 1 173 1 150 1 c 128,-1,93
 127 1 127 1 103 0.5 c 128,-1,94
 79 0 79 0 50 0 c 1,95,-1
 50 162 l 1,96,-1
 98 162 l 2,97,98
 113 162 113 162 123.5 164.5 c 128,-1,99
 134 167 134 167 143 173 c 128,-1,100
 152 179 152 179 161 188.5 c 128,-1,101
 170 198 170 198 183 213 c 0,102,103
 200 233 200 233 234.5 272.5 c 128,-1,104
 269 312 269 312 304 353 c 0,105,106
 344 401 344 401 391 454 c 1,107,-1
 178 694 l 2,108,109
 160 714 160 714 146 725 c 128,-1,110
 132 736 132 736 117.5 741 c 128,-1,111
 103 746 103 746 87 747.5 c 128,-1,112
 71 749 71 749 49 749 c 1,113,-1
 49 908 l 1,0,1
EndSplineSet
EndChar

StartChar: y
Encoding: 121 121 92
Width: 1140
Flags: W
LayerCount: 2
Fore
SplineSet
-16 908 m 1,0,1
 58 908 58 908 121.5 907 c 128,-1,2
 185 906 185 906 235 906 c 0,3,4
 301 906 301 906 373 906.5 c 128,-1,5
 445 907 445 907 537 908 c 1,6,-1
 537 746 l 1,7,8
 521 744 521 744 504.5 744.5 c 128,-1,9
 488 745 488 745 474 744 c 0,10,11
 445 741 445 741 429 732 c 128,-1,12
 413 723 413 723 409 701 c 1,13,14
 412 686 412 686 418 669 c 128,-1,15
 424 652 424 652 432 634.5 c 128,-1,16
 440 617 440 617 448.5 600 c 128,-1,17
 457 583 457 583 463 569 c 2,18,-1
 616 219 l 1,19,20
 628 248 628 248 647.5 295 c 128,-1,21
 667 342 667 342 690.5 398.5 c 128,-1,22
 714 455 714 455 739 517.5 c 128,-1,23
 764 580 764 580 787 639 c 0,24,25
 803 678 803 678 808 705 c 1,26,27
 802 728 802 728 776.5 737 c 128,-1,28
 751 746 751 746 687 746 c 1,29,-1
 687 908 l 1,30,31
 754 907 754 907 805 906.5 c 128,-1,32
 856 906 856 906 908 906 c 0,33,34
 964 906 964 906 1023 906.5 c 128,-1,35
 1082 907 1082 907 1155 908 c 1,36,37
 1155 904 1155 904 1155 879.5 c 128,-1,38
 1155 855 1155 855 1155 826.5 c 128,-1,39
 1155 798 1155 798 1155.5 773.5 c 128,-1,40
 1156 749 1156 749 1157 746 c 1,41,42
 1115 745 1115 745 1091 740 c 128,-1,43
 1067 735 1067 735 1052 723 c 128,-1,44
 1037 711 1037 711 1025.5 689.5 c 128,-1,45
 1014 668 1014 668 996 635 c 1,46,47
 984 607 984 607 956.5 547 c 128,-1,48
 929 487 929 487 893.5 411 c 128,-1,49
 858 335 858 335 819 250.5 c 128,-1,50
 780 166 780 166 744.5 89.5 c 128,-1,51
 709 13 709 13 681.5 -47 c 128,-1,52
 654 -107 654 -107 642 -135 c 1,53,54
 605 -214 605 -214 571.5 -267 c 128,-1,55
 538 -320 538 -320 500 -352.5 c 128,-1,56
 462 -385 462 -385 415 -399 c 128,-1,57
 368 -413 368 -413 305 -413 c 0,58,59
 285 -413 285 -413 256 -413 c 128,-1,60
 227 -413 227 -413 207 -414 c 1,61,-1
 207 -245 l 1,62,63
 228 -245 228 -245 245.5 -245 c 128,-1,64
 263 -245 263 -245 278 -244 c 0,65,66
 317 -243 317 -243 342.5 -234 c 128,-1,67
 368 -225 368 -225 388.5 -203.5 c 128,-1,68
 409 -182 409 -182 428 -145.5 c 128,-1,69
 447 -109 447 -109 473 -52 c 1,70,71
 386 136 386 136 316 286 c 0,72,73
 286 350 286 350 257.5 411.5 c 128,-1,74
 229 473 229 473 206 522.5 c 128,-1,75
 183 572 183 572 168.5 603.5 c 128,-1,76
 154 635 154 635 152 639 c 0,77,78
 137 671 137 671 126 690 c 128,-1,79
 115 709 115 709 99 719 c 128,-1,80
 83 729 83 729 56.5 731.5 c 128,-1,81
 30 734 30 734 -16 732 c 1,82,-1
 -16 908 l 1,0,1
EndSplineSet
EndChar

StartChar: z
Encoding: 122 122 93
Width: 1090
Flags: W
LayerCount: 2
Fore
SplineSet
1001 906 m 1,0,-1
 1001 734 l 1,1,-1
 429 147 l 1,2,-1
 725 147 l 2,3,4
 762 147 762 147 792 148.5 c 128,-1,5
 822 150 822 150 842.5 159.5 c 128,-1,6
 863 169 863 169 874 189.5 c 128,-1,7
 885 210 885 210 885 248 c 0,8,9
 885 251 885 251 885 261.5 c 128,-1,10
 885 272 885 272 885 284 c 128,-1,11
 885 296 885 296 884.5 306.5 c 128,-1,12
 884 317 884 317 883 320 c 1,13,14
 895 320 895 320 912 320 c 128,-1,15
 929 320 929 320 947 320.5 c 128,-1,16
 965 321 965 321 981.5 321 c 128,-1,17
 998 321 998 321 1010 321 c 1,18,-1
 1010 0 l 1,19,-1
 76 0 l 1,20,-1
 76 180 l 1,21,-1
 647 762 l 1,22,-1
 362 762 l 2,23,24
 311 762 311 762 282 757.5 c 128,-1,25
 253 753 253 753 238 736.5 c 128,-1,26
 223 720 223 720 218.5 688.5 c 128,-1,27
 214 657 214 657 213 602 c 1,28,-1
 90 602 l 1,29,-1
 90 906 l 1,30,-1
 1001 906 l 1,0,-1
EndSplineSet
EndChar

StartChar: braceleft
Encoding: 123 123 94
Width: 888
Flags: W
LayerCount: 2
Fore
SplineSet
742 -341 m 0,0,1
 633 -341 633 -341 557 -326 c 128,-1,2
 481 -311 481 -311 433 -269 c 128,-1,3
 385 -227 385 -227 363.5 -152.5 c 128,-1,4
 342 -78 342 -78 342 41 c 2,5,-1
 342 223 l 2,6,7
 342 288 342 288 330 335 c 128,-1,8
 318 382 318 382 290.5 413 c 128,-1,9
 263 444 263 444 218.5 460 c 128,-1,10
 174 476 174 476 110 479 c 1,11,-1
 110 629 l 1,12,13
 180 633 180 633 225 650.5 c 128,-1,14
 270 668 270 668 296 702.5 c 128,-1,15
 322 737 322 737 332 789.5 c 128,-1,16
 342 842 342 842 342 917 c 2,17,-1
 342 1082 l 2,18,19
 342 1196 342 1196 365 1267.5 c 128,-1,20
 388 1339 388 1339 436 1379.5 c 128,-1,21
 484 1420 484 1420 557.5 1435 c 128,-1,22
 631 1450 631 1450 732 1450 c 0,23,24
 733 1450 733 1450 739.5 1449.5 c 128,-1,25
 746 1449 746 1449 754 1448 c 128,-1,26
 762 1447 762 1447 768.5 1446.5 c 128,-1,27
 775 1446 775 1446 776 1446 c 1,28,-1
 776 1290 l 1,29,30
 717 1289 717 1289 678.5 1279 c 128,-1,31
 640 1269 640 1269 616.5 1243.5 c 128,-1,32
 593 1218 593 1218 582.5 1173 c 128,-1,33
 572 1128 572 1128 570 1058 c 0,34,35
 567 978 567 978 564.5 913.5 c 128,-1,36
 562 849 562 849 555.5 797 c 128,-1,37
 549 745 549 745 536 705.5 c 128,-1,38
 523 666 523 666 498.5 636.5 c 128,-1,39
 474 607 474 607 435 587.5 c 128,-1,40
 396 568 396 568 339 556 c 1,41,42
 404 541 404 541 448 513 c 128,-1,43
 492 485 492 485 519 440.5 c 128,-1,44
 546 396 546 396 557.5 332 c 128,-1,45
 569 268 569 268 569 180 c 0,46,47
 569 64 569 64 574.5 -6.5 c 128,-1,48
 580 -77 580 -77 601 -115.5 c 128,-1,49
 622 -154 622 -154 663.5 -167 c 128,-1,50
 705 -180 705 -180 776 -181 c 1,51,-1
 776 -340 l 1,52,53
 775 -340 775 -340 770 -340.5 c 128,-1,54
 765 -341 765 -341 759 -341 c 128,-1,55
 753 -341 753 -341 748 -341 c 128,-1,56
 743 -341 743 -341 742 -341 c 0,0,1
EndSplineSet
EndChar

StartChar: bar
Encoding: 124 124 95
Width: 1115
Flags: W
LayerCount: 2
Fore
SplineSet
661 -403 m 1,0,-1
 455 -403 l 1,1,-1
 455 1461 l 1,2,-1
 661 1461 l 1,3,-1
 661 -403 l 1,0,-1
EndSplineSet
EndChar

StartChar: braceright
Encoding: 125 125 96
Width: 888
Flags: W
LayerCount: 2
Fore
SplineSet
547 941 m 2,0,1
 547 857 547 857 555.5 799.5 c 128,-1,2
 564 742 564 742 589 705.5 c 128,-1,3
 614 669 614 669 659.5 651 c 128,-1,4
 705 633 705 633 778 629 c 1,5,-1
 778 479 l 1,6,7
 710 476 710 476 665 459 c 128,-1,8
 620 442 620 442 594 409 c 128,-1,9
 568 376 568 376 557.5 326.5 c 128,-1,10
 547 277 547 277 547 208 c 2,11,-1
 547 51 l 2,12,13
 547 -74 547 -74 525 -150.5 c 128,-1,14
 503 -227 503 -227 454.5 -269.5 c 128,-1,15
 406 -312 406 -312 329 -326.5 c 128,-1,16
 252 -341 252 -341 143 -341 c 0,17,18
 141 -341 141 -341 127.5 -341 c 128,-1,19
 114 -341 114 -341 112 -340 c 1,20,-1
 112 -181 l 1,21,22
 175 -180 175 -180 213.5 -169.5 c 128,-1,23
 252 -159 252 -159 274.5 -129.5 c 128,-1,24
 297 -100 297 -100 306.5 -46 c 128,-1,25
 316 8 316 8 321 96 c 1,26,27
 325 197 325 197 328.5 274 c 128,-1,28
 332 351 332 351 351.5 406.5 c 128,-1,29
 371 462 371 462 415.5 497.5 c 128,-1,30
 460 533 460 533 548 553 c 1,31,32
 465 572 465 572 421.5 606 c 128,-1,33
 378 640 378 640 357 691 c 128,-1,34
 336 742 336 742 331 812 c 128,-1,35
 326 882 326 882 322 974 c 0,36,37
 317 1074 317 1074 309 1135 c 128,-1,38
 301 1196 301 1196 279.5 1230 c 128,-1,39
 258 1264 258 1264 218.5 1276 c 128,-1,40
 179 1288 179 1288 112 1290 c 1,41,-1
 112 1449 l 1,42,43
 113 1449 113 1449 118 1449.5 c 128,-1,44
 123 1450 123 1450 128.5 1450 c 128,-1,45
 134 1450 134 1450 139 1450 c 128,-1,46
 144 1450 144 1450 145 1450 c 0,47,48
 250 1450 250 1450 326 1435 c 128,-1,49
 402 1420 402 1420 451 1379.5 c 128,-1,50
 500 1339 500 1339 523.5 1268 c 128,-1,51
 547 1197 547 1197 547 1084 c 2,52,-1
 547 941 l 2,0,1
EndSplineSet
EndChar

StartChar: asciitilde
Encoding: 126 126 97
Width: 1546
Flags: W
LayerCount: 2
Fore
SplineSet
1397 641 m 1,0,1
 1342 600 1342 600 1295.5 572.5 c 128,-1,2
 1249 545 1249 545 1207 528.5 c 128,-1,3
 1165 512 1165 512 1125.5 504.5 c 128,-1,4
 1086 497 1086 497 1045 497 c 0,5,6
 1016 497 1016 497 989.5 500.5 c 128,-1,7
 963 504 963 504 936 511 c 128,-1,8
 909 518 909 518 880.5 528 c 128,-1,9
 852 538 852 538 819 552 c 1,10,11
 771 570 771 570 727.5 587 c 128,-1,12
 684 604 684 604 645 617 c 128,-1,13
 606 630 606 630 570.5 638 c 128,-1,14
 535 646 535 646 502 646 c 0,15,16
 462 646 462 646 422.5 637 c 128,-1,17
 383 628 383 628 340.5 609.5 c 128,-1,18
 298 591 298 591 251 561.5 c 128,-1,19
 204 532 204 532 150 490 c 1,20,-1
 150 704 l 1,21,22
 250 776 250 776 336.5 810.5 c 128,-1,23
 423 845 423 845 507 845 c 0,24,25
 538 845 538 845 568 840.5 c 128,-1,26
 598 836 598 836 631 827.5 c 128,-1,27
 664 819 664 819 700 806.5 c 128,-1,28
 736 794 736 794 779 777 c 0,29,30
 863 742 863 742 931 719 c 128,-1,31
 999 696 999 696 1052 696 c 0,32,33
 1090 696 1090 696 1128.5 704.5 c 128,-1,34
 1167 713 1167 713 1208.5 731 c 128,-1,35
 1250 749 1250 749 1296.5 777.5 c 128,-1,36
 1343 806 1343 806 1397 846 c 1,37,-1
 1397 641 l 1,0,1
EndSplineSet
EndChar

StartChar: cent
Encoding: 162 162 100
Width: 1246
Flags: W
LayerCount: 2
Fore
SplineSet
590 -26 m 1,0,1
 474 -18 474 -18 380.5 20.5 c 128,-1,2
 287 59 287 59 221.5 123 c 128,-1,3
 156 187 156 187 121 273.5 c 128,-1,4
 86 360 86 360 86 464 c 0,5,6
 86 577 86 577 128.5 667.5 c 128,-1,7
 171 758 171 758 241.5 821.5 c 128,-1,8
 312 885 312 885 402.5 919 c 128,-1,9
 493 953 493 953 590 955 c 1,10,-1
 590 1119 l 1,11,-1
 713 1119 l 1,12,-1
 713 947 l 1,13,14
 746 941 746 941 772.5 934.5 c 128,-1,15
 799 928 799 928 821.5 919 c 128,-1,16
 844 910 844 910 863.5 897.5 c 128,-1,17
 883 885 883 885 904 867 c 1,18,-1
 916 936 l 1,19,-1
 1127 936 l 1,20,-1
 1127 566 l 1,21,-1
 912 566 l 1,22,23
 907 608 907 608 890 644.5 c 128,-1,24
 873 681 873 681 844.5 708 c 128,-1,25
 816 735 816 735 777 750.5 c 128,-1,26
 738 766 738 766 690 766 c 0,27,28
 634 766 634 766 589.5 744.5 c 128,-1,29
 545 723 545 723 513 683.5 c 128,-1,30
 481 644 481 644 464 588.5 c 128,-1,31
 447 533 447 533 447 464 c 0,32,33
 447 396 447 396 464.5 340.5 c 128,-1,34
 482 285 482 285 514 245.5 c 128,-1,35
 546 206 546 206 591 184.5 c 128,-1,36
 636 163 636 163 691 163 c 0,37,38
 775 163 775 163 829 211 c 128,-1,39
 883 259 883 259 906 347 c 1,40,-1
 1165 291 l 1,41,42
 1145 220 1145 220 1104.5 162.5 c 128,-1,43
 1064 105 1064 105 1005.5 63.5 c 128,-1,44
 947 22 947 22 873 -1.5 c 128,-1,45
 799 -25 799 -25 713 -27 c 1,46,-1
 713 -194 l 1,47,-1
 590 -194 l 1,48,-1
 590 -26 l 1,0,1
EndSplineSet
EndChar

StartChar: sterling
Encoding: 163 163 101
Width: 1264
Flags: W
LayerCount: 2
Fore
SplineSet
1226 334 m 1,0,1
 1219 251 1219 251 1192.5 186 c 128,-1,2
 1166 121 1166 121 1122.5 75.5 c 128,-1,3
 1079 30 1079 30 1020.5 6 c 128,-1,4
 962 -18 962 -18 890 -18 c 0,5,6
 807 -18 807 -18 736.5 17.5 c 128,-1,7
 666 53 666 53 598 129 c 1,8,9
 542 57 542 57 473.5 19.5 c 128,-1,10
 405 -18 405 -18 329 -18 c 0,11,12
 269 -18 269 -18 219 -0.5 c 128,-1,13
 169 17 169 17 132.5 48.5 c 128,-1,14
 96 80 96 80 76 123.5 c 128,-1,15
 56 167 56 167 56 218 c 0,16,17
 56 276 56 276 77.5 321 c 128,-1,18
 99 366 99 366 134 396 c 128,-1,19
 169 426 169 426 213.5 441.5 c 128,-1,20
 258 457 258 457 305 457 c 0,21,22
 353 457 353 457 397.5 441.5 c 128,-1,23
 442 426 442 426 480 394 c 1,24,25
 456 457 456 457 427.5 525 c 128,-1,26
 399 593 399 593 360 647 c 1,27,-1
 90 647 l 1,28,-1
 90 787 l 1,29,-1
 288 787 l 1,30,31
 247 852 247 852 228 913.5 c 128,-1,32
 209 975 209 975 209 1032 c 0,33,34
 209 1111 209 1111 244 1179 c 128,-1,35
 279 1247 279 1247 344 1296 c 128,-1,36
 409 1345 409 1345 501 1373 c 128,-1,37
 593 1401 593 1401 707 1401 c 0,38,39
 937 1401 937 1401 1053.5 1311.5 c 128,-1,40
 1170 1222 1170 1222 1172 1055 c 1,41,-1
 911 1026 l 1,42,43
 903 1107 903 1107 850.5 1154 c 128,-1,44
 798 1201 798 1201 716 1201 c 0,45,46
 669 1201 669 1201 634 1188.5 c 128,-1,47
 599 1176 599 1176 575.5 1154.5 c 128,-1,48
 552 1133 552 1133 540.5 1103 c 128,-1,49
 529 1073 529 1073 529 1039 c 0,50,51
 529 981 529 981 553 914.5 c 128,-1,52
 577 848 577 848 615 787 c 1,53,-1
 957 787 l 1,54,-1
 957 647 l 1,55,-1
 674 647 l 1,56,57
 711 538 711 538 711 426 c 0,58,59
 711 366 711 366 701 310 c 1,60,61
 753 267 753 267 795.5 244 c 128,-1,62
 838 221 838 221 886 221 c 0,63,64
 947 221 947 221 979 257.5 c 128,-1,65
 1011 294 1011 294 1025 380 c 1,66,-1
 1226 334 l 1,0,1
477 252 m 1,67,68
 440 287 440 287 399.5 305 c 128,-1,69
 359 323 359 323 324 323 c 0,70,71
 282 323 282 323 255 298.5 c 128,-1,72
 228 274 228 274 228 223 c 256,73,74
 228 172 228 172 254 149 c 128,-1,75
 280 126 280 126 316 126 c 0,76,77
 339 126 339 126 364 134.5 c 128,-1,78
 389 143 389 143 411 159.5 c 128,-1,79
 433 176 433 176 450.5 199.5 c 128,-1,80
 468 223 468 223 477 252 c 1,67,68
EndSplineSet
EndChar

StartChar: currency
Encoding: 164 164 102
Width: 1304
Flags: W
LayerCount: 2
Fore
SplineSet
408 1146 m 1,0,1
 461 1182 461 1182 523 1201.5 c 128,-1,2
 585 1221 585 1221 650 1221 c 0,3,4
 716 1221 716 1221 778 1202 c 128,-1,5
 840 1183 840 1183 897 1144 c 1,6,-1
 1070 1316 l 1,7,-1
 1195 1192 l 1,8,-1
 1021 1020 l 1,9,10
 1056 970 1056 970 1075.5 908 c 128,-1,11
 1095 846 1095 846 1095 780 c 0,12,13
 1095 719 1095 719 1077 656.5 c 128,-1,14
 1059 594 1059 594 1022 540 c 1,15,-1
 1195 370 l 1,16,-1
 1070 245 l 1,17,-1
 898 414 l 1,18,19
 843 376 843 376 780.5 358 c 128,-1,20
 718 340 718 340 650 340 c 0,21,22
 583 340 583 340 521.5 357 c 128,-1,23
 460 374 460 374 406 412 c 1,24,-1
 237 245 l 1,25,-1
 112 370 l 1,26,-1
 279 536 l 1,27,28
 241 593 241 593 223 652 c 128,-1,29
 205 711 205 711 205 778 c 0,30,31
 205 844 205 844 223 906.5 c 128,-1,32
 241 969 241 969 280 1025 c 1,33,-1
 112 1192 l 1,34,-1
 237 1316 l 1,35,-1
 408 1146 l 1,0,1
921 780 m 256,36,37
 921 835 921 835 899.5 883.5 c 128,-1,38
 878 932 878 932 841 968.5 c 128,-1,39
 804 1005 804 1005 754.5 1026 c 128,-1,40
 705 1047 705 1047 650 1047 c 0,41,42
 594 1047 594 1047 544.5 1025.5 c 128,-1,43
 495 1004 495 1004 458 967.5 c 128,-1,44
 421 931 421 931 400 882.5 c 128,-1,45
 379 834 379 834 379 780 c 0,46,47
 379 724 379 724 400 675.5 c 128,-1,48
 421 627 421 627 458 591 c 128,-1,49
 495 555 495 555 544.5 534 c 128,-1,50
 594 513 594 513 650 513 c 256,51,52
 706 513 706 513 755.5 534 c 128,-1,53
 805 555 805 555 841.5 591.5 c 128,-1,54
 878 628 878 628 899.5 676.5 c 128,-1,55
 921 725 921 725 921 780 c 256,36,37
EndSplineSet
EndChar

StartChar: yen
Encoding: 165 165 103
Width: 1276
Flags: W
LayerCount: 2
Fore
SplineSet
21 1308 m 1,0,1
 34 1308 34 1308 50 1307.5 c 128,-1,2
 66 1307 66 1307 92.5 1306.5 c 128,-1,3
 119 1306 119 1306 160 1305.5 c 128,-1,4
 201 1305 201 1305 266 1304 c 1,5,6
 325 1305 325 1305 369.5 1305.5 c 128,-1,7
 414 1306 414 1306 451.5 1306.5 c 128,-1,8
 489 1307 489 1307 523 1307.5 c 128,-1,9
 557 1308 557 1308 596 1308 c 1,10,-1
 596 1130 l 1,11,-1
 577 1130 l 2,12,13
 526 1130 526 1130 503.5 1122.5 c 128,-1,14
 481 1115 481 1115 481 1095 c 0,15,16
 481 1082 481 1082 489 1064 c 128,-1,17
 497 1046 497 1046 511 1020 c 2,18,-1
 699 681 l 1,19,-1
 887 1002 l 2,20,21
 905 1033 905 1033 919 1057 c 128,-1,22
 933 1081 933 1081 933 1098 c 256,23,24
 933 1115 933 1115 912.5 1122.5 c 128,-1,25
 892 1130 892 1130 842 1130 c 2,26,-1
 820 1130 l 1,27,-1
 820 1308 l 1,28,29
 847 1308 847 1308 871 1307.5 c 128,-1,30
 895 1307 895 1307 923.5 1307 c 128,-1,31
 952 1307 952 1307 988.5 1306.5 c 128,-1,32
 1025 1306 1025 1306 1077 1305 c 1,33,34
 1125 1306 1125 1306 1158.5 1306.5 c 128,-1,35
 1192 1307 1192 1307 1217.5 1307 c 128,-1,36
 1243 1307 1243 1307 1262 1307.5 c 128,-1,37
 1281 1308 1281 1308 1300 1308 c 1,38,-1
 1300 1130 l 1,39,40
 1266 1130 1266 1130 1245.5 1126.5 c 128,-1,41
 1225 1123 1225 1123 1209.5 1112.5 c 128,-1,42
 1194 1102 1194 1102 1180.5 1083.5 c 128,-1,43
 1167 1065 1167 1065 1148 1036 c 0,44,45
 1144 1031 1144 1031 1135.5 1017.5 c 128,-1,46
 1127 1004 1127 1004 1115 985.5 c 128,-1,47
 1103 967 1103 967 1089 946 c 128,-1,48
 1075 925 1075 925 1062.5 905.5 c 128,-1,49
 1050 886 1050 886 1039 869 c 128,-1,50
 1028 852 1028 852 1022 843 c 1,51,-1
 1244 843 l 1,52,-1
 1244 739 l 1,53,-1
 951 739 l 1,54,-1
 869 616 l 1,55,-1
 1244 616 l 1,56,-1
 1244 511 l 1,57,-1
 830 511 l 1,58,59
 826 506 826 506 823.5 496 c 128,-1,60
 821 486 821 486 819 477 c 0,61,62
 816 466 816 466 815 454 c 1,63,-1
 815 251 l 2,64,65
 815 227 815 227 819 213 c 128,-1,66
 823 199 823 199 835 191 c 128,-1,67
 847 183 847 183 868 180.5 c 128,-1,68
 889 178 889 178 922 178 c 2,69,-1
 964 178 l 1,70,-1
 964 0 l 1,71,72
 926 0 926 0 891 0 c 128,-1,73
 856 0 856 0 818 0.5 c 128,-1,74
 780 1 780 1 737.5 1.5 c 128,-1,75
 695 2 695 2 644 2 c 0,76,77
 599 2 599 2 561 1.5 c 128,-1,78
 523 1 523 1 488.5 1 c 128,-1,79
 454 1 454 1 422 0.5 c 128,-1,80
 390 0 390 0 356 0 c 1,81,-1
 356 178 l 1,82,-1
 398 178 l 2,83,84
 432 178 432 178 452.5 181 c 128,-1,85
 473 184 473 184 484.5 191.5 c 128,-1,86
 496 199 496 199 499.5 212.5 c 128,-1,87
 503 226 503 226 503 247 c 2,88,-1
 503 453 l 1,89,-1
 488 511 l 1,90,-1
 81 511 l 1,91,-1
 81 616 l 1,92,-1
 450 616 l 1,93,-1
 370 739 l 1,94,-1
 81 739 l 1,95,-1
 81 843 l 1,96,-1
 304 843 l 1,97,-1
 192 1022 l 2,98,99
 169 1058 169 1058 154.5 1079 c 128,-1,100
 140 1100 140 1100 123.5 1111.5 c 128,-1,101
 107 1123 107 1123 84 1126.5 c 128,-1,102
 61 1130 61 1130 22 1130 c 1,103,104
 22 1134 22 1134 22 1160.5 c 128,-1,105
 22 1187 22 1187 21.5 1218.5 c 128,-1,106
 21 1250 21 1250 21 1277 c 128,-1,107
 21 1304 21 1304 21 1308 c 1,0,1
EndSplineSet
EndChar

StartChar: brokenbar
Encoding: 166 166 104
Width: 1115
Flags: W
LayerCount: 2
Fore
SplineSet
661 439 m 1,0,-1
 455 439 l 1,1,-1
 455 1177 l 1,2,-1
 661 1177 l 1,3,-1
 661 439 l 1,0,-1
661 -120 m 1,4,-1
 455 -120 l 1,5,-1
 455 616 l 1,6,-1
 661 616 l 1,7,-1
 661 -120 l 1,4,-1
EndSplineSet
EndChar

StartChar: section
Encoding: 167 167 105
Width: 1153
Flags: W
LayerCount: 2
Fore
SplineSet
569 1336 m 0,0,1
 654 1336 654 1336 729.5 1315.5 c 128,-1,2
 805 1295 805 1295 863 1253.5 c 128,-1,3
 921 1212 921 1212 956 1150 c 128,-1,4
 991 1088 991 1088 995 1005 c 1,5,-1
 807 1005 l 1,6,7
 794 1112 794 1112 738.5 1162.5 c 128,-1,8
 683 1213 683 1213 574 1213 c 0,9,10
 529 1213 529 1213 492.5 1202.5 c 128,-1,11
 456 1192 456 1192 430 1172.5 c 128,-1,12
 404 1153 404 1153 390 1125 c 128,-1,13
 376 1097 376 1097 376 1062 c 0,14,15
 376 1026 376 1026 391 1000 c 128,-1,16
 406 974 406 974 438.5 953 c 128,-1,17
 471 932 471 932 520.5 912 c 128,-1,18
 570 892 570 892 639 867 c 0,19,20
 755 825 755 825 836 784.5 c 128,-1,21
 917 744 917 744 967.5 697 c 128,-1,22
 1018 650 1018 650 1041 594.5 c 128,-1,23
 1064 539 1064 539 1064 467 c 0,24,25
 1064 383 1064 383 1021 318 c 128,-1,26
 978 253 978 253 895 206 c 1,27,28
 956 158 956 158 986 104 c 128,-1,29
 1016 50 1016 50 1016 -21 c 0,30,31
 1016 -95 1016 -95 986 -153 c 128,-1,32
 956 -211 956 -211 899.5 -251.5 c 128,-1,33
 843 -292 843 -292 762 -313 c 128,-1,34
 681 -334 681 -334 578 -334 c 0,35,36
 517 -334 517 -334 458.5 -328 c 128,-1,37
 400 -322 400 -322 347 -308 c 128,-1,38
 294 -294 294 -294 247 -272.5 c 128,-1,39
 200 -251 200 -251 163 -219 c 1,40,-1
 156 -8 l 1,41,-1
 332 -8 l 1,42,43
 339 -110 339 -110 394.5 -160.5 c 128,-1,44
 450 -211 450 -211 572 -211 c 0,45,46
 672 -211 672 -211 725 -173 c 128,-1,47
 778 -135 778 -135 778 -60 c 0,48,49
 778 -27 778 -27 761.5 0 c 128,-1,50
 745 27 745 27 713.5 50.5 c 128,-1,51
 682 74 682 74 637.5 95.5 c 128,-1,52
 593 117 593 117 537 138 c 0,53,54
 432 177 432 177 349 214.5 c 128,-1,55
 266 252 266 252 208.5 297.5 c 128,-1,56
 151 343 151 343 120.5 400 c 128,-1,57
 90 457 90 457 90 535 c 0,58,59
 90 618 90 618 132 683.5 c 128,-1,60
 174 749 174 749 259 807 c 1,61,62
 149 891 149 891 149 1034 c 0,63,64
 149 1105 149 1105 178 1161 c 128,-1,65
 207 1217 207 1217 261 1256 c 128,-1,66
 315 1295 315 1295 393 1315.5 c 128,-1,67
 471 1336 471 1336 569 1336 c 0,0,1
392 727 m 1,68,69
 348 688 348 688 330.5 652.5 c 128,-1,70
 313 617 313 617 313 582 c 0,71,72
 313 543 313 543 332 512.5 c 128,-1,73
 351 482 351 482 384 456.5 c 128,-1,74
 417 431 417 431 461 409.5 c 128,-1,75
 505 388 505 388 555.5 367 c 128,-1,76
 606 346 606 346 659 325 c 128,-1,77
 712 304 712 304 764 279 c 1,78,79
 807 311 807 311 826.5 348 c 128,-1,80
 846 385 846 385 846 427 c 0,81,82
 846 487 846 487 807.5 527 c 128,-1,83
 769 567 769 567 705 598 c 128,-1,84
 641 629 641 629 559.5 658.5 c 128,-1,85
 478 688 478 688 392 727 c 1,68,69
EndSplineSet
EndChar

StartChar: dieresis
Encoding: 168 168 106
Width: 853
Flags: W
LayerCount: 2
Fore
SplineSet
656 1359 m 256,0,1
 684 1359 684 1359 707.5 1349.5 c 128,-1,2
 731 1340 731 1340 748 1322.5 c 128,-1,3
 765 1305 765 1305 775 1281.5 c 128,-1,4
 785 1258 785 1258 785 1231 c 0,5,6
 785 1203 785 1203 775.5 1179.5 c 128,-1,7
 766 1156 766 1156 748.5 1138.5 c 128,-1,8
 731 1121 731 1121 707.5 1111.5 c 128,-1,9
 684 1102 684 1102 656 1102 c 0,10,11
 627 1102 627 1102 603 1112 c 128,-1,12
 579 1122 579 1122 562 1139 c 128,-1,13
 545 1156 545 1156 535 1180 c 128,-1,14
 525 1204 525 1204 525 1231 c 256,15,16
 525 1258 525 1258 535 1281.5 c 128,-1,17
 545 1305 545 1305 562.5 1322 c 128,-1,18
 580 1339 580 1339 604 1349 c 128,-1,19
 628 1359 628 1359 656 1359 c 256,0,1
200 1359 m 0,20,21
 227 1359 227 1359 251 1349.5 c 128,-1,22
 275 1340 275 1340 292 1323 c 128,-1,23
 309 1306 309 1306 319 1282.5 c 128,-1,24
 329 1259 329 1259 329 1231 c 0,25,26
 329 1174 329 1174 292.5 1138 c 128,-1,27
 256 1102 256 1102 199 1102 c 0,28,29
 170 1102 170 1102 146 1111.5 c 128,-1,30
 122 1121 122 1121 105 1138.5 c 128,-1,31
 88 1156 88 1156 78 1179.5 c 128,-1,32
 68 1203 68 1203 68 1231 c 0,33,34
 68 1258 68 1258 78 1281.5 c 128,-1,35
 88 1305 88 1305 106 1322.5 c 128,-1,36
 124 1340 124 1340 148 1349.5 c 128,-1,37
 172 1359 172 1359 200 1359 c 0,20,21
EndSplineSet
EndChar

StartChar: copyright
Encoding: 169 169 107
Width: 1680
Flags: W
LayerCount: 2
Fore
SplineSet
841 1427 m 0,0,1
 946 1427 946 1427 1041.5 1399.5 c 128,-1,2
 1137 1372 1137 1372 1219 1323 c 128,-1,3
 1301 1274 1301 1274 1367.5 1206 c 128,-1,4
 1434 1138 1434 1138 1481 1057 c 128,-1,5
 1528 976 1528 976 1553.5 884 c 128,-1,6
 1579 792 1579 792 1579 696 c 0,7,8
 1579 592 1579 592 1551 497.5 c 128,-1,9
 1523 403 1523 403 1473.5 322 c 128,-1,10
 1424 241 1424 241 1355 175.5 c 128,-1,11
 1286 110 1286 110 1204 64 c 128,-1,12
 1122 18 1122 18 1029.5 -7 c 128,-1,13
 937 -32 937 -32 840 -32 c 0,14,15
 734 -32 734 -32 638 -4.5 c 128,-1,16
 542 23 542 23 460 71.5 c 128,-1,17
 378 120 378 120 312 188 c 128,-1,18
 246 256 246 256 199 336.5 c 128,-1,19
 152 417 152 417 127 508.5 c 128,-1,20
 102 600 102 600 102 696 c 0,21,22
 102 799 102 799 129 893 c 128,-1,23
 156 987 156 987 205.5 1068.5 c 128,-1,24
 255 1150 255 1150 323 1216 c 128,-1,25
 391 1282 391 1282 473.5 1329 c 128,-1,26
 556 1376 556 1376 649 1401.5 c 128,-1,27
 742 1427 742 1427 841 1427 c 0,0,1
1463 696 m 0,28,29
 1463 784 1463 784 1440 864.5 c 128,-1,30
 1417 945 1417 945 1375.5 1014.5 c 128,-1,31
 1334 1084 1334 1084 1276 1140.5 c 128,-1,32
 1218 1197 1218 1197 1149 1237 c 128,-1,33
 1080 1277 1080 1277 1001.5 1299 c 128,-1,34
 923 1321 923 1321 840 1321 c 0,35,36
 751 1321 751 1321 670.5 1297.5 c 128,-1,37
 590 1274 590 1274 520.5 1232 c 128,-1,38
 451 1190 451 1190 395 1132 c 128,-1,39
 339 1074 339 1074 299.5 1004.5 c 128,-1,40
 260 935 260 935 238.5 856.5 c 128,-1,41
 217 778 217 778 217 696 c 0,42,43
 217 606 217 606 240.5 525 c 128,-1,44
 264 444 264 444 306 375 c 128,-1,45
 348 306 348 306 406 250.5 c 128,-1,46
 464 195 464 195 533 156 c 128,-1,47
 602 117 602 117 679.5 96 c 128,-1,48
 757 75 757 75 839 75 c 0,49,50
 927 75 927 75 1007.5 98 c 128,-1,51
 1088 121 1088 121 1157.5 162.5 c 128,-1,52
 1227 204 1227 204 1283 261.5 c 128,-1,53
 1339 319 1339 319 1379 388 c 128,-1,54
 1419 457 1419 457 1441 535 c 128,-1,55
 1463 613 1463 613 1463 696 c 0,28,29
1198 831 m 1,56,-1
 1078 826 l 1,57,58
 1051 920 1051 920 990 968 c 128,-1,59
 929 1016 929 1016 851 1016 c 0,60,61
 801 1016 801 1016 757.5 996 c 128,-1,62
 714 976 714 976 681.5 936.5 c 128,-1,63
 649 897 649 897 630 838.5 c 128,-1,64
 611 780 611 780 611 702 c 0,65,66
 611 621 611 621 629 559 c 128,-1,67
 647 497 647 497 679 455.5 c 128,-1,68
 711 414 711 414 754.5 393 c 128,-1,69
 798 372 798 372 849 372 c 0,70,71
 921 372 921 372 985.5 414.5 c 128,-1,72
 1050 457 1050 457 1092 546 c 1,73,-1
 1197 513 l 1,74,75
 1170 448 1170 448 1131.5 401 c 128,-1,76
 1093 354 1093 354 1046 324 c 128,-1,77
 999 294 999 294 943 280 c 128,-1,78
 887 266 887 266 825 266 c 0,79,80
 738 266 738 266 665 299 c 128,-1,81
 592 332 592 332 538.5 389.5 c 128,-1,82
 485 447 485 447 455.5 525 c 128,-1,83
 426 603 426 603 426 693 c 0,84,85
 426 787 426 787 460 863 c 128,-1,86
 494 939 494 939 551.5 993 c 128,-1,87
 609 1047 609 1047 684.5 1076.5 c 128,-1,88
 760 1106 760 1106 842 1106 c 256,89,90
 924 1106 924 1106 987.5 1072.5 c 128,-1,91
 1051 1039 1051 1039 1082 988 c 1,92,-1
 1085 1115 l 1,93,-1
 1198 1111 l 1,94,-1
 1198 831 l 1,56,-1
EndSplineSet
EndChar

StartChar: ordfeminine
Encoding: 170 170 108
Width: 1054
Flags: W
LayerCount: 2
Fore
SplineSet
837 857 m 2,0,1
 837 829 837 829 839 813.5 c 128,-1,2
 841 798 841 798 846.5 791 c 128,-1,3
 852 784 852 784 862.5 782.5 c 128,-1,4
 873 781 873 781 890 781 c 2,5,-1
 923 781 l 1,6,-1
 923 672 l 1,7,8
 918 672 918 672 899.5 672 c 128,-1,9
 881 672 881 672 859 672.5 c 128,-1,10
 837 673 837 673 817 673 c 128,-1,11
 797 673 797 673 789 673 c 0,12,13
 751 672 751 672 724 672 c 128,-1,14
 697 672 697 672 659 670 c 1,15,-1
 639 759 l 1,16,17
 609 712 609 712 554.5 684.5 c 128,-1,18
 500 657 500 657 403 657 c 0,19,20
 344 657 344 657 300 672 c 128,-1,21
 256 687 256 687 226.5 713 c 128,-1,22
 197 739 197 739 182 774 c 128,-1,23
 167 809 167 809 167 848 c 0,24,25
 167 894 167 894 187 930.5 c 128,-1,26
 207 967 207 967 244.5 992.5 c 128,-1,27
 282 1018 282 1018 336 1032 c 128,-1,28
 390 1046 390 1046 458 1046 c 0,29,30
 502 1046 502 1046 546 1041 c 128,-1,31
 590 1036 590 1036 629 1026 c 1,32,-1
 629 1104 l 2,33,34
 629 1155 629 1155 593.5 1185.5 c 128,-1,35
 558 1216 558 1216 483 1216 c 0,36,37
 360 1216 360 1216 336 1118 c 1,38,-1
 224 1128 l 1,39,-1
 228 1264 l 1,40,41
 238 1268 238 1268 261.5 1275.5 c 128,-1,42
 285 1283 285 1283 320 1290.5 c 128,-1,43
 355 1298 355 1298 401.5 1303 c 128,-1,44
 448 1308 448 1308 504 1308 c 0,45,46
 592 1308 592 1308 655 1295.5 c 128,-1,47
 718 1283 718 1283 758.5 1256 c 128,-1,48
 799 1229 799 1229 818 1185.5 c 128,-1,49
 837 1142 837 1142 837 1081 c 2,50,-1
 837 857 l 2,0,1
517 975 m 0,51,52
 445 975 445 975 406 946 c 128,-1,53
 367 917 367 917 367 864 c 0,54,55
 367 813 367 813 399.5 784.5 c 128,-1,56
 432 756 432 756 482 756 c 0,57,58
 548 756 548 756 588.5 791 c 128,-1,59
 629 826 629 826 629 890 c 2,60,-1
 629 960 l 1,61,62
 600 968 600 968 573 971.5 c 128,-1,63
 546 975 546 975 517 975 c 0,51,52
EndSplineSet
EndChar

StartChar: guillemotleft
Encoding: 171 171 109
Width: 1232
Flags: W
LayerCount: 2
Fore
SplineSet
623 851 m 1,0,-1
 380 454 l 1,1,-1
 623 59 l 1,2,-1
 338 59 l 1,3,-1
 98 454 l 1,4,-1
 338 851 l 1,5,-1
 623 851 l 1,0,-1
1157 851 m 1,6,-1
 913 454 l 1,7,-1
 1157 59 l 1,8,-1
 872 59 l 1,9,-1
 638 454 l 1,10,-1
 872 851 l 1,11,-1
 1157 851 l 1,6,-1
EndSplineSet
EndChar

StartChar: logicalnot
Encoding: 172 172 110
Width: 1537
Flags: W
LayerCount: 2
Fore
SplineSet
1348 337 m 1,0,-1
 1152 337 l 1,1,-1
 1152 752 l 1,2,-1
 187 752 l 1,3,-1
 187 949 l 1,4,-1
 1348 949 l 1,5,-1
 1348 337 l 1,0,-1
EndSplineSet
EndChar

StartChar: uni00AD
Encoding: 173 173 111
Width: 894
Flags: W
LayerCount: 2
Fore
SplineSet
98 649 m 1,0,-1
 795 649 l 1,1,-1
 795 308 l 1,2,-1
 98 308 l 1,3,-1
 98 649 l 1,0,-1
EndSplineSet
EndChar

StartChar: registered
Encoding: 174 174 112
Width: 1680
Flags: W
LayerCount: 2
Fore
SplineSet
1228 399 m 1,0,-1
 1228 312 l 1,1,-1
 1126 312 l 2,2,3
 1079 312 1079 312 1047.5 331 c 128,-1,4
 1016 350 1016 350 995 382.5 c 128,-1,5
 974 415 974 415 961 459 c 128,-1,6
 948 503 948 503 939 553 c 1,7,8
 930 588 930 588 915 610.5 c 128,-1,9
 900 633 900 633 878.5 645.5 c 128,-1,10
 857 658 857 658 830 663 c 128,-1,11
 803 668 803 668 770 668 c 2,12,-1
 690 668 l 1,13,-1
 690 444 l 2,14,15
 690 430 690 430 692.5 420.5 c 128,-1,16
 695 411 695 411 702.5 405 c 128,-1,17
 710 399 710 399 723.5 396 c 128,-1,18
 737 393 737 393 759 392 c 1,19,-1
 759 304 l 1,20,21
 745 304 745 304 724.5 304 c 128,-1,22
 704 304 704 304 682.5 304.5 c 128,-1,23
 661 305 661 305 640 305 c 128,-1,24
 619 305 619 305 605 305 c 0,25,26
 593 305 593 305 574.5 305 c 128,-1,27
 556 305 556 305 537.5 304.5 c 128,-1,28
 519 304 519 304 503 304 c 128,-1,29
 487 304 487 304 479 304 c 1,30,-1
 479 392 l 1,31,32
 504 393 504 393 518 398 c 128,-1,33
 532 403 532 403 539 412 c 128,-1,34
 546 421 546 421 548 433.5 c 128,-1,35
 550 446 550 446 550 463 c 2,36,-1
 550 966 l 2,37,38
 550 983 550 983 548 996.5 c 128,-1,39
 546 1010 546 1010 538.5 1019.5 c 128,-1,40
 531 1029 531 1029 517 1034 c 128,-1,41
 503 1039 503 1039 479 1041 c 1,42,-1
 479 1108 l 1,43,-1
 788 1108 l 2,44,45
 861 1108 861 1108 929.5 1100 c 128,-1,46
 998 1092 998 1092 1050.5 1068 c 128,-1,47
 1103 1044 1103 1044 1135 1001.5 c 128,-1,48
 1167 959 1167 959 1167 890 c 0,49,50
 1167 819 1167 819 1112 766 c 128,-1,51
 1057 713 1057 713 954 693 c 1,52,53
 979 684 979 684 1001 672.5 c 128,-1,54
 1023 661 1023 661 1041 645 c 128,-1,55
 1059 629 1059 629 1072.5 606 c 128,-1,56
 1086 583 1086 583 1093 550 c 0,57,58
 1096 535 1096 535 1100 510 c 128,-1,59
 1104 485 1104 485 1114 460 c 128,-1,60
 1124 435 1124 435 1142 417 c 128,-1,61
 1160 399 1160 399 1192 399 c 2,62,-1
 1228 399 l 1,0,-1
690 751 m 1,63,-1
 791 751 l 2,64,65
 899 751 899 751 954 779 c 128,-1,66
 1009 807 1009 807 1009 877 c 0,67,68
 1009 952 1009 952 964 982.5 c 128,-1,69
 919 1013 919 1013 825 1013 c 0,70,71
 816 1013 816 1013 793.5 1012.5 c 128,-1,72
 771 1012 771 1012 748 1012 c 2,73,-1
 690 1012 l 1,74,-1
 690 751 l 1,63,-1
841 1427 m 0,75,76
 947 1427 947 1427 1042.5 1399.5 c 128,-1,77
 1138 1372 1138 1372 1220 1323 c 128,-1,78
 1302 1274 1302 1274 1368.5 1206 c 128,-1,79
 1435 1138 1435 1138 1481.5 1056.5 c 128,-1,80
 1528 975 1528 975 1553.5 883.5 c 128,-1,81
 1579 792 1579 792 1579 696 c 0,82,83
 1579 592 1579 592 1551 497.5 c 128,-1,84
 1523 403 1523 403 1473.5 322 c 128,-1,85
 1424 241 1424 241 1355 175.5 c 128,-1,86
 1286 110 1286 110 1204 64 c 128,-1,87
 1122 18 1122 18 1029 -7 c 128,-1,88
 936 -32 936 -32 839 -32 c 0,89,90
 733 -32 733 -32 637.5 -4.5 c 128,-1,91
 542 23 542 23 460 72 c 128,-1,92
 378 121 378 121 312 188.5 c 128,-1,93
 246 256 246 256 199 337 c 128,-1,94
 152 418 152 418 127 509 c 128,-1,95
 102 600 102 600 102 696 c 0,96,97
 102 799 102 799 129 893 c 128,-1,98
 156 987 156 987 205.5 1068.5 c 128,-1,99
 255 1150 255 1150 323 1216 c 128,-1,100
 391 1282 391 1282 473.5 1329 c 128,-1,101
 556 1376 556 1376 649 1401.5 c 128,-1,102
 742 1427 742 1427 841 1427 c 0,75,76
1463 696 m 0,103,104
 1463 785 1463 785 1439.5 866 c 128,-1,105
 1416 947 1416 947 1374.5 1016.5 c 128,-1,106
 1333 1086 1333 1086 1275 1142 c 128,-1,107
 1217 1198 1217 1198 1148 1238 c 128,-1,108
 1079 1278 1079 1278 1000.5 1299.5 c 128,-1,109
 922 1321 922 1321 840 1321 c 0,110,111
 752 1321 752 1321 671.5 1297.5 c 128,-1,112
 591 1274 591 1274 521.5 1232 c 128,-1,113
 452 1190 452 1190 396 1132 c 128,-1,114
 340 1074 340 1074 300 1004.5 c 128,-1,115
 260 935 260 935 238.5 856.5 c 128,-1,116
 217 778 217 778 217 696 c 0,117,118
 217 606 217 606 240.5 525 c 128,-1,119
 264 444 264 444 306 375 c 128,-1,120
 348 306 348 306 406 250.5 c 128,-1,121
 464 195 464 195 533 156 c 128,-1,122
 602 117 602 117 679.5 96 c 128,-1,123
 757 75 757 75 839 75 c 0,124,125
 927 75 927 75 1007.5 98 c 128,-1,126
 1088 121 1088 121 1157.5 162.5 c 128,-1,127
 1227 204 1227 204 1283 261.5 c 128,-1,128
 1339 319 1339 319 1379 388 c 128,-1,129
 1419 457 1419 457 1441 535 c 128,-1,130
 1463 613 1463 613 1463 696 c 0,103,104
EndSplineSet
EndChar

StartChar: macron
Encoding: 175 175 113
Width: 682
Flags: W
LayerCount: 2
Fore
SplineSet
-110 1368 m 1,0,-1
 793 1368 l 1,1,-1
 793 1214 l 1,2,-1
 -110 1214 l 1,3,-1
 -110 1368 l 1,0,-1
EndSplineSet
EndChar

StartChar: degree
Encoding: 176 176 114
Width: 746
Flags: W
LayerCount: 2
Fore
SplineSet
374 1421 m 0,0,1
 441 1421 441 1421 500.5 1395.5 c 128,-1,2
 560 1370 560 1370 604 1326 c 128,-1,3
 648 1282 648 1282 673.5 1223.5 c 128,-1,4
 699 1165 699 1165 699 1098 c 0,5,6
 699 1030 699 1030 673 971.5 c 128,-1,7
 647 913 647 913 602.5 869.5 c 128,-1,8
 558 826 558 826 498.5 801 c 128,-1,9
 439 776 439 776 373 776 c 0,10,11
 305 776 305 776 245.5 801.5 c 128,-1,12
 186 827 186 827 142 870.5 c 128,-1,13
 98 914 98 914 72.5 972.5 c 128,-1,14
 47 1031 47 1031 47 1098 c 256,15,16
 47 1165 47 1165 72.5 1224 c 128,-1,17
 98 1283 98 1283 142.5 1326.5 c 128,-1,18
 187 1370 187 1370 246.5 1395.5 c 128,-1,19
 306 1421 306 1421 374 1421 c 0,0,1
561 1098 m 0,20,21
 561 1134 561 1134 547 1168 c 128,-1,22
 533 1202 533 1202 507.5 1228 c 128,-1,23
 482 1254 482 1254 447.5 1269.5 c 128,-1,24
 413 1285 413 1285 373 1285 c 0,25,26
 332 1285 332 1285 297.5 1270 c 128,-1,27
 263 1255 263 1255 237.5 1229.5 c 128,-1,28
 212 1204 212 1204 198 1170 c 128,-1,29
 184 1136 184 1136 184 1098 c 256,30,31
 184 1060 184 1060 198.5 1026.5 c 128,-1,32
 213 993 213 993 238 967.5 c 128,-1,33
 263 942 263 942 297.5 927 c 128,-1,34
 332 912 332 912 373 912 c 0,35,36
 412 912 412 912 446 926.5 c 128,-1,37
 480 941 480 941 505.5 966.5 c 128,-1,38
 531 992 531 992 546 1025.5 c 128,-1,39
 561 1059 561 1059 561 1098 c 0,20,21
EndSplineSet
EndChar

StartChar: plusminus
Encoding: 177 177 115
Width: 1537
Flags: W
LayerCount: 2
Fore
SplineSet
868 932 m 1,0,-1
 1348 932 l 1,1,-1
 1348 736 l 1,2,-1
 868 736 l 1,3,-1
 868 371 l 1,4,-1
 669 371 l 1,5,-1
 669 736 l 1,6,-1
 188 736 l 1,7,-1
 188 932 l 1,8,-1
 669 932 l 1,9,-1
 669 1297 l 1,10,-1
 868 1297 l 1,11,-1
 868 932 l 1,0,-1
1348 15 m 1,12,-1
 188 15 l 1,13,-1
 188 211 l 1,14,-1
 1348 211 l 1,15,-1
 1348 15 l 1,12,-1
EndSplineSet
EndChar

StartChar: threesuperior
Encoding: 179 179 116
Width: 1258
Flags: W
LayerCount: 2
Fore
SplineSet
325 872 m 1,0,1
 326 797 326 797 355 762 c 128,-1,2
 384 727 384 727 439 727 c 0,3,4
 480 727 480 727 508.5 750.5 c 128,-1,5
 537 774 537 774 537 822 c 0,6,7
 537 846 537 846 524 863.5 c 128,-1,8
 511 881 511 881 487 892 c 128,-1,9
 463 903 463 903 429.5 908 c 128,-1,10
 396 913 396 913 356 914 c 1,11,-1
 356 1040 l 1,12,13
 430 1048 430 1048 469.5 1069.5 c 128,-1,14
 509 1091 509 1091 509 1134 c 0,15,16
 509 1169 509 1169 488 1191 c 128,-1,17
 467 1213 467 1213 432 1213 c 0,18,19
 382 1213 382 1213 362 1180.5 c 128,-1,20
 342 1148 342 1148 342 1088 c 1,21,-1
 150 1091 l 1,22,-1
 150 1296 l 1,23,24
 210 1336 210 1336 282.5 1357 c 128,-1,25
 355 1378 355 1378 437 1378 c 0,26,27
 507 1378 507 1378 563 1362 c 128,-1,28
 619 1346 619 1346 658 1316 c 128,-1,29
 697 1286 697 1286 717.5 1242.5 c 128,-1,30
 738 1199 738 1199 738 1144 c 0,31,32
 738 1119 738 1119 730 1094.5 c 128,-1,33
 722 1070 722 1070 705.5 1049.5 c 128,-1,34
 689 1029 689 1029 664.5 1013.5 c 128,-1,35
 640 998 640 998 606 991 c 1,36,37
 684 975 684 975 722 924 c 128,-1,38
 760 873 760 873 760 807 c 0,39,40
 760 747 760 747 737 699.5 c 128,-1,41
 714 652 714 652 671 619 c 128,-1,42
 628 586 628 586 566 568.5 c 128,-1,43
 504 551 504 551 425 551 c 0,44,45
 372 551 372 551 321 565 c 128,-1,46
 270 579 270 579 229 615 c 128,-1,47
 188 651 188 651 162 712 c 128,-1,48
 136 773 136 773 134 867 c 1,49,-1
 325 872 l 1,0,1
EndSplineSet
EndChar

StartChar: acute
Encoding: 180 180 117
Width: 853
Flags: W
LayerCount: 2
Fore
SplineSet
458 1338 m 2,0,1
 481 1369 481 1369 516 1387 c 128,-1,2
 551 1405 551 1405 589 1405 c 0,3,4
 620 1405 620 1405 650 1396.5 c 128,-1,5
 680 1388 680 1388 703 1377 c 128,-1,6
 726 1366 726 1366 737.5 1354.5 c 128,-1,7
 749 1343 749 1343 743 1337 c 2,8,-1
 381 1048 l 1,9,-1
 242 1048 l 1,10,-1
 458 1338 l 2,0,1
EndSplineSet
EndChar

StartChar: mu
Encoding: 181 181 118
Width: 1229
Flags: W
LayerCount: 2
Fore
SplineSet
223 -433 m 0,0,1
 205 -433 205 -433 187 -428 c 128,-1,2
 169 -423 169 -423 154.5 -408.5 c 128,-1,3
 140 -394 140 -394 130.5 -369 c 128,-1,4
 121 -344 121 -344 121 -304 c 0,5,6
 121 -232 121 -232 128.5 -140.5 c 128,-1,7
 136 -49 136 -49 145 48.5 c 128,-1,8
 154 146 154 146 161.5 243 c 128,-1,9
 169 340 169 340 169 424 c 2,10,-1
 169 674 l 2,11,12
 169 702 169 702 163.5 717 c 128,-1,13
 158 732 158 732 144 738.5 c 128,-1,14
 130 745 130 745 105.5 746 c 128,-1,15
 81 747 81 747 43 747 c 1,16,-1
 43 907 l 1,17,18
 59 907 59 907 85.5 907 c 128,-1,19
 112 907 112 907 139 906.5 c 128,-1,20
 166 906 166 906 187.5 906 c 128,-1,21
 209 906 209 906 216 906 c 0,22,23
 282 907 282 907 345.5 908 c 128,-1,24
 409 909 409 909 475 911 c 1,25,-1
 475 398 l 2,26,27
 475 343 475 343 482 300 c 128,-1,28
 489 257 489 257 506.5 228 c 128,-1,29
 524 199 524 199 554 183.5 c 128,-1,30
 584 168 584 168 630 168 c 0,31,32
 715 168 715 168 768.5 195 c 128,-1,33
 822 222 822 222 848 265 c 0,34,35
 853 272 853 272 856 297.5 c 128,-1,36
 859 323 859 323 860.5 353 c 128,-1,37
 862 383 862 383 862 410 c 128,-1,38
 862 437 862 437 862 449 c 2,39,-1
 862 655 l 2,40,41
 862 690 862 690 856.5 708.5 c 128,-1,42
 851 727 851 727 836 735.5 c 128,-1,43
 821 744 821 744 794.5 745.5 c 128,-1,44
 768 747 768 747 725 747 c 1,45,-1
 725 907 l 1,46,47
 773 906 773 906 820 906 c 128,-1,48
 867 906 867 906 927 906 c 0,49,50
 989 907 989 907 1048 908 c 128,-1,51
 1107 909 1107 909 1167 911 c 1,52,-1
 1167 223 l 2,53,54
 1167 203 1167 203 1172.5 190.5 c 128,-1,55
 1178 178 1178 178 1192 171 c 128,-1,56
 1206 164 1206 164 1230 162 c 128,-1,57
 1254 160 1254 160 1291 160 c 1,58,-1
 1291 0 l 1,59,60
 1244 0 1244 0 1207.5 0.5 c 128,-1,61
 1171 1 1171 1 1133 1 c 0,62,63
 1067 0 1067 0 1002 -0.5 c 128,-1,64
 937 -1 937 -1 871 -3 c 1,65,-1
 871 137 l 1,66,67
 804 56 804 56 702 17.5 c 128,-1,68
 600 -21 600 -21 477 -21 c 0,69,70
 414 -21 414 -21 374 -3 c 1,71,72
 374 -80 374 -80 372 -154 c 128,-1,73
 370 -228 370 -228 365 -277 c 1,74,75
 354 -364 354 -364 318 -398.5 c 128,-1,76
 282 -433 282 -433 223 -433 c 0,0,1
EndSplineSet
EndChar

StartChar: paragraph
Encoding: 182 182 119
Width: 1387
Flags: W
LayerCount: 2
Fore
SplineSet
1144 1257 m 1,0,-1
 1144 -220 l 1,1,-1
 964 -220 l 1,2,-1
 964 1257 l 1,3,-1
 771 1257 l 1,4,-1
 771 -220 l 1,5,-1
 589 -220 l 1,6,-1
 589 662 l 1,7,8
 464 663 464 663 373.5 692 c 128,-1,9
 283 721 283 721 224 772 c 128,-1,10
 165 823 165 823 137 894.5 c 128,-1,11
 109 966 109 966 109 1052 c 0,12,13
 109 1160 109 1160 151 1233 c 128,-1,14
 193 1306 193 1306 267.5 1350 c 128,-1,15
 342 1394 342 1394 445.5 1412.5 c 128,-1,16
 549 1431 549 1431 672 1431 c 2,17,-1
 1287 1431 l 1,18,-1
 1287 1257 l 1,19,-1
 1144 1257 l 1,0,-1
EndSplineSet
EndChar

StartChar: periodcentered
Encoding: 183 183 120
Width: 646
Flags: W
LayerCount: 2
Fore
SplineSet
318 869 m 0,0,1
 357 869 357 869 388.5 860 c 128,-1,2
 420 851 420 851 442.5 835.5 c 128,-1,3
 465 820 465 820 477.5 797.5 c 128,-1,4
 490 775 490 775 490 748 c 0,5,6
 490 695 490 695 446 660.5 c 128,-1,7
 402 626 402 626 318 626 c 0,8,9
 236 626 236 626 190.5 658 c 128,-1,10
 145 690 145 690 145 748 c 0,11,12
 145 800 145 800 191 834.5 c 128,-1,13
 237 869 237 869 318 869 c 0,0,1
EndSplineSet
EndChar

StartChar: cedilla
Encoding: 184 184 121
Width: 853
Flags: W
LayerCount: 2
Fore
SplineSet
470 -3 m 1,0,-1
 467 -77 l 1,1,2
 471 -76 471 -76 478 -76 c 128,-1,3
 485 -76 485 -76 491 -76 c 0,4,5
 536 -76 536 -76 572.5 -89 c 128,-1,6
 609 -102 609 -102 635 -125 c 128,-1,7
 661 -148 661 -148 675 -181 c 128,-1,8
 689 -214 689 -214 689 -253 c 0,9,10
 689 -296 689 -296 671 -329.5 c 128,-1,11
 653 -363 653 -363 620 -386 c 128,-1,12
 587 -409 587 -409 540 -421 c 128,-1,13
 493 -433 493 -433 436 -434 c 0,14,15
 391 -434 391 -434 334 -423.5 c 128,-1,16
 277 -413 277 -413 210 -384 c 1,17,-1
 236 -293 l 1,18,19
 274 -309 274 -309 313.5 -317.5 c 128,-1,20
 353 -326 353 -326 385 -326 c 0,21,22
 489 -326 489 -326 489 -247 c 0,23,24
 489 -211 489 -211 463.5 -194.5 c 128,-1,25
 438 -178 438 -178 395 -177 c 0,26,27
 387 -177 387 -177 379.5 -178 c 128,-1,28
 372 -179 372 -179 364 -181 c 1,29,-1
 374 -3 l 1,30,-1
 470 -3 l 1,0,-1
EndSplineSet
EndChar

StartChar: ordmasculine
Encoding: 186 186 122
Width: 857
Flags: W
LayerCount: 2
Fore
SplineSet
424 1331 m 0,0,1
 510 1331 510 1331 581 1309 c 128,-1,2
 652 1287 652 1287 703 1246 c 128,-1,3
 754 1205 754 1205 782 1146.5 c 128,-1,4
 810 1088 810 1088 810 1014 c 256,5,6
 810 940 810 940 782.5 880.5 c 128,-1,7
 755 821 755 821 705 779.5 c 128,-1,8
 655 738 655 738 585.5 716 c 128,-1,9
 516 694 516 694 431 694 c 0,10,11
 344 694 344 694 273 716 c 128,-1,12
 202 738 202 738 152 779.5 c 128,-1,13
 102 821 102 821 74.5 880.5 c 128,-1,14
 47 940 47 940 47 1014 c 0,15,16
 47 1087 47 1087 74.5 1145.5 c 128,-1,17
 102 1204 102 1204 151.5 1245 c 128,-1,18
 201 1286 201 1286 270.5 1308.5 c 128,-1,19
 340 1331 340 1331 424 1331 c 0,0,1
431 1213 m 0,20,21
 353 1213 353 1213 311 1161.5 c 128,-1,22
 269 1110 269 1110 269 1013 c 0,23,24
 269 919 269 919 309.5 867.5 c 128,-1,25
 350 816 350 816 428 816 c 0,26,27
 505 816 505 816 546.5 867.5 c 128,-1,28
 588 919 588 919 588 1016 c 0,29,30
 588 1110 588 1110 547 1161.5 c 128,-1,31
 506 1213 506 1213 431 1213 c 0,20,21
EndSplineSet
EndChar

StartChar: guillemotright
Encoding: 187 187 123
Width: 1232
Flags: W
LayerCount: 2
Fore
SplineSet
433 851 m 1,0,-1
 673 456 l 1,1,-1
 433 59 l 1,2,-1
 148 59 l 1,3,-1
 392 456 l 1,4,-1
 148 851 l 1,5,-1
 433 851 l 1,0,-1
822 851 m 1,6,-1
 1061 456 l 1,7,-1
 822 59 l 1,8,-1
 520 59 l 1,9,-1
 779 456 l 1,10,-1
 536 851 l 1,11,-1
 822 851 l 1,6,-1
EndSplineSet
EndChar

StartChar: AE
Encoding: 198 198 134
Width: 2010
Flags: W
LayerCount: 2
Fore
SplineSet
598 1117 m 1,0,-1
 714 1308 l 1,1,-1
 1908 1308 l 1,2,-1
 1908 942 l 1,3,-1
 1712 942 l 1,4,-1
 1712 987 l 2,5,6
 1712 1033 1712 1033 1708 1058.5 c 128,-1,7
 1704 1084 1704 1084 1696.5 1096 c 128,-1,8
 1689 1108 1689 1108 1677.5 1110 c 128,-1,9
 1666 1112 1666 1112 1651 1112 c 2,10,-1
 1234 1112 l 1,11,-1
 1234 749 l 1,12,-1
 1484 749 l 2,13,14
 1493 749 1493 749 1501.5 750.5 c 128,-1,15
 1510 752 1510 752 1516.5 759.5 c 128,-1,16
 1523 767 1523 767 1527 784 c 128,-1,17
 1531 801 1531 801 1531 832 c 1,18,-1
 1613 832 l 1,19,-1
 1613 501 l 1,20,-1
 1531 501 l 1,21,22
 1531 532 1531 532 1527.5 548.5 c 128,-1,23
 1524 565 1524 565 1518 572.5 c 128,-1,24
 1512 580 1512 580 1503.5 581.5 c 128,-1,25
 1495 583 1495 583 1485 583 c 2,26,-1
 1234 583 l 1,27,-1
 1234 197 l 1,28,-1
 1661 197 l 2,29,30
 1679 197 1679 197 1690 201 c 128,-1,31
 1701 205 1701 205 1707 223.5 c 128,-1,32
 1713 242 1713 242 1715.5 280 c 128,-1,33
 1718 318 1718 318 1718 386 c 1,34,-1
 1912 386 l 1,35,-1
 1912 0 l 1,36,-1
 747 0 l 1,37,-1
 747 178 l 1,38,-1
 791 178 l 2,39,40
 833 178 833 178 856.5 182.5 c 128,-1,41
 880 187 880 187 891 194.5 c 128,-1,42
 902 202 902 202 904 212 c 128,-1,43
 906 222 906 222 906 233 c 2,44,-1
 906 508 l 1,45,-1
 472 508 l 1,46,-1
 359 314 l 2,47,48
 335 273 335 273 322 247.5 c 128,-1,49
 309 222 309 222 309 207 c 0,50,51
 309 189 309 189 330.5 183.5 c 128,-1,52
 352 178 352 178 400 178 c 2,53,-1
 457 178 l 1,54,-1
 457 0 l 1,55,56
 392 1 392 1 335.5 1.5 c 128,-1,57
 279 2 279 2 213 2 c 0,58,59
 174 2 174 2 140 2 c 128,-1,60
 106 2 106 2 74 1.5 c 128,-1,61
 42 1 42 1 9 0.5 c 128,-1,62
 -24 0 -24 0 -61 0 c 1,63,-1
 -61 178 l 1,64,65
 -21 178 -21 178 4.5 186.5 c 128,-1,66
 30 195 30 195 49.5 213.5 c 128,-1,67
 69 232 69 232 87.5 263 c 128,-1,68
 106 294 106 294 133 339 c 2,69,-1
 598 1117 l 1,0,-1
559 673 m 1,70,-1
 902 673 l 1,71,-1
 902 1130 l 1,72,-1
 826 1130 l 1,73,-1
 559 673 l 1,70,-1
EndSplineSet
EndChar

StartChar: Eth
Encoding: 208 208 144
Width: 1584
Flags: W
LayerCount: 2
Fore
SplineSet
727 792 m 1,0,-1
 727 527 l 1,1,-1
 66 527 l 1,2,-1
 66 792 l 1,3,-1
 727 792 l 1,0,-1
625 1308 m 2,4,5
 1051 1308 1051 1308 1260 1146.5 c 128,-1,6
 1469 985 1469 985 1469 661 c 0,7,8
 1469 474 1469 474 1410.5 347.5 c 128,-1,9
 1352 221 1352 221 1244.5 143.5 c 128,-1,10
 1137 66 1137 66 985.5 33 c 128,-1,11
 834 0 834 0 647 0 c 2,12,-1
 65 0 l 1,13,-1
 65 178 l 1,14,-1
 114 178 l 2,15,16
 145 178 145 178 163 186.5 c 128,-1,17
 181 195 181 195 190 209.5 c 128,-1,18
 199 224 199 224 201.5 244 c 128,-1,19
 204 264 204 264 204 288 c 0,20,21
 204 291 204 291 204 324.5 c 128,-1,22
 204 358 204 358 203.5 411 c 128,-1,23
 203 464 203 464 203 531 c 128,-1,24
 203 598 203 598 203 667 c 2,25,-1
 203 1035 l 2,26,27
 203 1056 203 1056 199.5 1073 c 128,-1,28
 196 1090 196 1090 186.5 1103 c 128,-1,29
 177 1116 177 1116 159.5 1123.5 c 128,-1,30
 142 1131 142 1131 114 1131 c 2,31,-1
 65 1131 l 1,32,-1
 65 1308 l 1,33,-1
 625 1308 l 2,4,5
531 194 m 1,34,-1
 675 194 l 2,35,36
 785 194 785 194 867.5 221 c 128,-1,37
 950 248 950 248 1004.5 305.5 c 128,-1,38
 1059 363 1059 363 1086.5 452 c 128,-1,39
 1114 541 1114 541 1114 665 c 0,40,41
 1114 899 1114 899 1005.5 1006.5 c 128,-1,42
 897 1114 897 1114 674 1114 c 2,43,-1
 531 1114 l 1,44,-1
 531 194 l 1,34,-1
EndSplineSet
EndChar

StartChar: multiply
Encoding: 215 215 151
Width: 1536
Flags: W
LayerCount: 2
Fore
SplineSet
1184 1184 m 1,0,-1
 1323 1046 l 1,1,-1
 911 637 l 1,2,-1
 1324 230 l 1,3,-1
 1184 90 l 1,4,-1
 771 499 l 1,5,-1
 357 90 l 1,6,-1
 219 230 l 1,7,-1
 631 637 l 1,8,-1
 220 1046 l 1,9,-1
 357 1184 l 1,10,-1
 771 776 l 1,11,-1
 1184 1184 l 1,0,-1
EndSplineSet
EndChar

StartChar: Oslash
Encoding: 216 216 152
Width: 1575
Flags: W
LayerCount: 2
Fore
SplineSet
1393 1319 m 1,0,-1
 1271 1160 l 1,1,2
 1368 1073 1368 1073 1421.5 947 c 128,-1,3
 1475 821 1475 821 1475 650 c 0,4,5
 1475 498 1475 498 1427 373.5 c 128,-1,6
 1379 249 1379 249 1289.5 160 c 128,-1,7
 1200 71 1200 71 1072.5 22.5 c 128,-1,8
 945 -26 945 -26 787 -26 c 0,9,10
 671 -26 671 -26 578 -2.5 c 128,-1,11
 485 21 485 21 404 72 c 1,12,-1
 292 -78 l 1,13,-1
 161 -27 l 1,14,-1
 295 151 l 1,15,16
 197 242 197 242 148 367 c 128,-1,17
 99 492 99 492 99 649 c 0,18,19
 99 801 99 801 146.5 927 c 128,-1,20
 194 1053 194 1053 283 1144 c 128,-1,21
 372 1235 372 1235 499.5 1285 c 128,-1,22
 627 1335 627 1335 787 1335 c 0,23,24
 895 1335 895 1335 992 1310 c 128,-1,25
 1089 1285 1089 1285 1164 1237 c 1,26,-1
 1261 1364 l 1,27,-1
 1393 1319 l 1,0,-1
1011 1051 m 1,28,29
 965 1103 965 1103 912 1125 c 128,-1,30
 859 1147 859 1147 788 1147 c 0,31,32
 621 1147 621 1147 539 1018 c 128,-1,33
 457 889 457 889 457 649 c 0,34,35
 457 583 457 583 469.5 528.5 c 128,-1,36
 482 474 482 474 513 421 c 1,37,-1
 1011 1051 l 1,28,29
562 267 m 1,38,39
 643 165 643 165 787 165 c 0,40,41
 876 165 876 165 938.5 201 c 128,-1,42
 1001 237 1001 237 1040.5 303 c 128,-1,43
 1080 369 1080 369 1098 461.5 c 128,-1,44
 1116 554 1116 554 1116 667 c 0,45,46
 1116 736 1116 736 1103 794.5 c 128,-1,47
 1090 853 1090 853 1063 901 c 1,48,-1
 562 267 l 1,38,39
EndSplineSet
EndChar

StartChar: Thorn
Encoding: 222 222 158
Width: 1357
Flags: W
LayerCount: 2
Fore
SplineSet
73 1308 m 1,0,1
 88 1308 88 1308 130 1307.5 c 128,-1,2
 172 1307 172 1307 224.5 1306.5 c 128,-1,3
 277 1306 277 1306 332 1305.5 c 128,-1,4
 387 1305 387 1305 426 1305 c 0,5,6
 564 1305 564 1305 707 1308 c 1,7,-1
 707 1196 l 1,8,-1
 672 1196 l 2,9,10
 646 1196 646 1196 625 1193.5 c 128,-1,11
 604 1191 604 1191 588 1182 c 128,-1,12
 572 1173 572 1173 563.5 1155 c 128,-1,13
 555 1137 555 1137 555 1105 c 2,14,-1
 555 1056 l 1,15,-1
 773 1056 l 2,16,17
 914 1056 914 1056 1014 1026.5 c 128,-1,18
 1114 997 1114 997 1177.5 945 c 128,-1,19
 1241 893 1241 893 1270.5 822 c 128,-1,20
 1300 751 1300 751 1300 667 c 0,21,22
 1300 581 1300 581 1274.5 509.5 c 128,-1,23
 1249 438 1249 438 1185.5 386.5 c 128,-1,24
 1122 335 1122 335 1013 306.5 c 128,-1,25
 904 278 904 278 737 278 c 2,26,-1
 555 278 l 1,27,-1
 555 227 l 2,28,29
 555 191 555 191 560.5 168 c 128,-1,30
 566 145 566 145 579.5 132.5 c 128,-1,31
 593 120 593 120 616 115.5 c 128,-1,32
 639 111 639 111 674 111 c 2,33,-1
 709 111 l 1,34,-1
 709 0 l 1,35,36
 674 0 674 0 641 0 c 128,-1,37
 608 0 608 0 573 0.5 c 128,-1,38
 538 1 538 1 498.5 1.5 c 128,-1,39
 459 2 459 2 412 2 c 0,40,41
 359 2 359 2 314.5 1.5 c 128,-1,42
 270 1 270 1 229.5 1 c 128,-1,43
 189 1 189 1 151 0.5 c 128,-1,44
 113 0 113 0 73 0 c 1,45,-1
 73 111 l 1,46,-1
 112 111 l 2,47,48
 154 111 154 111 178 122.5 c 128,-1,49
 202 134 202 134 213 154.5 c 128,-1,50
 224 175 224 175 226.5 202 c 128,-1,51
 229 229 229 229 229 259 c 0,52,53
 229 279 229 279 228 300.5 c 128,-1,54
 227 322 227 322 227 343 c 2,55,-1
 227 1059 l 2,56,57
 227 1087 227 1087 222.5 1112 c 128,-1,58
 218 1137 218 1137 207.5 1155.5 c 128,-1,59
 197 1174 197 1174 179 1185 c 128,-1,60
 161 1196 161 1196 133 1196 c 2,61,-1
 73 1196 l 1,62,-1
 73 1308 l 1,0,1
555 458 m 1,63,-1
 713 458 l 2,64,65
 847 458 847 458 907.5 513 c 128,-1,66
 968 568 968 568 968 671 c 0,67,68
 968 773 968 773 905 823 c 128,-1,69
 842 873 842 873 698 873 c 2,70,-1
 555 873 l 1,71,-1
 555 458 l 1,63,-1
EndSplineSet
EndChar

StartChar: germandbls
Encoding: 223 223 159
Width: 1337
Flags: W
LayerCount: 2
Fore
SplineSet
960 742 m 1,0,1
 961 741 961 741 961.5 741 c 128,-1,2
 962 741 962 741 963 740 c 0,3,4
 1109 716 1109 716 1187 625.5 c 128,-1,5
 1265 535 1265 535 1265 383 c 0,6,7
 1265 294 1265 294 1239.5 219.5 c 128,-1,8
 1214 145 1214 145 1163 91 c 128,-1,9
 1112 37 1112 37 1034.5 7 c 128,-1,10
 957 -23 957 -23 853 -23 c 0,11,12
 824 -23 824 -23 792 -18.5 c 128,-1,13
 760 -14 760 -14 728 -4 c 1,14,-1
 728 133 l 1,15,16
 739 132 739 132 751.5 132.5 c 128,-1,17
 764 133 764 133 776 135 c 0,18,19
 813 140 813 140 845 155.5 c 128,-1,20
 877 171 877 171 900.5 200 c 128,-1,21
 924 229 924 229 937 273.5 c 128,-1,22
 950 318 950 318 950 383 c 0,23,24
 950 457 950 457 936.5 508 c 128,-1,25
 923 559 923 559 891.5 592 c 128,-1,26
 860 625 860 625 808.5 642.5 c 128,-1,27
 757 660 757 660 681 666 c 1,28,-1
 681 801 l 1,29,30
 780 805 780 805 824 854 c 128,-1,31
 868 903 868 903 868 999 c 0,32,33
 868 1088 868 1088 816 1137 c 128,-1,34
 764 1186 764 1186 679 1186 c 0,35,36
 576 1186 576 1186 527.5 1121.5 c 128,-1,37
 479 1057 479 1057 479 920 c 2,38,-1
 479 254 l 2,39,40
 479 227 479 227 482.5 209.5 c 128,-1,41
 486 192 486 192 498.5 182 c 128,-1,42
 511 172 511 172 534.5 168 c 128,-1,43
 558 164 558 164 598 164 c 1,44,-1
 598 0 l 1,45,46
 565 0 565 0 533.5 0.5 c 128,-1,47
 502 1 502 1 469 1 c 128,-1,48
 436 1 436 1 399.5 1.5 c 128,-1,49
 363 2 363 2 320 2 c 0,50,51
 237 2 237 2 172.5 1 c 128,-1,52
 108 0 108 0 42 0 c 1,53,-1
 42 164 l 1,54,55
 90 164 90 164 117 165.5 c 128,-1,56
 144 167 144 167 156.5 176.5 c 128,-1,57
 169 186 169 186 171.5 206 c 128,-1,58
 174 226 174 226 174 263 c 2,59,-1
 174 876 l 2,60,61
 174 992 174 992 202 1078.5 c 128,-1,62
 230 1165 230 1165 291.5 1222 c 128,-1,63
 353 1279 353 1279 451 1307 c 128,-1,64
 549 1335 549 1335 689 1335 c 0,65,66
 801 1335 801 1335 890 1314.5 c 128,-1,67
 979 1294 979 1294 1041.5 1253.5 c 128,-1,68
 1104 1213 1104 1213 1137.5 1152 c 128,-1,69
 1171 1091 1171 1091 1171 1009 c 0,70,71
 1171 906 1171 906 1117 839 c 128,-1,72
 1063 772 1063 772 960 742 c 1,0,1
EndSplineSet
EndChar

StartChar: ae
Encoding: 230 230 166
Width: 1865
Flags: W
LayerCount: 2
Fore
SplineSet
852 152 m 1,0,1
 769 56 769 56 664 14.5 c 128,-1,2
 559 -27 559 -27 426 -27 c 0,3,4
 346 -27 346 -27 280 -7 c 128,-1,5
 214 13 214 13 167 50 c 128,-1,6
 120 87 120 87 94.5 139 c 128,-1,7
 69 191 69 191 69 256 c 0,8,9
 69 322 69 322 99 375 c 128,-1,10
 129 428 129 428 185 465.5 c 128,-1,11
 241 503 241 503 319.5 523.5 c 128,-1,12
 398 544 398 544 496 544 c 0,13,14
 559 544 559 544 625 537 c 128,-1,15
 691 530 691 530 752 517 c 1,16,-1
 752 618 l 1,17,18
 750 667 750 667 738.5 702.5 c 128,-1,19
 727 738 727 738 702 761 c 128,-1,20
 677 784 677 784 637 795.5 c 128,-1,21
 597 807 597 807 539 807 c 0,22,23
 436 807 436 807 383.5 771 c 128,-1,24
 331 735 331 735 322 657 c 1,25,-1
 121 670 l 1,26,-1
 137 869 l 1,27,28
 314 936 314 936 569 936 c 0,29,30
 697 936 697 936 791.5 905 c 128,-1,31
 886 874 886 874 940 811 c 1,32,33
 1000 868 1000 868 1089.5 902 c 128,-1,34
 1179 936 1179 936 1280 936 c 0,35,36
 1406 936 1406 936 1501.5 901.5 c 128,-1,37
 1597 867 1597 867 1661 801 c 128,-1,38
 1725 735 1725 735 1757.5 639.5 c 128,-1,39
 1790 544 1790 544 1790 423 c 1,40,-1
 1730 414 l 1,41,-1
 1062 414 l 1,42,43
 1064 272 1064 272 1128.5 193 c 128,-1,44
 1193 114 1193 114 1319 114 c 0,45,46
 1481 114 1481 114 1535 271 c 1,47,-1
 1771 252 l 1,48,49
 1732 115 1732 115 1610 42.5 c 128,-1,50
 1488 -30 1488 -30 1298 -30 c 0,51,52
 998 -30 998 -30 852 152 c 1,0,1
752 413 m 1,53,54
 710 422 710 422 664.5 428 c 128,-1,55
 619 434 619 434 576 434 c 0,56,57
 477 434 477 434 420 391 c 128,-1,58
 363 348 363 348 363 268 c 0,59,60
 363 233 363 233 375.5 203 c 128,-1,61
 388 173 388 173 410.5 151.5 c 128,-1,62
 433 130 433 130 464 117.5 c 128,-1,63
 495 105 495 105 533 104 c 1,64,65
 639 104 639 104 695.5 159.5 c 128,-1,66
 752 215 752 215 752 335 c 2,67,-1
 752 413 l 1,53,54
1500 516 m 1,68,69
 1500 525 1500 525 1500 534 c 128,-1,70
 1500 543 1500 543 1499 552 c 0,71,72
 1491 667 1491 667 1438 731 c 128,-1,73
 1385 795 1385 795 1288 795 c 0,74,75
 1184 795 1184 795 1127.5 722 c 128,-1,76
 1071 649 1071 649 1062 516 c 1,77,-1
 1500 516 l 1,68,69
EndSplineSet
EndChar

StartChar: eth
Encoding: 240 240 176
Width: 1267
Flags: W
LayerCount: 2
Fore
SplineSet
766 887 m 1,0,1
 744 942 744 942 709.5 996 c 128,-1,2
 675 1050 675 1050 627 1097 c 1,3,-1
 362 991 l 1,4,-1
 287 1061 l 1,5,-1
 559 1166 l 1,6,7
 487 1232 487 1232 398 1297 c 1,8,-1
 608 1336 l 1,9,10
 656 1319 656 1319 699 1294.5 c 128,-1,11
 742 1270 742 1270 777 1244 c 1,12,-1
 1013 1337 l 1,13,-1
 1087 1267 l 1,14,-1
 853 1178 l 1,15,16
 920 1111 920 1111 979 1036 c 128,-1,17
 1038 961 1038 961 1082.5 879.5 c 128,-1,18
 1127 798 1127 798 1153 711 c 128,-1,19
 1179 624 1179 624 1179 534 c 0,20,21
 1179 396 1179 396 1143 291 c 128,-1,22
 1107 186 1107 186 1038 114.5 c 128,-1,23
 969 43 969 43 868 6.5 c 128,-1,24
 767 -30 767 -30 637 -30 c 0,25,26
 512 -30 512 -30 409.5 3.5 c 128,-1,27
 307 37 307 37 234.5 100 c 128,-1,28
 162 163 162 163 122.5 253.5 c 128,-1,29
 83 344 83 344 83 458 c 0,30,31
 83 564 83 564 119 652 c 128,-1,32
 155 740 155 740 220 803 c 128,-1,33
 285 866 285 866 375 901 c 128,-1,34
 465 936 465 936 572 936 c 0,35,36
 627 936 627 936 676.5 922 c 128,-1,37
 726 908 726 908 764 885 c 1,38,39
 764 885 764 885 766 887 c 1,0,1
396 450 m 0,40,41
 396 378 396 378 412 320 c 128,-1,42
 428 262 428 262 458 221.5 c 128,-1,43
 488 181 488 181 531.5 159 c 128,-1,44
 575 137 575 137 631 137 c 0,45,46
 744 137 744 137 805.5 222 c 128,-1,47
 867 307 867 307 867 462 c 0,48,49
 867 532 867 532 851.5 589 c 128,-1,50
 836 646 836 646 806.5 686.5 c 128,-1,51
 777 727 777 727 733.5 749 c 128,-1,52
 690 771 690 771 633 771 c 0,53,54
 518 771 518 771 457 686.5 c 128,-1,55
 396 602 396 602 396 450 c 0,40,41
EndSplineSet
EndChar

StartChar: divide
Encoding: 247 247 183
Width: 1537
Flags: W
LayerCount: 2
Fore
SplineSet
769 1164 m 256,0,1
 798 1164 798 1164 823 1153 c 128,-1,2
 848 1142 848 1142 866 1123 c 128,-1,3
 884 1104 884 1104 894.5 1079.5 c 128,-1,4
 905 1055 905 1055 905 1027 c 0,5,6
 905 998 905 998 894.5 973.5 c 128,-1,7
 884 949 884 949 865.5 931 c 128,-1,8
 847 913 847 913 822 902.5 c 128,-1,9
 797 892 797 892 769 892 c 0,10,11
 740 892 740 892 714.5 902.5 c 128,-1,12
 689 913 689 913 670.5 931.5 c 128,-1,13
 652 950 652 950 641.5 974.5 c 128,-1,14
 631 999 631 999 631 1027 c 256,15,16
 631 1055 631 1055 642 1080 c 128,-1,17
 653 1105 653 1105 671.5 1123.5 c 128,-1,18
 690 1142 690 1142 715 1153 c 128,-1,19
 740 1164 740 1164 769 1164 c 256,0,1
1348 541 m 1,20,-1
 187 541 l 1,21,-1
 187 737 l 1,22,-1
 1348 737 l 1,23,-1
 1348 541 l 1,20,-1
769 385 m 256,24,25
 797 385 797 385 822 374 c 128,-1,26
 847 363 847 363 865.5 344 c 128,-1,27
 884 325 884 325 894.5 300 c 128,-1,28
 905 275 905 275 905 248 c 0,29,30
 905 220 905 220 894.5 195.5 c 128,-1,31
 884 171 884 171 865.5 152.5 c 128,-1,32
 847 134 847 134 822 123.5 c 128,-1,33
 797 113 797 113 769 113 c 0,34,35
 740 113 740 113 714.5 123.5 c 128,-1,36
 689 134 689 134 670.5 152.5 c 128,-1,37
 652 171 652 171 641.5 195.5 c 128,-1,38
 631 220 631 220 631 248 c 0,39,40
 631 277 631 277 642 302 c 128,-1,41
 653 327 653 327 672 345.5 c 128,-1,42
 691 364 691 364 716 374.5 c 128,-1,43
 741 385 741 385 769 385 c 256,24,25
EndSplineSet
EndChar

StartChar: oslash
Encoding: 248 248 184
Width: 1256
Flags: W
LayerCount: 2
Fore
SplineSet
1142 974 m 1,0,-1
 1012 815 l 1,1,2
 1092 749 1092 749 1134.5 659 c 128,-1,3
 1177 569 1177 569 1177 453 c 0,4,5
 1177 343 1177 343 1138 254 c 128,-1,6
 1099 165 1099 165 1028 102 c 128,-1,7
 957 39 957 39 856 4.5 c 128,-1,8
 755 -30 755 -30 632 -30 c 0,9,10
 468 -30 468 -30 333 34 c 1,11,-1
 217 -106 l 1,12,-1
 110 -74 l 1,13,-1
 241 90 l 1,14,15
 161 157 161 157 120 248.5 c 128,-1,16
 79 340 79 340 79 455 c 0,17,18
 79 563 79 563 117.5 652 c 128,-1,19
 156 741 156 741 227 804 c 128,-1,20
 298 867 298 867 399 901.5 c 128,-1,21
 500 936 500 936 626 936 c 0,22,23
 709 936 709 936 781 920 c 128,-1,24
 853 904 853 904 922 872 c 1,25,-1
 1036 1005 l 1,26,-1
 1142 974 l 1,0,-1
781 718 m 1,27,28
 752 747 752 747 713.5 761 c 128,-1,29
 675 775 675 775 630 775 c 0,30,31
 574 775 574 775 529 754 c 128,-1,32
 484 733 484 733 453 692.5 c 128,-1,33
 422 652 422 652 405.5 594 c 128,-1,34
 389 536 389 536 389 463 c 0,35,36
 389 415 389 415 396 373 c 128,-1,37
 403 331 403 331 420 286 c 1,38,-1
 781 718 l 1,27,28
475 188 m 1,39,40
 504 160 504 160 543.5 147 c 128,-1,41
 583 134 583 134 627 134 c 0,42,43
 684 134 684 134 728.5 157.5 c 128,-1,44
 773 181 773 181 804 225 c 128,-1,45
 835 269 835 269 851 331.5 c 128,-1,46
 867 394 867 394 867 473 c 1,47,48
 864 517 864 517 856.5 553 c 128,-1,49
 849 589 849 589 835 621 c 1,50,-1
 475 188 l 1,39,40
EndSplineSet
EndChar

